{
copyright = "Copyright (c) 2015, Cadson Demak (info@cadsondemak.com)";
customParameters = (
{
name = vendorID;
value = CDK;
},
{
name = description;
value = "Copyright (c) 2015, Cadson Demak (info@cadsondemak.com)";
},
{
name = license;

glyphs = (
{
glyphname = A;
lastChange = "2015-10-23 13:39:41 +0000";
layers = (
{
layerId = "DD5B64A7-4DAF-4BC4-A4CC-81A10E608EA1";
name = "Bold Italic";
paths = (
{
closed = 1;
nodes = (
"466 278 LINE",
"345 278 LINE",
"438 434 LINE"
);
},
{
closed = 1;
nodes = (
"462 128 LINE",
"485 0 LINE",
"700 0 LINE",
"588 644 LINE",
"363 644 LINE",
"-20 0 LINE",
"211 0 LINE",
"287 128 LINE"
);
}
);
width = 760;
}
);
leftKerningGroup = A;
note = A;
rightKerningGroup = A;
unicode = 0041;
},
{
glyphname = Aacute;
lastChange = "2015-10-23 13:39:41 +0000";
layers = (
{
layerId = "DD5B64A7-4DAF-4BC4-A4CC-81A10E608EA1";
name = "Bold Italic";
paths = (
{
closed = 1;
nodes = (
"466 278 LINE",
"345 278 LINE",
"438 434 LINE"
);
},
{
closed = 1;
nodes = (
"462 128 LINE",
"485 0 LINE",
"700 0 LINE",
"588 644 LINE",
"363 644 LINE",
"-20 0 LINE",
"211 0 LINE",
"287 128 LINE"
);
},
{
closed = 1;
nodes = (
"560 688 LINE",
"707 904 LINE",
"541 904 LINE",
"403 688 LINE"
);
}
);
width = 760;
}
);
leftKerningGroup = A;
note = Aacute;
rightKerningGroup = A;
unicode = 00C1;
},
{
glyphname = Abreve;
lastChange = "2015-10-24 04:56:43 +0000";
layers = (
{
layerId = "DD5B64A7-4DAF-4BC4-A4CC-81A10E608EA1";
name = "Bold Italic";
paths = (
{
closed = 1;
nodes = (
"466 278 LINE",
"345 278 LINE",
"438 434 LINE"
);
},
{
closed = 1;
nodes = (
"462 128 LINE",
"485 0 LINE",
"700 0 LINE",
"588 644 LINE",
"363 644 LINE",
"-20 0 LINE",
"211 0 LINE",
"287 128 LINE"
);
},
{
closed = 1;
nodes = (
"324 892 LINE",
"320 872 OFFCURVE",
"318 853 OFFCURVE",
"318 835 CURVE SMOOTH",
"318 740 OFFCURVE",
"381 688 OFFCURVE",
"484 688 CURVE SMOOTH",
"617 688 OFFCURVE",
"705 760 OFFCURVE",
"733 892 CURVE",
"589 892 LINE",
"579 845 OFFCURVE",
"562 806 OFFCURVE",
"504 806 CURVE SMOOTH",
"464 806 OFFCURVE",
"452 827 OFFCURVE",
"452 857 CURVE SMOOTH",
"452 868 OFFCURVE",
"453 879 OFFCURVE",
"456 892 CURVE"
);
}
);
width = 760;
}
);
leftKerningGroup = A;
note = Abreve;
rightKerningGroup = A;
unicode = 0102;
},
{
glyphname = Abreveacute;
lastChange = "2015-10-24 04:56:43 +0000";
layers = (
{
layerId = "DD5B64A7-4DAF-4BC4-A4CC-81A10E608EA1";
name = "Bold Italic";
paths = (
{
closed = 1;
nodes = (
"466 278 LINE",
"345 278 LINE",
"438 434 LINE"
);
},
{
closed = 1;
nodes = (
"462 128 LINE",
"485 0 LINE",
"700 0 LINE",
"588 644 LINE",
"363 644 LINE",
"-20 0 LINE",
"211 0 LINE",
"287 128 LINE"
);
},
{
closed = 1;
nodes = (
"334 868 LINE",
"331 851 OFFCURVE",
"329 836 OFFCURVE",
"329 822 CURVE SMOOTH",
"329 731 OFFCURVE",
"394 688 OFFCURVE",
"486 688 CURVE SMOOTH",
"606 688 OFFCURVE",
"688 743 OFFCURVE",
"714 868 CURVE",
"592 868 LINE",
"584 822 OFFCURVE",
"559 792 OFFCURVE",
"505 792 CURVE SMOOTH",
"464 792 OFFCURVE",
"447 807 OFFCURVE",
"447 838 CURVE SMOOTH",
"447 847 OFFCURVE",
"449 857 OFFCURVE",
"451 868 CURVE"
);
},
{
closed = 1;
nodes = (
"592 892 LINE",
"704 1040 LINE",
"563 1040 LINE",
"464 892 LINE"
);
}
);
width = 760;
}
);
leftKerningGroup = A;
note = Abreveacute;
rightKerningGroup = A;
unicode = 1EAE;
},
{
glyphname = Abrevedotbelow;
lastChange = "2015-10-24 04:56:43 +0000";
layers = (
{
layerId = "DD5B64A7-4DAF-4BC4-A4CC-81A10E608EA1";
name = "Bold Italic";
paths = (
{
closed = 1;
nodes = (
"466 278 LINE",
"345 278 LINE",
"438 434 LINE"
);
},
{
closed = 1;
nodes = (
"462 128 LINE",
"485 0 LINE",
"700 0 LINE",
"588 644 LINE",
"363 644 LINE",
"-20 0 LINE",
"211 0 LINE",
"287 128 LINE"
);
},
{
closed = 1;
nodes = (
"325 892 LINE",
"321 872 OFFCURVE",
"319 853 OFFCURVE",
"319 835 CURVE SMOOTH",
"319 740 OFFCURVE",
"382 688 OFFCURVE",
"485 688 CURVE SMOOTH",
"618 688 OFFCURVE",
"706 760 OFFCURVE",
"734 892 CURVE",
"590 892 LINE",
"580 845 OFFCURVE",
"563 806 OFFCURVE",
"505 806 CURVE SMOOTH",
"465 806 OFFCURVE",
"453 827 OFFCURVE",
"453 857 CURVE SMOOTH",
"453 868 OFFCURVE",
"454 879 OFFCURVE",
"457 892 CURVE"
);
},
{
closed = 1;
nodes = (
"374 -176 LINE",
"402 -46 LINE",
"259 -46 LINE",
"231 -176 LINE"
);
}
);
width = 760;
}
);
leftKerningGroup = A;
note = Abrevedotbelow;
rightKerningGroup = A;
unicode = 1EB6;
},
{
glyphname = Abrevegrave;
lastChange = "2015-10-24 04:56:43 +0000";
layers = (
{
layerId = "DD5B64A7-4DAF-4BC4-A4CC-81A10E608EA1";
name = "Bold Italic";
paths = (
{
closed = 1;
nodes = (
"466 278 LINE",
"345 278 LINE",
"438 434 LINE"
);
},
{
closed = 1;
nodes = (
"462 128 LINE",
"485 0 LINE",
"700 0 LINE",
"588 644 LINE",
"363 644 LINE",
"-20 0 LINE",
"211 0 LINE",
"287 128 LINE"
);
},
{
closed = 1;
nodes = (
"593 892 LINE",
"558 1040 LINE",
"417 1040 LINE",
"465 892 LINE"
);
},
{
closed = 1;
nodes = (
"333 868 LINE",
"330 851 OFFCURVE",
"328 836 OFFCURVE",
"328 822 CURVE SMOOTH",
"328 731 OFFCURVE",
"393 688 OFFCURVE",
"485 688 CURVE SMOOTH",
"605 688 OFFCURVE",
"687 743 OFFCURVE",
"713 868 CURVE",
"591 868 LINE",
"583 822 OFFCURVE",
"558 792 OFFCURVE",
"504 792 CURVE SMOOTH",
"463 792 OFFCURVE",
"446 807 OFFCURVE",
"446 838 CURVE SMOOTH",
"446 847 OFFCURVE",
"448 857 OFFCURVE",
"450 868 CURVE"
);
}
);
width = 760;
}
);
leftKerningGroup = A;
note = Abrevegrave;
rightKerningGroup = A;
unicode = 1EB0;
},
{
glyphname = Abrevehookabove;
lastChange = "2015-10-24 04:56:43 +0000";
layers = (
{
layerId = "DD5B64A7-4DAF-4BC4-A4CC-81A10E608EA1";
name = "Bold Italic";
paths = (
{
closed = 1;
nodes = (
"466 278 LINE",
"345 278 LINE",
"438 434 LINE"
);
},
{
closed = 1;
nodes = (
"462 128 LINE",
"485 0 LINE",
"700 0 LINE",
"588 644 LINE",
"363 644 LINE",
"-20 0 LINE",
"211 0 LINE",
"287 128 LINE"
);
},
{
closed = 1;
nodes = (
"686 995 OFFCURVE",
"687 1001 OFFCURVE",
"687 1006 CURVE SMOOTH",
"687 1046 OFFCURVE",
"652 1076 OFFCURVE",
"585 1076 CURVE SMOOTH",
"546 1076 OFFCURVE",
"504 1070 OFFCURVE",
"479 1063 CURVE",
"463 991 LINE",
"476 996 OFFCURVE",
"495 1001 OFFCURVE",
"512 1001 CURVE SMOOTH",
"538 1001 OFFCURVE",
"552 997 OFFCURVE",
"552 982 CURVE SMOOTH",
"552 960 OFFCURVE",
"530 945 OFFCURVE",
"472 943 CURVE",
"459 882 LINE",
"592 882 LINE",
"598 910 LINE",
"651 923 OFFCURVE",
"676 946 OFFCURVE",
"685 990 CURVE SMOOTH"
);
},
{
closed = 1;
nodes = (
"333 868 LINE",
"330 851 OFFCURVE",
"328 836 OFFCURVE",
"328 822 CURVE SMOOTH",
"328 731 OFFCURVE",
"393 688 OFFCURVE",
"485 688 CURVE SMOOTH",
"605 688 OFFCURVE",
"687 743 OFFCURVE",
"713 868 CURVE",
"591 868 LINE",
"583 822 OFFCURVE",
"558 792 OFFCURVE",
"504 792 CURVE SMOOTH",
"463 792 OFFCURVE",
"446 807 OFFCURVE",
"446 838 CURVE SMOOTH",
"446 847 OFFCURVE",
"448 857 OFFCURVE",
"450 868 CURVE"
);
}
);
width = 760;
}
);
leftKerningGroup = A;
note = Abrevehookabove;
rightKerningGroup = A;
unicode = 1EB2;
},
{
glyphname = Abrevetilde;
lastChange = "2015-10-24 04:56:44 +0000";
layers = (
{
layerId = "DD5B64A7-4DAF-4BC4-A4CC-81A10E608EA1";
name = "Bold Italic";
paths = (
{
closed = 1;
nodes = (
"466 278 LINE",
"345 278 LINE",
"438 434 LINE"
);
},
{
closed = 1;
nodes = (
"462 128 LINE",
"485 0 LINE",
"700 0 LINE",
"588 644 LINE",
"363 644 LINE",
"-20 0 LINE",
"211 0 LINE",
"287 128 LINE"
);
},
{
closed = 1;
nodes = (
"661 889 OFFCURVE",
"698 904 OFFCURVE",
"714 921 CURVE",
"736 1027 LINE",
"716 1004 OFFCURVE",
"681 988 OFFCURVE",
"640 988 CURVE SMOOTH",
"580 988 OFFCURVE",
"537 1029 OFFCURVE",
"472 1029 CURVE SMOOTH",
"434 1029 OFFCURVE",
"395 1015 OFFCURVE",
"374 997 CURVE",
"351 892 LINE",
"379 916 OFFCURVE",
"413 930 OFFCURVE",
"454 930 CURVE SMOOTH",
"508 930 OFFCURVE",
"559 889 OFFCURVE",
"622 889 CURVE SMOOTH"
);
},
{
closed = 1;
nodes = (
"333 868 LINE",
"330 851 OFFCURVE",
"328 836 OFFCURVE",
"328 822 CURVE SMOOTH",
"328 731 OFFCURVE",
"393 688 OFFCURVE",
"485 688 CURVE SMOOTH",
"605 688 OFFCURVE",
"687 743 OFFCURVE",
"713 868 CURVE",
"591 868 LINE",
"583 822 OFFCURVE",
"558 792 OFFCURVE",
"504 792 CURVE SMOOTH",
"463 792 OFFCURVE",
"446 807 OFFCURVE",
"446 838 CURVE SMOOTH",
"446 847 OFFCURVE",
"448 857 OFFCURVE",
"450 868 CURVE"
);
}
);
width = 760;
}
);
leftKerningGroup = A;
note = Abrevetilde;
rightKerningGroup = A;
unicode = 1EB4;
},
{
glyphname = Acaron;
lastChange = "2015-10-23 13:39:41 +0000";
layers = (
{
layerId = "DD5B64A7-4DAF-4BC4-A4CC-81A10E608EA1";
name = "Bold Italic";
paths = (
{
closed = 1;
nodes = (
"466 278 LINE",
"345 278 LINE",
"438 434 LINE"
);
},
{
closed = 1;
nodes = (
"462 128 LINE",
"485 0 LINE",
"700 0 LINE",
"588 644 LINE",
"363 644 LINE",
"-20 0 LINE",
"211 0 LINE",
"287 128 LINE"
);
},
{
closed = 1;
nodes = (
"757 896 LINE",
"599 896 LINE",
"500 788 LINE",
"450 896 LINE",
"301 896 LINE",
"422 688 LINE",
"548 688 LINE"
);
}
);
width = 760;
}
);
leftKerningGroup = A;
note = Acaron;
rightKerningGroup = A;
unicode = 01CD;
},
{
glyphname = Acircumflex;
lastChange = "2015-10-23 13:39:41 +0000";
layers = (
{
layerId = "DD5B64A7-4DAF-4BC4-A4CC-81A10E608EA1";
name = "Bold Italic";
paths = (
{
closed = 1;
nodes = (
"466 278 LINE",
"345 278 LINE",
"438 434 LINE"
);
},
{
closed = 1;
nodes = (
"462 128 LINE",
"485 0 LINE",
"700 0 LINE",
"588 644 LINE",
"363 644 LINE",
"-20 0 LINE",
"211 0 LINE",
"287 128 LINE"
);
},
{
closed = 1;
nodes = (
"592 896 LINE",
"465 896 LINE",
"257 688 LINE",
"419 688 LINE",
"514 796 LINE",
"567 688 LINE",
"713 688 LINE"
);
}
);
width = 760;
}
);
leftKerningGroup = A;
note = Acircumflex;
rightKerningGroup = A;
unicode = 00C2;
},
{
glyphname = Acircumflexacute;
lastChange = "2015-10-23 13:39:41 +0000";
layers = (
{
layerId = "DD5B64A7-4DAF-4BC4-A4CC-81A10E608EA1";
name = "Bold Italic";
paths = (
{
closed = 1;
nodes = (
"466 278 LINE",
"345 278 LINE",
"438 434 LINE"
);
},
{
closed = 1;
nodes = (
"462 128 LINE",
"485 0 LINE",
"700 0 LINE",
"588 644 LINE",
"363 644 LINE",
"-20 0 LINE",
"211 0 LINE",
"287 128 LINE"
);
},
{
closed = 1;
nodes = (
"594 848 LINE",
"438 848 LINE",
"254 688 LINE",
"430 688 LINE",
"503 765 LINE",
"546 688 LINE",
"709 688 LINE"
);
},
{
closed = 1;
nodes = (
"791 816 LINE",
"906 980 LINE",
"749 980 LINE",
"642 816 LINE"
);
}
);
width = 760;
}
);
leftKerningGroup = A;
note = Acircumflexacute;
rightKerningGroup = A;
unicode = 1EA4;
},
{
glyphname = Acircumflexdotbelow;
lastChange = "2015-10-23 13:39:41 +0000";
layers = (
{
layerId = "DD5B64A7-4DAF-4BC4-A4CC-81A10E608EA1";
name = "Bold Italic";
paths = (
{
closed = 1;
nodes = (
"469 278 LINE",
"348 278 LINE",
"441 434 LINE"
);
},
{
closed = 1;
nodes = (
"465 128 LINE",
"488 0 LINE",
"703 0 LINE",
"591 644 LINE",
"366 644 LINE",
"-17 0 LINE",
"214 0 LINE",
"290 128 LINE"
);
},
{
closed = 1;
nodes = (
"596 896 LINE",
"469 896 LINE",
"261 688 LINE",
"423 688 LINE",
"518 796 LINE",
"571 688 LINE",
"717 688 LINE"
);
},
{
closed = 1;
nodes = (
"377 -176 LINE",
"405 -46 LINE",
"262 -46 LINE",
"234 -176 LINE"
);
}
);
width = 763;
}
);
leftKerningGroup = A;
note = Acircumflexdotbelow;
rightKerningGroup = A;
unicode = 1EAC;
},
{
glyphname = Acircumflexgrave;
lastChange = "2015-10-23 13:39:41 +0000";
layers = (
{
layerId = "DD5B64A7-4DAF-4BC4-A4CC-81A10E608EA1";
name = "Bold Italic";
paths = (
{
closed = 1;
nodes = (
"466 278 LINE",
"345 278 LINE",
"438 434 LINE"
);
},
{
closed = 1;
nodes = (
"462 128 LINE",
"485 0 LINE",
"700 0 LINE",
"588 644 LINE",
"363 644 LINE",
"-20 0 LINE",
"211 0 LINE",
"287 128 LINE"
);
},
{
closed = 1;
nodes = (
"260 688 LINE",
"433 688 LINE",
"508 765 LINE",
"550 688 LINE",
"716 688 LINE",
"601 848 LINE",
"444 848 LINE"
);
},
{
closed = 1;
nodes = (
"383 816 LINE",
"345 980 LINE",
"187 980 LINE",
"233 816 LINE"
);
}
);
width = 760;
}
);
leftKerningGroup = A;
note = Acircumflexgrave;
rightKerningGroup = A;
unicode = 1EA6;
},
{
glyphname = Acircumflexhookabove;
lastChange = "2015-10-24 04:56:43 +0000";
layers = (
{
layerId = "DD5B64A7-4DAF-4BC4-A4CC-81A10E608EA1";
name = "Bold Italic";
paths = (
{
closed = 1;
nodes = (
"466 278 LINE",
"345 278 LINE",
"438 434 LINE"
);
},
{
closed = 1;
nodes = (
"462 128 LINE",
"485 0 LINE",
"700 0 LINE",
"588 644 LINE",
"363 644 LINE",
"-20 0 LINE",
"211 0 LINE",
"287 128 LINE"
);
},
{
closed = 1;
nodes = (
"597 848 LINE",
"440 848 LINE",
"256 688 LINE",
"432 688 LINE",
"506 765 LINE",
"549 688 LINE",
"712 688 LINE"
);
},
{
closed = 1;
nodes = (
"887 918 OFFCURVE",
"888 924 OFFCURVE",
"888 930 CURVE SMOOTH",
"888 972 OFFCURVE",
"853 1001 OFFCURVE",
"781 1001 CURVE SMOOTH",
"736 1001 OFFCURVE",
"698 996 OFFCURVE",
"672 989 CURVE",
"654 907 LINE",
"669 911 OFFCURVE",
"688 915 OFFCURVE",
"705 915 CURVE SMOOTH",
"727 915 OFFCURVE",
"739 912 OFFCURVE",
"739 901 CURVE SMOOTH",
"739 884 OFFCURVE",
"726 871 OFFCURVE",
"666 870 CURVE",
"650 793 LINE",
"790 793 LINE",
"797 825 LINE",
"848 834 OFFCURVE",
"876 866 OFFCURVE",
"886 912 CURVE SMOOTH"
);
}
);
width = 760;
}
);
leftKerningGroup = A;
note = Acircumflexhookabove;
rightKerningGroup = A;
unicode = 1EA8;
},
{
glyphname = Acircumflextilde;
lastChange = "2015-10-23 13:39:40 +0000";
layers = (
{
layerId = "DD5B64A7-4DAF-4BC4-A4CC-81A10E608EA1";
name = "Bold Italic";
paths = (
{
closed = 1;
nodes = (
"466 278 LINE",
"345 278 LINE",
"438 434 LINE"
);
},
{
closed = 1;
nodes = (
"462 128 LINE",
"485 0 LINE",
"700 0 LINE",
"588 644 LINE",
"363 644 LINE",
"-20 0 LINE",
"211 0 LINE",
"287 128 LINE"
);
},
{
closed = 1;
nodes = (
"599 848 LINE",
"442 848 LINE",
"258 688 LINE",
"429 688 LINE",
"503 765 LINE",
"546 688 LINE",
"714 688 LINE"
);
},
{
closed = 1;
nodes = (
"654 858 OFFCURVE",
"691 873 OFFCURVE",
"707 890 CURVE",
"729 996 LINE",
"708 973 OFFCURVE",
"674 957 OFFCURVE",
"633 957 CURVE SMOOTH",
"573 957 OFFCURVE",
"530 998 OFFCURVE",
"465 998 CURVE SMOOTH",
"427 998 OFFCURVE",
"389 984 OFFCURVE",
"367 966 CURVE",
"344 861 LINE",
"372 885 OFFCURVE",
"406 899 OFFCURVE",
"447 899 CURVE SMOOTH",
"501 899 OFFCURVE",
"552 858 OFFCURVE",
"615 858 CURVE SMOOTH"
);
}
);
width = 760;
}
);
leftKerningGroup = A;
note = Acircumflextilde;
rightKerningGroup = A;
unicode = 1EAA;
},
{
glyphname = Adieresis;
lastChange = "2015-10-23 13:39:41 +0000";
layers = (
{
layerId = "DD5B64A7-4DAF-4BC4-A4CC-81A10E608EA1";
name = "Bold Italic";
paths = (
{
closed = 1;
nodes = (
"466 278 LINE",
"345 278 LINE",
"438 434 LINE"
);
},
{
closed = 1;
nodes = (
"462 128 LINE",
"485 0 LINE",
"700 0 LINE",
"588 644 LINE",
"363 644 LINE",
"-20 0 LINE",
"211 0 LINE",
"287 128 LINE"
);
},
{
closed = 1;
nodes = (
"450 715 LINE",
"477 846 LINE",
"334 846 LINE",
"307 715 LINE"
);
},
{
closed = 1;
nodes = (
"675 715 LINE",
"702 846 LINE",
"559 846 LINE",
"532 715 LINE"
);
}
);
width = 760;
}
);
leftKerningGroup = A;
note = Adieresis;
rightKerningGroup = A;
unicode = 00C4;
},
{
glyphname = Adotbelow;
lastChange = "2015-10-23 13:39:40 +0000";
layers = (
{
layerId = "DD5B64A7-4DAF-4BC4-A4CC-81A10E608EA1";
name = "Bold Italic";
paths = (
{
closed = 1;
nodes = (
"466 278 LINE",
"345 278 LINE",
"438 434 LINE"
);
},
{
closed = 1;
nodes = (
"462 128 LINE",
"485 0 LINE",
"700 0 LINE",
"588 644 LINE",
"363 644 LINE",
"-20 0 LINE",
"211 0 LINE",
"287 128 LINE"
);
},
{
closed = 1;
nodes = (
"374 -176 LINE",
"402 -46 LINE",
"259 -46 LINE",
"231 -176 LINE"
);
}
);
width = 760;
}
);
note = Adotbelow;
unicode = 1EA0;
},
{
glyphname = Agrave;
lastChange = "2015-10-23 13:39:41 +0000";
layers = (
{
layerId = "DD5B64A7-4DAF-4BC4-A4CC-81A10E608EA1";
name = "Bold Italic";
paths = (
{
closed = 1;
nodes = (
"466 278 LINE",
"345 278 LINE",
"438 434 LINE"
);
},
{
closed = 1;
nodes = (
"462 128 LINE",
"485 0 LINE",
"700 0 LINE",
"588 644 LINE",
"363 644 LINE",
"-20 0 LINE",
"211 0 LINE",
"287 128 LINE"
);
},
{
closed = 1;
nodes = (
"562 688 LINE",
"516 904 LINE",
"349 904 LINE",
"404 688 LINE"
);
}
);
width = 760;
}
);
leftKerningGroup = A;
note = Agrave;
rightKerningGroup = A;
unicode = 00C0;
},
{
glyphname = Ahookabove;
lastChange = "2015-10-24 04:56:43 +0000";
layers = (
{
layerId = "DD5B64A7-4DAF-4BC4-A4CC-81A10E608EA1";
name = "Bold Italic";
paths = (
{
closed = 1;
nodes = (
"466 278 LINE",
"345 278 LINE",
"438 434 LINE"
);
},
{
closed = 1;
nodes = (
"462 128 LINE",
"485 0 LINE",
"700 0 LINE",
"588 644 LINE",
"363 644 LINE",
"-20 0 LINE",
"211 0 LINE",
"287 128 LINE"
);
},
{
closed = 1;
nodes = (
"682 835 OFFCURVE",
"682 842 OFFCURVE",
"682 848 CURVE SMOOTH",
"682 898 OFFCURVE",
"639 932 OFFCURVE",
"556 932 CURVE SMOOTH",
"503 932 OFFCURVE",
"462 927 OFFCURVE",
"430 918 CURVE",
"412 832 LINE",
"429 837 OFFCURVE",
"452 841 OFFCURVE",
"472 841 CURVE SMOOTH",
"504 841 OFFCURVE",
"521 834 OFFCURVE",
"521 817 CURVE SMOOTH",
"521 791 OFFCURVE",
"499 773 OFFCURVE",
"424 769 CURVE",
"407 688 LINE",
"567 688 LINE",
"575 726 LINE",
"635 743 OFFCURVE",
"667 769 OFFCURVE",
"680 828 CURVE SMOOTH"
);
}
);
width = 760;
}
);
leftKerningGroup = A;
note = Ahookabove;
rightKerningGroup = A;
unicode = 1EA2;
},
{
glyphname = Amacron;
lastChange = "2015-10-23 13:39:41 +0000";
layers = (
{
layerId = "DD5B64A7-4DAF-4BC4-A4CC-81A10E608EA1";
name = "Bold Italic";
paths = (
{
closed = 1;
nodes = (
"466 278 LINE",
"345 278 LINE",
"438 434 LINE"
);
},
{
closed = 1;
nodes = (
"462 128 LINE",
"485 0 LINE",
"700 0 LINE",
"588 644 LINE",
"363 644 LINE",
"-20 0 LINE",
"211 0 LINE",
"287 128 LINE"
);
},
{
closed = 1;
nodes = (
"345 825 LINE",
"318 699 LINE",
"656 699 LINE",
"683 825 LINE"
);
}
);
width = 760;
}
);
leftKerningGroup = A;
note = Amacron;
rightKerningGroup = A;
unicode = 0100;
},
{
glyphname = Aogonek;
lastChange = "2015-10-24 04:56:43 +0000";
layers = (
{
layerId = "DD5B64A7-4DAF-4BC4-A4CC-81A10E608EA1";
name = "Bold Italic";
paths = (
{
closed = 1;
nodes = (
"568 -51 OFFCURVE",
"594 -24 OFFCURVE",
"631 0 CURVE",
"700 0 LINE",
"588 644 LINE",
"363 644 LINE",
"-20 0 LINE",
"211 0 LINE",
"287 128 LINE",
"462 128 LINE",
"485 0 LINE",
"444 -30 OFFCURVE",
"394 -80 OFFCURVE",
"394 -143 CURVE SMOOTH",
"394 -196 OFFCURVE",
"443 -220 OFFCURVE",
"516 -220 CURVE SMOOTH",
"562 -220 OFFCURVE",
"607 -211 OFFCURVE",
"629 -203 CURVE",
"650 -107 LINE",
"636 -114 OFFCURVE",
"614 -118 OFFCURVE",
"597 -118 CURVE SMOOTH",
"573 -118 OFFCURVE",
"560 -111 OFFCURVE",
"560 -93 CURVE SMOOTH",
"560 -90 OFFCURVE",
"560 -87 OFFCURVE",
"561 -83 CURVE SMOOTH"
);
},
{
closed = 1;
nodes = (
"466 278 LINE",
"345 278 LINE",
"438 434 LINE"
);
}
);
width = 733;
}
);
leftKerningGroup = A;
note = Aogonek;
rightKerningGroup = A;
unicode = 0104;
},
{
glyphname = Aring;
lastChange = "2015-10-24 04:56:43 +0000";
layers = (
{
layerId = "DD5B64A7-4DAF-4BC4-A4CC-81A10E608EA1";
name = "Bold Italic";
paths = (
{
closed = 1;
nodes = (
"345 715 OFFCURVE",
"344 705 OFFCURVE",
"344 695 CURVE SMOOTH",
"344 673 OFFCURVE",
"349 653 OFFCURVE",
"359 637 CURVE",
"-20 0 LINE",
"211 0 LINE",
"287 128 LINE",
"462 128 LINE",
"485 0 LINE",
"700 0 LINE",
"589 634 LINE",
"615 658 OFFCURVE",
"631 690 OFFCURVE",
"639 726 CURVE SMOOTH",
"641 737 OFFCURVE",
"643 748 OFFCURVE",
"643 759 CURVE SMOOTH",
"643 820 OFFCURVE",
"601 864 OFFCURVE",
"522 864 CURVE SMOOTH",
"422 864 OFFCURVE",
"364 804 OFFCURVE",
"347 726 CURVE SMOOTH"
);
},
{
closed = 1;
nodes = (
"466 278 LINE",
"345 278 LINE",
"438 434 LINE"
);
},
{
closed = 1;
nodes = (
"435 745 OFFCURVE",
"462 779 OFFCURVE",
"504 779 CURVE SMOOTH",
"537 779 OFFCURVE",
"549 763 OFFCURVE",
"549 741 CURVE SMOOTH",
"549 708 OFFCURVE",
"525 674 OFFCURVE",
"481 674 CURVE SMOOTH",
"448 674 OFFCURVE",
"435 690 OFFCURVE",
"435 712 CURVE SMOOTH"
);
}
);
width = 760;
}
);
leftKerningGroup = A;
note = Aring;
rightKerningGroup = A;
unicode = 00C5;
},
{
glyphname = Aringacute;
lastChange = "2015-10-24 04:56:43 +0000";
layers = (
{
layerId = "DD5B64A7-4DAF-4BC4-A4CC-81A10E608EA1";
name = "Bold Italic";
paths = (
{
closed = 1;
nodes = (
"345 715 OFFCURVE",
"344 705 OFFCURVE",
"344 695 CURVE SMOOTH",
"344 673 OFFCURVE",
"349 653 OFFCURVE",
"359 637 CURVE",
"-20 0 LINE",
"211 0 LINE",
"287 128 LINE",
"462 128 LINE",
"485 0 LINE",
"700 0 LINE",
"589 634 LINE",
"615 658 OFFCURVE",
"631 690 OFFCURVE",
"639 726 CURVE SMOOTH",
"641 737 OFFCURVE",
"643 748 OFFCURVE",
"643 759 CURVE SMOOTH",
"643 820 OFFCURVE",
"601 864 OFFCURVE",
"522 864 CURVE SMOOTH",
"422 864 OFFCURVE",
"364 804 OFFCURVE",
"347 726 CURVE SMOOTH"
);
},
{
closed = 1;
nodes = (
"466 278 LINE",
"345 278 LINE",
"438 434 LINE"
);
},
{
closed = 1;
nodes = (
"435 745 OFFCURVE",
"462 779 OFFCURVE",
"504 779 CURVE SMOOTH",
"537 779 OFFCURVE",
"549 763 OFFCURVE",
"549 741 CURVE SMOOTH",
"549 708 OFFCURVE",
"525 674 OFFCURVE",
"481 674 CURVE SMOOTH",
"448 674 OFFCURVE",
"435 690 OFFCURVE",
"435 712 CURVE SMOOTH"
);
},
{
closed = 1;
nodes = (
"615 893 LINE",
"762 1076 LINE",
"596 1076 LINE",
"458 893 LINE"
);
}
);
width = 760;
}
);
leftKerningGroup = A;
note = Aringacute;
rightKerningGroup = A;
unicode = 01FA;
},
{
glyphname = Atilde;
lastChange = "2015-10-23 13:39:40 +0000";
layers = (
{
layerId = "DD5B64A7-4DAF-4BC4-A4CC-81A10E608EA1";
name = "Bold Italic";
paths = (
{
closed = 1;
nodes = (
"466 278 LINE",
"345 278 LINE",
"438 434 LINE"
);
},
{
closed = 1;
nodes = (
"462 128 LINE",
"485 0 LINE",
"700 0 LINE",
"588 644 LINE",
"363 644 LINE",
"-20 0 LINE",
"211 0 LINE",
"287 128 LINE"
);
},
{
closed = 1;
nodes = (
"628 692 OFFCURVE",
"668 708 OFFCURVE",
"685 726 CURVE",
"713 856 LINE",
"692 833 OFFCURVE",
"654 815 OFFCURVE",
"610 815 CURVE SMOOTH",
"544 815 OFFCURVE",
"498 858 OFFCURVE",
"428 858 CURVE SMOOTH",
"388 858 OFFCURVE",
"346 842 OFFCURVE",
"323 824 CURVE",
"295 695 LINE",
"325 719 OFFCURVE",
"361 735 OFFCURVE",
"405 735 CURVE SMOOTH",
"463 735 OFFCURVE",
"518 692 OFFCURVE",
"587 692 CURVE SMOOTH"
);
}
);
width = 760;
}
);
leftKerningGroup = A;
note = Atilde;
rightKerningGroup = A;
unicode = 00C3;
},
{
glyphname = AE;
lastChange = "2015-10-23 13:39:41 +0000";
layers = (
{
layerId = "DD5B64A7-4DAF-4BC4-A4CC-81A10E608EA1";
name = "Bold Italic";
paths = (
{
closed = 1;
nodes = (
"806 0 LINE",
"839 159 LINE",
"604 159 LINE",
"622 240 LINE",
"820 240 LINE",
"854 403 LINE",
"656 403 LINE",
"674 485 LINE",
"909 485 LINE",
"942 644 LINE",
"363 644 LINE",
"-20 0 LINE",
"205 0 LINE",
"282 129 LINE",
"390 129 LINE",
"363 0 LINE"
);
},
{
closed = 1;
nodes = (
"460 485 LINE",
"466 485 LINE",
"423 284 LINE",
"346 284 LINE"
);
}
);
width = 866;
}
);
leftKerningGroup = A;
note = AE;
rightKerningGroup = E;
unicode = 00C6;
},
{
glyphname = AEacute;
lastChange = "2015-10-23 13:39:41 +0000";
layers = (
{
layerId = "DD5B64A7-4DAF-4BC4-A4CC-81A10E608EA1";
name = "Bold Italic";
paths = (
{
closed = 1;
nodes = (
"806 0 LINE",
"839 159 LINE",
"604 159 LINE",
"622 240 LINE",
"820 240 LINE",
"854 403 LINE",
"656 403 LINE",
"674 485 LINE",
"909 485 LINE",
"942 644 LINE",
"363 644 LINE",
"-20 0 LINE",
"205 0 LINE",
"282 129 LINE",
"390 129 LINE",
"363 0 LINE"
);
},
{
closed = 1;
nodes = (
"460 485 LINE",
"466 485 LINE",
"423 284 LINE",
"346 284 LINE"
);
},
{
closed = 1;
nodes = (
"675 688 LINE",
"822 904 LINE",
"656 904 LINE",
"518 688 LINE"
);
}
);
width = 866;
}
);
leftKerningGroup = A;
note = AEacute;
rightKerningGroup = E;
unicode = 01FC;
},
{
glyphname = B;
lastChange = "2015-10-24 04:56:43 +0000";
layers = (
{
layerId = "DD5B64A7-4DAF-4BC4-A4CC-81A10E608EA1";
name = "Bold Italic";
paths = (
{
closed = 1;
nodes = (
"638 207 OFFCURVE",
"639 220 OFFCURVE",
"639 232 CURVE SMOOTH",
"639 280 OFFCURVE",
"616 308 OFFCURVE",
"577 327 CURVE",
"621 353 OFFCURVE",
"657 398 OFFCURVE",
"670 464 CURVE SMOOTH",
"672 477 OFFCURVE",
"674 490 OFFCURVE",
"674 502 CURVE SMOOTH",
"674 587 OFFCURVE",
"613 644 OFFCURVE",
"504 644 CURVE SMOOTH",
"136 644 LINE",
"0 0 LINE",
"374 0 LINE SMOOTH",
"531 0 OFFCURVE",
"610 71 OFFCURVE",
"635 193 CURVE SMOOTH"
);
},
{
closed = 1;
nodes = (
"287 392 LINE",
"309 496 LINE",
"412 496 LINE SMOOTH",
"448 496 OFFCURVE",
"464 483 OFFCURVE",
"464 459 CURVE SMOOTH",
"464 454 OFFCURVE",
"463 449 OFFCURVE",
"462 444 CURVE SMOOTH",
"455 410 OFFCURVE",
"437 392 OFFCURVE",
"393 392 CURVE SMOOTH"
);
},
{
closed = 1;
nodes = (
"235 147 LINE",
"258 255 LINE",
"366 255 LINE SMOOTH",
"403 255 OFFCURVE",
"420 241 OFFCURVE",
"420 217 CURVE SMOOTH",
"420 213 OFFCURVE",
"419 208 OFFCURVE",
"418 203 CURVE SMOOTH",
"409 164 OFFCURVE",
"390 147 OFFCURVE",
"345 147 CURVE SMOOTH"
);
}
);
width = 654;
}
);
note = B;
unicode = 0042;
},
{
glyphname = C;
lastChange = "2015-10-24 04:56:43 +0000";
layers = (
{
layerId = "DD5B64A7-4DAF-4BC4-A4CC-81A10E608EA1";
name = "Bold Italic";
paths = (
{
closed = 1;
nodes = (
"42 291 OFFCURVE",
"39 264 OFFCURVE",
"39 239 CURVE SMOOTH",
"39 77 OFFCURVE",
"163 -10 OFFCURVE",
"349 -10 CURVE SMOOTH",
"430 -10 OFFCURVE",
"493 2 OFFCURVE",
"556 23 CURVE",
"596 211 LINE",
"530 184 OFFCURVE",
"468 172 OFFCURVE",
"403 172 CURVE SMOOTH",
"302 172 OFFCURVE",
"260 196 OFFCURVE",
"260 264 CURVE SMOOTH",
"260 280 OFFCURVE",
"263 299 OFFCURVE",
"267 320 CURVE SMOOTH",
"290 430 OFFCURVE",
"357 472 OFFCURVE",
"465 472 CURVE SMOOTH",
"541 472 OFFCURVE",
"588 460 OFFCURVE",
"641 432 CURVE",
"681 619 LINE",
"627 641 OFFCURVE",
"568 654 OFFCURVE",
"489 654 CURVE SMOOTH",
"225 654 OFFCURVE",
"94 538 OFFCURVE",
"48 320 CURVE SMOOTH"
);
}
);
width = 612;
}
);
leftKerningGroup = C;
note = C;
unicode = 0043;
},
{
glyphname = Cacute;
lastChange = "2015-10-24 04:56:43 +0000";
layers = (
{
layerId = "DD5B64A7-4DAF-4BC4-A4CC-81A10E608EA1";
name = "Bold Italic";
paths = (
{
closed = 1;
nodes = (
"42 291 OFFCURVE",
"39 264 OFFCURVE",
"39 239 CURVE SMOOTH",
"39 77 OFFCURVE",
"163 -10 OFFCURVE",
"349 -10 CURVE SMOOTH",
"430 -10 OFFCURVE",
"493 2 OFFCURVE",
"556 23 CURVE",
"596 211 LINE",
"530 184 OFFCURVE",
"468 172 OFFCURVE",
"403 172 CURVE SMOOTH",
"302 172 OFFCURVE",
"260 196 OFFCURVE",
"260 264 CURVE SMOOTH",
"260 280 OFFCURVE",
"263 299 OFFCURVE",
"267 320 CURVE SMOOTH",
"290 430 OFFCURVE",
"357 472 OFFCURVE",
"465 472 CURVE SMOOTH",
"541 472 OFFCURVE",
"588 460 OFFCURVE",
"641 432 CURVE",
"681 619 LINE",
"627 641 OFFCURVE",
"568 654 OFFCURVE",
"489 654 CURVE SMOOTH",
"225 654 OFFCURVE",
"94 538 OFFCURVE",
"48 320 CURVE SMOOTH"
);
},
{
closed = 1;
nodes = (
"556 688 LINE",
"703 904 LINE",
"537 904 LINE",
"399 688 LINE"
);
}
);
width = 612;
}
);
leftKerningGroup = C;
note = Cacute;
unicode = 0106;
},
{
glyphname = Ccaron;
lastChange = "2015-10-24 04:56:43 +0000";
layers = (
{
layerId = "DD5B64A7-4DAF-4BC4-A4CC-81A10E608EA1";
name = "Bold Italic";
paths = (
{
closed = 1;
nodes = (
"42 291 OFFCURVE",
"39 264 OFFCURVE",
"39 239 CURVE SMOOTH",
"39 77 OFFCURVE",
"163 -10 OFFCURVE",
"349 -10 CURVE SMOOTH",
"430 -10 OFFCURVE",
"493 2 OFFCURVE",
"556 23 CURVE",
"596 211 LINE",
"530 184 OFFCURVE",
"468 172 OFFCURVE",
"403 172 CURVE SMOOTH",
"302 172 OFFCURVE",
"260 196 OFFCURVE",
"260 264 CURVE SMOOTH",
"260 280 OFFCURVE",
"263 299 OFFCURVE",
"267 320 CURVE SMOOTH",
"290 430 OFFCURVE",
"357 472 OFFCURVE",
"465 472 CURVE SMOOTH",
"541 472 OFFCURVE",
"588 460 OFFCURVE",
"641 432 CURVE",
"681 619 LINE",
"627 641 OFFCURVE",
"568 654 OFFCURVE",
"489 654 CURVE SMOOTH",
"225 654 OFFCURVE",
"94 538 OFFCURVE",
"48 320 CURVE SMOOTH"
);
},
{
closed = 1;
nodes = (
"751 895 LINE",
"593 895 LINE",
"494 787 LINE",
"444 895 LINE",
"295 895 LINE",
"416 687 LINE",
"542 687 LINE"
);
}
);
width = 612;
}
);
leftKerningGroup = C;
note = Ccaron;
unicode = 010C;
},
{
glyphname = Ccedilla;
lastChange = "2015-10-24 04:56:43 +0000";
layers = (
{
layerId = "DD5B64A7-4DAF-4BC4-A4CC-81A10E608EA1";
name = "Bold Italic";
paths = (
{
closed = 1;
nodes = (
"468 -126 OFFCURVE",
"468 -119 OFFCURVE",
"468 -112 CURVE SMOOTH",
"468 -69 OFFCURVE",
"439 -39 OFFCURVE",
"376 -39 CURVE",
"394 -9 LINE",
"454 -5 OFFCURVE",
"505 6 OFFCURVE",
"556 23 CURVE",
"596 211 LINE",
"530 184 OFFCURVE",
"468 172 OFFCURVE",
"403 172 CURVE SMOOTH",
"302 172 OFFCURVE",
"260 196 OFFCURVE",
"260 264 CURVE SMOOTH",
"260 280 OFFCURVE",
"263 299 OFFCURVE",
"267 320 CURVE SMOOTH",
"290 430 OFFCURVE",
"357 472 OFFCURVE",
"465 472 CURVE SMOOTH",
"541 472 OFFCURVE",
"588 460 OFFCURVE",
"641 432 CURVE",
"681 619 LINE",
"627 641 OFFCURVE",
"568 654 OFFCURVE",
"489 654 CURVE SMOOTH",
"225 654 OFFCURVE",
"94 538 OFFCURVE",
"48 320 CURVE SMOOTH",
"42 291 OFFCURVE",
"39 264 OFFCURVE",
"39 239 CURVE SMOOTH",
"39 96 OFFCURVE",
"134 12 OFFCURVE",
"284 -6 CURVE",
"237 -101 LINE",
"306 -101 LINE SMOOTH",
"330 -101 OFFCURVE",
"346 -105 OFFCURVE",
"346 -122 CURVE SMOOTH",
"346 -152 OFFCURVE",
"320 -165 OFFCURVE",
"268 -165 CURVE SMOOTH",
"248 -165 OFFCURVE",
"228 -162 OFFCURVE",
"211 -157 CURVE",
"195 -232 LINE",
"209 -236 OFFCURVE",
"254 -240 OFFCURVE",
"278 -240 CURVE SMOOTH",
"388 -240 OFFCURVE",
"452 -200 OFFCURVE",
"466 -134 CURVE SMOOTH"
);
}
);
width = 612;
}
);
leftKerningGroup = C;
note = Ccedilla;
unicode = 00C7;
},
{
glyphname = Ccircumflex;
lastChange = "2015-10-24 04:56:43 +0000";
layers = (
{
layerId = "DD5B64A7-4DAF-4BC4-A4CC-81A10E608EA1";
name = "Bold Italic";
paths = (
{
closed = 1;
nodes = (
"42 291 OFFCURVE",
"39 264 OFFCURVE",
"39 239 CURVE SMOOTH",
"39 77 OFFCURVE",
"163 -10 OFFCURVE",
"349 -10 CURVE SMOOTH",
"430 -10 OFFCURVE",
"493 2 OFFCURVE",
"556 23 CURVE",
"596 211 LINE",
"530 184 OFFCURVE",
"468 172 OFFCURVE",
"403 172 CURVE SMOOTH",
"302 172 OFFCURVE",
"260 196 OFFCURVE",
"260 264 CURVE SMOOTH",
"260 280 OFFCURVE",
"263 299 OFFCURVE",
"267 320 CURVE SMOOTH",
"290 430 OFFCURVE",
"357 472 OFFCURVE",
"465 472 CURVE SMOOTH",
"541 472 OFFCURVE",
"588 460 OFFCURVE",
"641 432 CURVE",
"681 619 LINE",
"627 641 OFFCURVE",
"568 654 OFFCURVE",
"489 654 CURVE SMOOTH",
"225 654 OFFCURVE",
"94 538 OFFCURVE",
"48 320 CURVE SMOOTH"
);
},
{
closed = 1;
nodes = (
"559 895 LINE",
"432 895 LINE",
"224 687 LINE",
"386 687 LINE",
"481 795 LINE",
"534 687 LINE",
"680 687 LINE"
);
}
);
width = 612;
}
);
leftKerningGroup = C;
note = Ccircumflex;
unicode = 0108;
},
{
glyphname = Cdotaccent;
lastChange = "2015-10-24 04:56:43 +0000";
layers = (
{
layerId = "DD5B64A7-4DAF-4BC4-A4CC-81A10E608EA1";
name = "Bold Italic";
paths = (
{
closed = 1;
nodes = (
"42 291 OFFCURVE",
"39 264 OFFCURVE",
"39 239 CURVE SMOOTH",
"39 77 OFFCURVE",
"163 -10 OFFCURVE",
"349 -10 CURVE SMOOTH",
"430 -10 OFFCURVE",
"493 2 OFFCURVE",
"556 23 CURVE",
"596 211 LINE",
"530 184 OFFCURVE",
"468 172 OFFCURVE",
"403 172 CURVE SMOOTH",
"302 172 OFFCURVE",
"260 196 OFFCURVE",
"260 264 CURVE SMOOTH",
"260 280 OFFCURVE",
"263 299 OFFCURVE",
"267 320 CURVE SMOOTH",
"290 430 OFFCURVE",
"357 472 OFFCURVE",
"465 472 CURVE SMOOTH",
"541 472 OFFCURVE",
"588 460 OFFCURVE",
"641 432 CURVE",
"681 619 LINE",
"627 641 OFFCURVE",
"568 654 OFFCURVE",
"489 654 CURVE SMOOTH",
"225 654 OFFCURVE",
"94 538 OFFCURVE",
"48 320 CURVE SMOOTH"
);
},
{
closed = 1;
nodes = (
"547 716 LINE",
"574 847 LINE",
"431 847 LINE",
"404 716 LINE"
);
}
);
width = 612;
}
);
leftKerningGroup = C;
note = Cdotaccent;
unicode = 010A;
},
{
glyphname = D;
lastChange = "2015-10-24 04:56:43 +0000";
layers = (
{
layerId = "DD5B64A7-4DAF-4BC4-A4CC-81A10E608EA1";
name = "Bold Italic";
paths = (
{
closed = 1;
nodes = (
"693 349 OFFCURVE",
"696 378 OFFCURVE",
"696 405 CURVE SMOOTH",
"696 565 OFFCURVE",
"592 644 OFFCURVE",
"433 644 CURVE SMOOTH",
"136 644 LINE",
"0 0 LINE",
"307 0 LINE SMOOTH",
"519 0 OFFCURVE",
"644 94 OFFCURVE",
"687 318 CURVE SMOOTH"
);
},
{
closed = 1;
nodes = (
"441 190 OFFCURVE",
"397 164 OFFCURVE",
"305 164 CURVE SMOOTH",
"249 164 LINE",
"315 473 LINE",
"371 473 LINE SMOOTH",
"441 473 OFFCURVE",
"477 456 OFFCURVE",
"477 390 CURVE SMOOTH",
"477 370 OFFCURVE",
"474 347 OFFCURVE",
"468 318 CURVE SMOOTH"
);
}
);
width = 680;
}
);
note = D;
rightKerningGroup = D;
unicode = 0044;
},
{
glyphname = Eth;
lastChange = "2015-10-24 04:56:43 +0000";
layers = (
{
layerId = "DD5B64A7-4DAF-4BC4-A4CC-81A10E608EA1";
name = "Bold Italic";
paths = (
{
closed = 1;
nodes = (
"734 349 OFFCURVE",
"737 378 OFFCURVE",
"737 405 CURVE SMOOTH",
"737 565 OFFCURVE",
"633 644 OFFCURVE",
"474 644 CURVE SMOOTH",
"177 644 LINE",
"122 386 LINE",
"62 386 LINE",
"31 244 LINE",
"92 244 LINE",
"41 0 LINE",
"348 0 LINE SMOOTH",
"560 0 OFFCURVE",
"685 94 OFFCURVE",
"728 318 CURVE SMOOTH"
);
},
{
closed = 1;
nodes = (
"482 190 OFFCURVE",
"438 164 OFFCURVE",
"346 164 CURVE SMOOTH",
"290 164 LINE",
"307 244 LINE",
"409 244 LINE",
"440 386 LINE",
"337 386 LINE",
"356 473 LINE",
"412 473 LINE SMOOTH",
"482 473 OFFCURVE",
"518 456 OFFCURVE",
"518 390 CURVE SMOOTH",
"518 370 OFFCURVE",
"515 347 OFFCURVE",
"509 318 CURVE SMOOTH"
);
}
);
width = 722;
}
);
note = Eth;
rightKerningGroup = D;
unicode = 00D0;
},
{
glyphname = Dcaron;
lastChange = "2015-10-24 04:56:43 +0000";
layers = (
{
layerId = "DD5B64A7-4DAF-4BC4-A4CC-81A10E608EA1";
name = "Bold Italic";
paths = (
{
closed = 1;
nodes = (
"693 349 OFFCURVE",
"696 378 OFFCURVE",
"696 405 CURVE SMOOTH",
"696 565 OFFCURVE",
"592 644 OFFCURVE",
"433 644 CURVE SMOOTH",
"136 644 LINE",
"0 0 LINE",
"307 0 LINE SMOOTH",
"519 0 OFFCURVE",
"644 94 OFFCURVE",
"687 318 CURVE SMOOTH"
);
},
{
closed = 1;
nodes = (
"441 190 OFFCURVE",
"397 164 OFFCURVE",
"305 164 CURVE SMOOTH",
"249 164 LINE",
"315 473 LINE",
"371 473 LINE SMOOTH",
"441 473 OFFCURVE",
"477 456 OFFCURVE",
"477 390 CURVE SMOOTH",
"477 370 OFFCURVE",
"474 347 OFFCURVE",
"468 318 CURVE SMOOTH"
);
},
{
closed = 1;
nodes = (
"678 895 LINE",
"520 895 LINE",
"421 787 LINE",
"371 895 LINE",
"222 895 LINE",
"343 687 LINE",
"469 687 LINE"
);
}
);
width = 680;
}
);
note = Dcaron;
rightKerningGroup = D;
unicode = 010E;
},
{
glyphname = Dcroat;
lastChange = "2015-10-24 04:56:43 +0000";
layers = (
{
layerId = "DD5B64A7-4DAF-4BC4-A4CC-81A10E608EA1";
name = "Bold Italic";
paths = (
{
closed = 1;
nodes = (
"734 349 OFFCURVE",
"737 378 OFFCURVE",
"737 405 CURVE SMOOTH",
"737 565 OFFCURVE",
"633 644 OFFCURVE",
"474 644 CURVE SMOOTH",
"177 644 LINE",
"122 386 LINE",
"62 386 LINE",
"31 244 LINE",
"92 244 LINE",
"41 0 LINE",
"348 0 LINE SMOOTH",
"560 0 OFFCURVE",
"685 94 OFFCURVE",
"728 318 CURVE SMOOTH"
);
},
{
closed = 1;
nodes = (
"482 190 OFFCURVE",
"438 164 OFFCURVE",
"346 164 CURVE SMOOTH",
"290 164 LINE",
"307 244 LINE",
"409 244 LINE",
"440 386 LINE",
"337 386 LINE",
"356 473 LINE",
"412 473 LINE SMOOTH",
"482 473 OFFCURVE",
"518 456 OFFCURVE",
"518 390 CURVE SMOOTH",
"518 370 OFFCURVE",
"515 347 OFFCURVE",
"509 318 CURVE SMOOTH"
);
}
);
width = 722;
}
);
note = Dcroat;
rightKerningGroup = D;
unicode = 0110;
},
{
glyphname = Ddotbelow;
lastChange = "2015-10-24 04:56:43 +0000";
layers = (
{
layerId = "DD5B64A7-4DAF-4BC4-A4CC-81A10E608EA1";
name = "Bold Italic";
paths = (
{
closed = 1;
nodes = (
"693 349 OFFCURVE",
"696 378 OFFCURVE",
"696 405 CURVE SMOOTH",
"696 565 OFFCURVE",
"592 644 OFFCURVE",
"433 644 CURVE SMOOTH",
"136 644 LINE",
"0 0 LINE",
"307 0 LINE SMOOTH",
"519 0 OFFCURVE",
"644 94 OFFCURVE",
"687 318 CURVE SMOOTH"
);
},
{
closed = 1;
nodes = (
"441 190 OFFCURVE",
"397 164 OFFCURVE",
"305 164 CURVE SMOOTH",
"249 164 LINE",
"315 473 LINE",
"371 473 LINE SMOOTH",
"441 473 OFFCURVE",
"477 456 OFFCURVE",
"477 390 CURVE SMOOTH",
"477 370 OFFCURVE",
"474 347 OFFCURVE",
"468 318 CURVE SMOOTH"
);
},
{
closed = 1;
nodes = (
"282 -205 LINE",
"310 -75 LINE",
"167 -75 LINE",
"139 -205 LINE"
);
}
);
width = 680;
}
);
note = Ddotbelow;
rightKerningGroup = D;
unicode = 1E0C;
},
{
glyphname = Dlinebelow;
lastChange = "2015-10-24 04:56:43 +0000";
layers = (
{
layerId = "DD5B64A7-4DAF-4BC4-A4CC-81A10E608EA1";
name = "Bold Italic";
paths = (
{
closed = 1;
nodes = (
"693 349 OFFCURVE",
"696 378 OFFCURVE",
"696 405 CURVE SMOOTH",
"696 565 OFFCURVE",
"592 644 OFFCURVE",
"433 644 CURVE SMOOTH",
"136 644 LINE",
"0 0 LINE",
"307 0 LINE SMOOTH",
"519 0 OFFCURVE",
"644 94 OFFCURVE",
"687 318 CURVE SMOOTH"
);
},
{
closed = 1;
nodes = (
"441 190 OFFCURVE",
"397 164 OFFCURVE",
"305 164 CURVE SMOOTH",
"249 164 LINE",
"315 473 LINE",
"371 473 LINE SMOOTH",
"441 473 OFFCURVE",
"477 456 OFFCURVE",
"477 390 CURVE SMOOTH",
"477 370 OFFCURVE",
"474 347 OFFCURVE",
"468 318 CURVE SMOOTH"
);
},
{
closed = 1;
nodes = (
"76 -50 LINE",
"49 -176 LINE",
"387 -176 LINE",
"414 -50 LINE"
);
}
);
width = 680;
}
);
note = Dlinebelow;
rightKerningGroup = D;
unicode = 1E0E;
},
{
glyphname = E;
lastChange = "2015-10-23 13:39:40 +0000";
layers = (
{
layerId = "DD5B64A7-4DAF-4BC4-A4CC-81A10E608EA1";
name = "Bold Italic";
paths = (
{
closed = 1;
nodes = (
"501 0 LINE",
"534 159 LINE",
"248 159 LINE",
"266 240 LINE",
"515 240 LINE",
"549 403 LINE",
"300 403 LINE",
"318 485 LINE",
"604 485 LINE",
"637 644 LINE",
"136 644 LINE",
"0 0 LINE"
);
}
);
width = 551;
}
);
note = E;
unicode = 0045;
},
{
glyphname = Eacute;
lastChange = "2015-10-23 13:39:40 +0000";
layers = (
{
layerId = "DD5B64A7-4DAF-4BC4-A4CC-81A10E608EA1";
name = "Bold Italic";
paths = (
{
closed = 1;
nodes = (
"501 0 LINE",
"534 159 LINE",
"248 159 LINE",
"266 240 LINE",
"515 240 LINE",
"549 403 LINE",
"300 403 LINE",
"318 485 LINE",
"604 485 LINE",
"637 644 LINE",
"136 644 LINE",
"0 0 LINE"
);
},
{
closed = 1;
nodes = (
"452 688 LINE",
"599 904 LINE",
"433 904 LINE",
"295 688 LINE"
);
}
);
width = 551;
}
);
note = Eacute;
unicode = 00C9;
},
{
glyphname = Ebreve;
lastChange = "2015-10-24 04:56:43 +0000";
layers = (
{
layerId = "DD5B64A7-4DAF-4BC4-A4CC-81A10E608EA1";
name = "Bold Italic";
paths = (
{
closed = 1;
nodes = (
"501 0 LINE",
"534 159 LINE",
"248 159 LINE",
"266 240 LINE",
"515 240 LINE",
"549 403 LINE",
"300 403 LINE",
"318 485 LINE",
"604 485 LINE",
"637 644 LINE",
"136 644 LINE",
"0 0 LINE"
);
},
{
closed = 1;
nodes = (
"238 892 LINE",
"234 872 OFFCURVE",
"232 853 OFFCURVE",
"232 835 CURVE SMOOTH",
"232 740 OFFCURVE",
"295 688 OFFCURVE",
"398 688 CURVE SMOOTH",
"531 688 OFFCURVE",
"619 760 OFFCURVE",
"647 892 CURVE",
"503 892 LINE",
"493 845 OFFCURVE",
"476 806 OFFCURVE",
"418 806 CURVE SMOOTH",
"378 806 OFFCURVE",
"366 827 OFFCURVE",
"366 857 CURVE SMOOTH",
"366 868 OFFCURVE",
"367 879 OFFCURVE",
"370 892 CURVE"
);
}
);
width = 556;
}
);
note = Ebreve;
unicode = 0114;
},
{
glyphname = Ecaron;
lastChange = "2015-10-23 13:39:41 +0000";
layers = (
{
layerId = "DD5B64A7-4DAF-4BC4-A4CC-81A10E608EA1";
name = "Bold Italic";
paths = (
{
closed = 1;
nodes = (
"501 0 LINE",
"534 159 LINE",
"248 159 LINE",
"266 240 LINE",
"515 240 LINE",
"549 403 LINE",
"300 403 LINE",
"318 485 LINE",
"604 485 LINE",
"637 644 LINE",
"136 644 LINE",
"0 0 LINE"
);
},
{
closed = 1;
nodes = (
"673 895 LINE",
"515 895 LINE",
"416 787 LINE",
"366 895 LINE",
"217 895 LINE",
"338 687 LINE",
"464 687 LINE"
);
}
);
width = 557;
}
);
note = Ecaron;
unicode = 011A;
},
{
glyphname = Ecircumflex;
lastChange = "2015-10-23 13:39:41 +0000";
layers = (
{
layerId = "DD5B64A7-4DAF-4BC4-A4CC-81A10E608EA1";
name = "Bold Italic";
paths = (
{
closed = 1;
nodes = (
"502 0 LINE",
"535 159 LINE",
"249 159 LINE",
"267 240 LINE",
"516 240 LINE",
"550 403 LINE",
"301 403 LINE",
"319 485 LINE",
"605 485 LINE",
"638 644 LINE",
"137 644 LINE",
"1 0 LINE"
);
},
{
closed = 1;
nodes = (
"505 896 LINE",
"378 896 LINE",
"170 688 LINE",
"332 688 LINE",
"427 796 LINE",
"480 688 LINE",
"626 688 LINE"
);
}
);
width = 557;
}
);
note = Ecircumflex;
unicode = 00CA;
},
{
glyphname = Ecircumflexacute;
lastChange = "2015-10-23 13:39:40 +0000";
layers = (
{
layerId = "DD5B64A7-4DAF-4BC4-A4CC-81A10E608EA1";
name = "Bold Italic";
paths = (
{
closed = 1;
nodes = (
"501 0 LINE",
"534 159 LINE",
"248 159 LINE",
"266 240 LINE",
"515 240 LINE",
"549 403 LINE",
"300 403 LINE",
"318 485 LINE",
"604 485 LINE",
"637 644 LINE",
"136 644 LINE",
"0 0 LINE"
);
},
{
closed = 1;
nodes = (
"502 848 LINE",
"346 848 LINE",
"162 688 LINE",
"338 688 LINE",
"411 765 LINE",
"454 688 LINE",
"617 688 LINE"
);
},
{
closed = 1;
nodes = (
"699 816 LINE",
"814 980 LINE",
"657 980 LINE",
"550 816 LINE"
);
}
);
width = 551;
}
);
note = Ecircumflexacute;
unicode = 1EBE;
},
{
glyphname = Ecircumflexdotbelow;
lastChange = "2015-10-23 13:39:41 +0000";
layers = (
{
layerId = "DD5B64A7-4DAF-4BC4-A4CC-81A10E608EA1";
name = "Bold Italic";
paths = (
{
closed = 1;
nodes = (
"504 0 LINE",
"537 159 LINE",
"251 159 LINE",
"269 240 LINE",
"518 240 LINE",
"552 403 LINE",
"303 403 LINE",
"321 485 LINE",
"607 485 LINE",
"640 644 LINE",
"139 644 LINE",
"3 0 LINE"
);
},
{
closed = 1;
nodes = (
"501 896 LINE",
"374 896 LINE",
"166 688 LINE",
"328 688 LINE",
"423 796 LINE",
"476 688 LINE",
"622 688 LINE"
);
},
{
closed = 1;
nodes = (
"283 -176 LINE",
"311 -46 LINE",
"168 -46 LINE",
"140 -176 LINE"
);
}
);
width = 564;
}
);
note = Ecircumflexdotbelow;
unicode = 1EC6;
},
{
glyphname = Ecircumflexgrave;
lastChange = "2015-10-23 13:39:41 +0000";
layers = (
{
layerId = "DD5B64A7-4DAF-4BC4-A4CC-81A10E608EA1";
name = "Bold Italic";
paths = (
{
closed = 1;
nodes = (
"501 0 LINE",
"534 159 LINE",
"248 159 LINE",
"266 240 LINE",
"515 240 LINE",
"549 403 LINE",
"300 403 LINE",
"318 485 LINE",
"604 485 LINE",
"637 644 LINE",
"136 644 LINE",
"0 0 LINE"
);
},
{
closed = 1;
nodes = (
"167 688 LINE",
"340 688 LINE",
"415 765 LINE",
"457 688 LINE",
"623 688 LINE",
"508 848 LINE",
"351 848 LINE"
);
},
{
closed = 1;
nodes = (
"290 816 LINE",
"252 980 LINE",
"94 980 LINE",
"140 816 LINE"
);
}
);
width = 551;
}
);
note = Ecircumflexgrave;
unicode = 1EC0;
},
{
glyphname = Ecircumflexhookabove;
lastChange = "2015-10-24 04:56:44 +0000";
layers = (
{
layerId = "DD5B64A7-4DAF-4BC4-A4CC-81A10E608EA1";
name = "Bold Italic";
paths = (
{
closed = 1;
nodes = (
"501 0 LINE",
"534 159 LINE",
"248 159 LINE",
"266 240 LINE",
"515 240 LINE",
"549 403 LINE",
"300 403 LINE",
"318 485 LINE",
"604 485 LINE",
"637 644 LINE",
"136 644 LINE",
"0 0 LINE"
);
},
{
closed = 1;
nodes = (
"502 848 LINE",
"345 848 LINE",
"161 688 LINE",
"337 688 LINE",
"411 765 LINE",
"454 688 LINE",
"617 688 LINE"
);
},
{
closed = 1;
nodes = (
"792 918 OFFCURVE",
"793 924 OFFCURVE",
"793 930 CURVE SMOOTH",
"793 972 OFFCURVE",
"758 1001 OFFCURVE",
"686 1001 CURVE SMOOTH",
"641 1001 OFFCURVE",
"603 996 OFFCURVE",
"577 989 CURVE",
"559 907 LINE",
"574 911 OFFCURVE",
"593 915 OFFCURVE",
"610 915 CURVE SMOOTH",
"632 915 OFFCURVE",
"644 912 OFFCURVE",
"644 901 CURVE SMOOTH",
"644 884 OFFCURVE",
"631 871 OFFCURVE",
"571 870 CURVE",
"555 793 LINE",
"695 793 LINE",
"702 825 LINE",
"753 834 OFFCURVE",
"781 866 OFFCURVE",
"791 912 CURVE SMOOTH"
);
}
);
width = 551;
}
);
note = Ecircumflexhookabove;
unicode = 1EC2;
},
{
glyphname = Ecircumflextilde;
lastChange = "2015-10-23 13:39:41 +0000";
layers = (
{
layerId = "DD5B64A7-4DAF-4BC4-A4CC-81A10E608EA1";
name = "Bold Italic";
paths = (
{
closed = 1;
nodes = (
"501 0 LINE",
"534 159 LINE",
"248 159 LINE",
"266 240 LINE",
"515 240 LINE",
"549 403 LINE",
"300 403 LINE",
"318 485 LINE",
"604 485 LINE",
"637 644 LINE",
"136 644 LINE",
"0 0 LINE"
);
},
{
closed = 1;
nodes = (
"507 848 LINE",
"350 848 LINE",
"166 688 LINE",
"337 688 LINE",
"411 765 LINE",
"454 688 LINE",
"622 688 LINE"
);
},
{
closed = 1;
nodes = (
"562 858 OFFCURVE",
"599 873 OFFCURVE",
"615 890 CURVE",
"637 996 LINE",
"616 973 OFFCURVE",
"582 957 OFFCURVE",
"541 957 CURVE SMOOTH",
"481 957 OFFCURVE",
"438 998 OFFCURVE",
"373 998 CURVE SMOOTH",
"335 998 OFFCURVE",
"297 984 OFFCURVE",
"275 966 CURVE",
"252 861 LINE",
"280 885 OFFCURVE",
"314 899 OFFCURVE",
"355 899 CURVE SMOOTH",
"409 899 OFFCURVE",
"460 858 OFFCURVE",
"523 858 CURVE SMOOTH"
);
}
);
width = 556;
}
);
note = Ecircumflextilde;
unicode = 1EC4;
},
{
glyphname = Edieresis;
lastChange = "2015-10-23 13:39:40 +0000";
layers = (
{
layerId = "DD5B64A7-4DAF-4BC4-A4CC-81A10E608EA1";
name = "Bold Italic";
paths = (
{
closed = 1;
nodes = (
"501 0 LINE",
"534 159 LINE",
"248 159 LINE",
"266 240 LINE",
"515 240 LINE",
"549 403 LINE",
"300 403 LINE",
"318 485 LINE",
"604 485 LINE",
"637 644 LINE",
"136 644 LINE",
"0 0 LINE"
);
},
{
closed = 1;
nodes = (
"366 716 LINE",
"393 847 LINE",
"250 847 LINE",
"223 716 LINE"
);
},
{
closed = 1;
nodes = (
"591 716 LINE",
"618 847 LINE",
"475 847 LINE",
"448 716 LINE"
);
}
);
width = 556;
}
);
note = Edieresis;
unicode = 00CB;
},
{
glyphname = Edotaccent;
lastChange = "2015-10-23 13:39:41 +0000";
layers = (
{
layerId = "DD5B64A7-4DAF-4BC4-A4CC-81A10E608EA1";
name = "Bold Italic";
paths = (
{
closed = 1;
nodes = (
"501 0 LINE",
"534 159 LINE",
"248 159 LINE",
"266 240 LINE",
"515 240 LINE",
"549 403 LINE",
"300 403 LINE",
"318 485 LINE",
"604 485 LINE",
"637 644 LINE",
"136 644 LINE",
"0 0 LINE"
);
},
{
closed = 1;
nodes = (
"470 716 LINE",
"497 847 LINE",
"354 847 LINE",
"327 716 LINE"
);
}
);
width = 556;
}
);
note = Edotaccent;
unicode = 0116;
},
{
glyphname = Edotbelow;
lastChange = "2015-10-23 13:39:40 +0000";
layers = (
{
layerId = "DD5B64A7-4DAF-4BC4-A4CC-81A10E608EA1";
name = "Bold Italic";
paths = (
{
closed = 1;
nodes = (
"501 0 LINE",
"534 159 LINE",
"248 159 LINE",
"266 240 LINE",
"515 240 LINE",
"549 403 LINE",
"300 403 LINE",
"318 485 LINE",
"604 485 LINE",
"637 644 LINE",
"136 644 LINE",
"0 0 LINE"
);
},
{
closed = 1;
nodes = (
"274 -176 LINE",
"302 -46 LINE",
"159 -46 LINE",
"131 -176 LINE"
);
}
);
width = 556;
}
);
note = Edotbelow;
unicode = 1EB8;
},
{
glyphname = Egrave;
lastChange = "2015-10-23 13:39:40 +0000";
layers = (
{
layerId = "DD5B64A7-4DAF-4BC4-A4CC-81A10E608EA1";
name = "Bold Italic";
paths = (
{
closed = 1;
nodes = (
"501 0 LINE",
"534 159 LINE",
"248 159 LINE",
"266 240 LINE",
"515 240 LINE",
"549 403 LINE",
"300 403 LINE",
"318 485 LINE",
"604 485 LINE",
"637 644 LINE",
"136 644 LINE",
"0 0 LINE"
);
},
{
closed = 1;
nodes = (
"493 688 LINE",
"447 904 LINE",
"280 904 LINE",
"335 688 LINE"
);
}
);
width = 556;
}
);
note = Egrave;
unicode = 00C8;
},
{
glyphname = Ehookabove;
lastChange = "2015-10-24 04:56:43 +0000";
layers = (
{
layerId = "DD5B64A7-4DAF-4BC4-A4CC-81A10E608EA1";
name = "Bold Italic";
paths = (
{
closed = 1;
nodes = (
"501 0 LINE",
"534 159 LINE",
"248 159 LINE",
"266 240 LINE",
"515 240 LINE",
"549 403 LINE",
"300 403 LINE",
"318 485 LINE",
"604 485 LINE",
"637 644 LINE",
"136 644 LINE",
"0 0 LINE"
);
},
{
closed = 1;
nodes = (
"588 835 OFFCURVE",
"588 842 OFFCURVE",
"588 848 CURVE SMOOTH",
"588 898 OFFCURVE",
"545 932 OFFCURVE",
"462 932 CURVE SMOOTH",
"409 932 OFFCURVE",
"368 927 OFFCURVE",
"336 918 CURVE",
"318 832 LINE",
"335 837 OFFCURVE",
"358 841 OFFCURVE",
"378 841 CURVE SMOOTH",
"410 841 OFFCURVE",
"427 834 OFFCURVE",
"427 817 CURVE SMOOTH",
"427 791 OFFCURVE",
"405 773 OFFCURVE",
"330 769 CURVE",
"313 688 LINE",
"473 688 LINE",
"481 726 LINE",
"541 743 OFFCURVE",
"573 769 OFFCURVE",
"586 828 CURVE SMOOTH"
);
}
);
width = 556;
}
);
note = Ehookabove;
unicode = 1EBA;
},
{
glyphname = Emacron;
lastChange = "2015-10-23 13:39:41 +0000";
layers = (
{
layerId = "DD5B64A7-4DAF-4BC4-A4CC-81A10E608EA1";
name = "Bold Italic";
paths = (
{
closed = 1;
nodes = (
"501 0 LINE",
"534 159 LINE",
"248 159 LINE",
"266 240 LINE",
"515 240 LINE",
"549 403 LINE",
"300 403 LINE",
"318 485 LINE",
"604 485 LINE",
"637 644 LINE",
"136 644 LINE",
"0 0 LINE"
);
},
{
closed = 1;
nodes = (
"249 851 LINE",
"222 725 LINE",
"560 725 LINE",
"587 851 LINE"
);
}
);
width = 556;
}
);
note = Emacron;
unicode = 0112;
},
{
glyphname = Eogonek;
lastChange = "2015-10-24 04:56:43 +0000";
layers = (
{
layerId = "DD5B64A7-4DAF-4BC4-A4CC-81A10E608EA1";
name = "Bold Italic";
paths = (
{
closed = 1;
nodes = (
"388 -51 OFFCURVE",
"414 -24 OFFCURVE",
"451 0 CURVE",
"501 0 LINE",
"534 159 LINE",
"248 159 LINE",
"266 240 LINE",
"515 240 LINE",
"549 403 LINE",
"300 403 LINE",
"318 485 LINE",
"604 485 LINE",
"637 644 LINE",
"136 644 LINE",
"0 0 LINE",
"317 0 LINE",
"269 -26 OFFCURVE",
"228 -68 OFFCURVE",
"217 -120 CURVE SMOOTH",
"215 -128 OFFCURVE",
"214 -136 OFFCURVE",
"214 -143 CURVE SMOOTH",
"214 -196 OFFCURVE",
"263 -220 OFFCURVE",
"336 -220 CURVE SMOOTH",
"382 -220 OFFCURVE",
"427 -211 OFFCURVE",
"449 -203 CURVE",
"470 -107 LINE",
"456 -114 OFFCURVE",
"434 -118 OFFCURVE",
"417 -118 CURVE SMOOTH",
"393 -118 OFFCURVE",
"380 -111 OFFCURVE",
"380 -93 CURVE SMOOTH",
"380 -90 OFFCURVE",
"380 -87 OFFCURVE",
"381 -83 CURVE SMOOTH"
);
}
);
width = 556;
}
);
note = Eogonek;
unicode = 0118;
},
{
glyphname = Etilde;
lastChange = "2015-10-23 13:39:41 +0000";
layers = (
{
layerId = "DD5B64A7-4DAF-4BC4-A4CC-81A10E608EA1";
name = "Bold Italic";
paths = (
{
closed = 1;
nodes = (
"501 0 LINE",
"534 159 LINE",
"248 159 LINE",
"266 240 LINE",
"515 240 LINE",
"549 403 LINE",
"300 403 LINE",
"318 485 LINE",
"604 485 LINE",
"637 644 LINE",
"136 644 LINE",
"0 0 LINE"
);
},
{
closed = 1;
nodes = (
"542 694 OFFCURVE",
"582 710 OFFCURVE",
"599 728 CURVE",
"627 858 LINE",
"606 835 OFFCURVE",
"568 817 OFFCURVE",
"524 817 CURVE SMOOTH",
"458 817 OFFCURVE",
"412 860 OFFCURVE",
"342 860 CURVE SMOOTH",
"302 860 OFFCURVE",
"260 844 OFFCURVE",
"237 826 CURVE",
"209 697 LINE",
"239 721 OFFCURVE",
"275 737 OFFCURVE",
"319 737 CURVE SMOOTH",
"377 737 OFFCURVE",
"432 694 OFFCURVE",
"501 694 CURVE SMOOTH"
);
}
);
width = 556;
}
);
note = Etilde;
unicode = 1EBC;
},
{
glyphname = F;
lastChange = "2015-10-23 13:39:41 +0000";
layers = (
{
layerId = "DD5B64A7-4DAF-4BC4-A4CC-81A10E608EA1";
name = "Bold Italic";
paths = (
{
closed = 1;
nodes = (
"215 0 LINE",
"266 241 LINE",
"512 241 LINE",
"546 402 LINE",
"300 402 LINE",
"318 487 LINE",
"602 487 LINE",
"635 644 LINE",
"136 644 LINE",
"0 0 LINE"
);
}
);
width = 539;
}
);
note = F;
unicode = 0046;
},
{
glyphname = G;
lastChange = "2015-10-24 04:56:43 +0000";
layers = (
{
layerId = "DD5B64A7-4DAF-4BC4-A4CC-81A10E608EA1";
name = "Bold Italic";
paths = (
{
closed = 1;
nodes = (
"293 172 OFFCURVE",
"258 192 OFFCURVE",
"258 254 CURVE SMOOTH",
"258 272 OFFCURVE",
"261 294 OFFCURVE",
"266 319 CURVE SMOOTH",
"289 430 OFFCURVE",
"359 472 OFFCURVE",
"473 472 CURVE SMOOTH",
"545 472 OFFCURVE",
"606 463 OFFCURVE",
"655 442 CURVE",
"694 625 LINE",
"641 644 OFFCURVE",
"576 654 OFFCURVE",
"497 654 CURVE SMOOTH",
"244 654 OFFCURVE",
"93 536 OFFCURVE",
"47 319 CURVE SMOOTH",
"41 289 OFFCURVE",
"38 261 OFFCURVE",
"38 236 CURVE SMOOTH",
"38 75 OFFCURVE",
"155 -10 OFFCURVE",
"340 -10 CURVE SMOOTH",
"459 -10 OFFCURVE",
"548 16 OFFCURVE",
"607 51 CURVE",
"677 379 LINE",
"381 379 LINE",
"353 248 LINE",
"470 248 LINE",
"456 182 LINE",
"432 175 OFFCURVE",
"407 172 OFFCURVE",
"378 172 CURVE SMOOTH"
);
}
);
width = 657;
}
);
leftKerningGroup = C;
note = G;
unicode = 0047;
},
{
glyphname = Gbreve;
lastChange = "2015-10-24 04:56:43 +0000";
layers = (
{
layerId = "DD5B64A7-4DAF-4BC4-A4CC-81A10E608EA1";
name = "Bold Italic";
paths = (
{
closed = 1;
nodes = (
"293 172 OFFCURVE",
"258 192 OFFCURVE",
"258 254 CURVE SMOOTH",
"258 272 OFFCURVE",
"261 294 OFFCURVE",
"266 319 CURVE SMOOTH",
"289 430 OFFCURVE",
"359 472 OFFCURVE",
"473 472 CURVE SMOOTH",
"545 472 OFFCURVE",
"606 463 OFFCURVE",
"655 442 CURVE",
"694 625 LINE",
"641 644 OFFCURVE",
"576 654 OFFCURVE",
"497 654 CURVE SMOOTH",
"244 654 OFFCURVE",
"93 536 OFFCURVE",
"47 319 CURVE SMOOTH",
"41 289 OFFCURVE",
"38 261 OFFCURVE",
"38 236 CURVE SMOOTH",
"38 75 OFFCURVE",
"155 -10 OFFCURVE",
"340 -10 CURVE SMOOTH",
"459 -10 OFFCURVE",
"548 16 OFFCURVE",
"607 51 CURVE",
"677 379 LINE",
"381 379 LINE",
"353 248 LINE",
"470 248 LINE",
"456 182 LINE",
"432 175 OFFCURVE",
"407 172 OFFCURVE",
"378 172 CURVE SMOOTH"
);
},
{
closed = 1;
nodes = (
"327 892 LINE",
"323 872 OFFCURVE",
"321 853 OFFCURVE",
"321 835 CURVE SMOOTH",
"321 740 OFFCURVE",
"384 688 OFFCURVE",
"487 688 CURVE SMOOTH",
"620 688 OFFCURVE",
"708 760 OFFCURVE",
"736 892 CURVE",
"592 892 LINE",
"582 845 OFFCURVE",
"565 806 OFFCURVE",
"507 806 CURVE SMOOTH",
"467 806 OFFCURVE",
"455 827 OFFCURVE",
"455 857 CURVE SMOOTH",
"455 868 OFFCURVE",
"456 879 OFFCURVE",
"459 892 CURVE"
);
}
);
width = 657;
}
);
leftKerningGroup = C;
note = Gbreve;
unicode = 011E;
},
{
glyphname = Gcaron;
lastChange = "2015-10-24 04:56:43 +0000";
layers = (
{
layerId = "DD5B64A7-4DAF-4BC4-A4CC-81A10E608EA1";
name = "Bold Italic";
paths = (
{
closed = 1;
nodes = (
"293 172 OFFCURVE",
"258 192 OFFCURVE",
"258 254 CURVE SMOOTH",
"258 272 OFFCURVE",
"261 294 OFFCURVE",
"266 319 CURVE SMOOTH",
"289 430 OFFCURVE",
"359 472 OFFCURVE",
"473 472 CURVE SMOOTH",
"545 472 OFFCURVE",
"606 463 OFFCURVE",
"655 442 CURVE",
"694 625 LINE",
"641 644 OFFCURVE",
"576 654 OFFCURVE",
"497 654 CURVE SMOOTH",
"244 654 OFFCURVE",
"93 536 OFFCURVE",
"47 319 CURVE SMOOTH",
"41 289 OFFCURVE",
"38 261 OFFCURVE",
"38 236 CURVE SMOOTH",
"38 75 OFFCURVE",
"155 -10 OFFCURVE",
"340 -10 CURVE SMOOTH",
"459 -10 OFFCURVE",
"548 16 OFFCURVE",
"607 51 CURVE",
"677 379 LINE",
"381 379 LINE",
"353 248 LINE",
"470 248 LINE",
"456 182 LINE",
"432 175 OFFCURVE",
"407 172 OFFCURVE",
"378 172 CURVE SMOOTH"
);
},
{
closed = 1;
nodes = (
"754 896 LINE",
"596 896 LINE",
"497 788 LINE",
"447 896 LINE",
"298 896 LINE",
"419 688 LINE",
"545 688 LINE"
);
}
);
width = 657;
}
);
leftKerningGroup = C;
note = Gcaron;
unicode = 01E6;
},
{
glyphname = Gcircumflex;
lastChange = "2015-10-24 04:56:43 +0000";
layers = (
{
layerId = "DD5B64A7-4DAF-4BC4-A4CC-81A10E608EA1";
name = "Bold Italic";
paths = (
{
closed = 1;
nodes = (
"293 172 OFFCURVE",
"258 192 OFFCURVE",
"258 254 CURVE SMOOTH",
"258 272 OFFCURVE",
"261 294 OFFCURVE",
"266 319 CURVE SMOOTH",
"289 430 OFFCURVE",
"359 472 OFFCURVE",
"473 472 CURVE SMOOTH",
"545 472 OFFCURVE",
"606 463 OFFCURVE",
"655 442 CURVE",
"694 625 LINE",
"641 644 OFFCURVE",
"576 654 OFFCURVE",
"497 654 CURVE SMOOTH",
"244 654 OFFCURVE",
"93 536 OFFCURVE",
"47 319 CURVE SMOOTH",
"41 289 OFFCURVE",
"38 261 OFFCURVE",
"38 236 CURVE SMOOTH",
"38 75 OFFCURVE",
"155 -10 OFFCURVE",
"340 -10 CURVE SMOOTH",
"459 -10 OFFCURVE",
"548 16 OFFCURVE",
"607 51 CURVE",
"677 379 LINE",
"381 379 LINE",
"353 248 LINE",
"470 248 LINE",
"456 182 LINE",
"432 175 OFFCURVE",
"407 172 OFFCURVE",
"378 172 CURVE SMOOTH"
);
},
{
closed = 1;
nodes = (
"578 895 LINE",
"451 895 LINE",
"243 687 LINE",
"405 687 LINE",
"500 795 LINE",
"553 687 LINE",
"699 687 LINE"
);
}
);
width = 657;
}
);
leftKerningGroup = C;
note = Gcircumflex;
unicode = 011C;
},
{
glyphname = Gcommaaccent;
lastChange = "2015-10-24 04:56:43 +0000";
layers = (
{
layerId = "DD5B64A7-4DAF-4BC4-A4CC-81A10E608EA1";
name = "Bold Italic";
paths = (
{
closed = 1;
nodes = (
"293 172 OFFCURVE",
"258 192 OFFCURVE",
"258 254 CURVE SMOOTH",
"258 272 OFFCURVE",
"261 294 OFFCURVE",
"266 319 CURVE SMOOTH",
"289 430 OFFCURVE",
"359 472 OFFCURVE",
"473 472 CURVE SMOOTH",
"545 472 OFFCURVE",
"606 463 OFFCURVE",
"655 442 CURVE",
"694 625 LINE",
"641 644 OFFCURVE",
"576 654 OFFCURVE",
"497 654 CURVE SMOOTH",
"244 654 OFFCURVE",
"93 536 OFFCURVE",
"47 319 CURVE SMOOTH",
"41 289 OFFCURVE",
"38 261 OFFCURVE",
"38 236 CURVE SMOOTH",
"38 75 OFFCURVE",
"155 -10 OFFCURVE",
"340 -10 CURVE SMOOTH",
"459 -10 OFFCURVE",
"548 16 OFFCURVE",
"607 51 CURVE",
"677 379 LINE",
"381 379 LINE",
"353 248 LINE",
"470 248 LINE",
"456 182 LINE",
"432 175 OFFCURVE",
"407 172 OFFCURVE",
"378 172 CURVE SMOOTH"
);
},
{
closed = 1;
nodes = (
"317 -274 LINE",
"429 -37 LINE",
"263 -37 LINE",
"178 -274 LINE"
);
}
);
width = 657;
}
);
leftKerningGroup = C;
note = Gcommaaccent;
unicode = 0122;
},
{
glyphname = Gdotaccent;
lastChange = "2015-10-24 04:56:43 +0000";
layers = (
{
layerId = "DD5B64A7-4DAF-4BC4-A4CC-81A10E608EA1";
name = "Bold Italic";
paths = (
{
closed = 1;
nodes = (
"293 172 OFFCURVE",
"258 192 OFFCURVE",
"258 254 CURVE SMOOTH",
"258 272 OFFCURVE",
"261 294 OFFCURVE",
"266 319 CURVE SMOOTH",
"289 430 OFFCURVE",
"359 472 OFFCURVE",
"473 472 CURVE SMOOTH",
"545 472 OFFCURVE",
"606 463 OFFCURVE",
"655 442 CURVE",
"694 625 LINE",
"641 644 OFFCURVE",
"576 654 OFFCURVE",
"497 654 CURVE SMOOTH",
"244 654 OFFCURVE",
"93 536 OFFCURVE",
"47 319 CURVE SMOOTH",
"41 289 OFFCURVE",
"38 261 OFFCURVE",
"38 236 CURVE SMOOTH",
"38 75 OFFCURVE",
"155 -10 OFFCURVE",
"340 -10 CURVE SMOOTH",
"459 -10 OFFCURVE",
"548 16 OFFCURVE",
"607 51 CURVE",
"677 379 LINE",
"381 379 LINE",
"353 248 LINE",
"470 248 LINE",
"456 182 LINE",
"432 175 OFFCURVE",
"407 172 OFFCURVE",
"378 172 CURVE SMOOTH"
);
},
{
closed = 1;
nodes = (
"576 716 LINE",
"603 847 LINE",
"460 847 LINE",
"433 716 LINE"
);
}
);
width = 657;
}
);
leftKerningGroup = C;
note = Gdotaccent;
unicode = 0120;
},
{
glyphname = Gmacron;
lastChange = "2015-10-24 04:56:43 +0000";
layers = (
{
layerId = "DD5B64A7-4DAF-4BC4-A4CC-81A10E608EA1";
name = "Bold Italic";
paths = (
{
closed = 1;
nodes = (
"293 172 OFFCURVE",
"258 192 OFFCURVE",
"258 254 CURVE SMOOTH",
"258 272 OFFCURVE",
"261 294 OFFCURVE",
"266 319 CURVE SMOOTH",
"289 430 OFFCURVE",
"359 472 OFFCURVE",
"473 472 CURVE SMOOTH",
"545 472 OFFCURVE",
"606 463 OFFCURVE",
"655 442 CURVE",
"694 625 LINE",
"641 644 OFFCURVE",
"576 654 OFFCURVE",
"497 654 CURVE SMOOTH",
"244 654 OFFCURVE",
"93 536 OFFCURVE",
"47 319 CURVE SMOOTH",
"41 289 OFFCURVE",
"38 261 OFFCURVE",
"38 236 CURVE SMOOTH",
"38 75 OFFCURVE",
"155 -10 OFFCURVE",
"340 -10 CURVE SMOOTH",
"459 -10 OFFCURVE",
"548 16 OFFCURVE",
"607 51 CURVE",
"677 379 LINE",
"381 379 LINE",
"353 248 LINE",
"470 248 LINE",
"456 182 LINE",
"432 175 OFFCURVE",
"407 172 OFFCURVE",
"378 172 CURVE SMOOTH"
);
},
{
closed = 1;
nodes = (
"354 843 LINE",
"327 717 LINE",
"665 717 LINE",
"692 843 LINE"
);
}
);
width = 657;
}
);
leftKerningGroup = C;
note = Gmacron;
unicode = 1E20;
},
{
glyphname = H;
lastChange = "2015-10-23 13:39:40 +0000";
layers = (
{
layerId = "DD5B64A7-4DAF-4BC4-A4CC-81A10E608EA1";
name = "Bold Italic";
paths = (
{
closed = 1;
nodes = (
"621 0 LINE",
"757 644 LINE",
"542 644 LINE",
"495 419 LINE",
"304 419 LINE",
"351 644 LINE",
"136 644 LINE",
"0 0 LINE",
"215 0 LINE",
"262 225 LINE",
"453 225 LINE",
"406 0 LINE"
);
}
);
width = 701;
}
);
note = H;
unicode = 0048;
},
{
glyphname = Hbar;
lastChange = "2015-10-23 13:39:41 +0000";
layers = (
{
layerId = "DD5B64A7-4DAF-4BC4-A4CC-81A10E608EA1";
name = "Bold Italic";
paths = (
{
closed = 1;
nodes = (
"626 0 LINE",
"725 469 LINE",
"771 469 LINE",
"797 589 LINE",
"750 589 LINE",
"762 644 LINE",
"547 644 LINE",
"535 589 LINE",
"344 589 LINE",
"356 644 LINE",
"141 644 LINE",
"129 589 LINE",
"85 589 LINE",
"59 469 LINE",
"104 469 LINE",
"5 0 LINE",
"220 0 LINE",
"267 225 LINE",
"458 225 LINE",
"411 0 LINE"
);
},
{
closed = 1;
nodes = (
"309 419 LINE",
"319 469 LINE",
"510 469 LINE",
"500 419 LINE"
);
}
);
width = 712;
}
);
note = Hbar;
unicode = 0126;
},
{
glyphname = Hbrevebelow;
lastChange = "2015-10-24 04:56:44 +0000";
layers = (
{
layerId = "DD5B64A7-4DAF-4BC4-A4CC-81A10E608EA1";
name = "Bold Italic";
paths = (
{
closed = 1;
nodes = (
"621 0 LINE",
"757 644 LINE",
"542 644 LINE",
"495 419 LINE",
"304 419 LINE",
"351 644 LINE",
"136 644 LINE",
"0 0 LINE",
"215 0 LINE",
"262 225 LINE",
"453 225 LINE",
"406 0 LINE"
);
},
{
closed = 1;
nodes = (
"98 -45 LINE",
"94 -65 OFFCURVE",
"92 -84 OFFCURVE",
"92 -102 CURVE SMOOTH",
"92 -197 OFFCURVE",
"155 -249 OFFCURVE",
"259 -249 CURVE SMOOTH",
"391 -249 OFFCURVE",
"479 -177 OFFCURVE",
"507 -45 CURVE",
"362 -45 LINE",
"352 -92 OFFCURVE",
"336 -131 OFFCURVE",
"278 -131 CURVE SMOOTH",
"238 -131 OFFCURVE",
"226 -110 OFFCURVE",
"226 -80 CURVE SMOOTH",
"226 -69 OFFCURVE",
"227 -58 OFFCURVE",
"230 -45 CURVE"
);
}
);
width = 701;
}
);
note = Hbrevebelow;
unicode = 1E2A;
},
{
glyphname = Hcircumflex;
lastChange = "2015-10-23 13:39:40 +0000";
layers = (
{
layerId = "DD5B64A7-4DAF-4BC4-A4CC-81A10E608EA1";
name = "Bold Italic";
paths = (
{
closed = 1;
nodes = (
"621 0 LINE",
"757 644 LINE",
"542 644 LINE",
"495 419 LINE",
"304 419 LINE",
"351 644 LINE",
"136 644 LINE",
"0 0 LINE",
"215 0 LINE",
"262 225 LINE",
"453 225 LINE",
"406 0 LINE"
);
},
{
closed = 1;
nodes = (
"562 895 LINE",
"435 895 LINE",
"227 687 LINE",
"389 687 LINE",
"484 795 LINE",
"537 687 LINE",
"683 687 LINE"
);
}
);
width = 701;
}
);
note = Hcircumflex;
unicode = 0124;
},
{
glyphname = Hdotbelow;
lastChange = "2015-10-23 13:39:40 +0000";
layers = (
{
layerId = "DD5B64A7-4DAF-4BC4-A4CC-81A10E608EA1";
name = "Bold Italic";
paths = (
{
closed = 1;
nodes = (
"621 0 LINE",
"757 644 LINE",
"542 644 LINE",
"495 419 LINE",
"304 419 LINE",
"351 644 LINE",
"136 644 LINE",
"0 0 LINE",
"215 0 LINE",
"262 225 LINE",
"453 225 LINE",
"406 0 LINE"
);
},
{
closed = 1;
nodes = (
"344 -176 LINE",
"372 -46 LINE",
"229 -46 LINE",
"201 -176 LINE"
);
}
);
width = 701;
}
);
note = Hdotbelow;
unicode = 1E24;
},
{
glyphname = I;
lastChange = "2015-10-23 13:39:41 +0000";
layers = (
{
layerId = "DD5B64A7-4DAF-4BC4-A4CC-81A10E608EA1";
name = "Bold Italic";
paths = (
{
closed = 1;
nodes = (
"351 644 LINE",
"136 644 LINE",
"0 0 LINE",
"215 0 LINE"
);
}
);
width = 295;
}
);
note = I;
unicode = 0049;
},
{
glyphname = IJ;
lastChange = "2015-10-23 13:39:40 +0000";
layers = (
{
layerId = "DD5B64A7-4DAF-4BC4-A4CC-81A10E608EA1";
name = "Bold Italic";
paths = (
{
closed = 1;
nodes = (
"351 644 LINE",
"136 644 LINE",
"0 0 LINE",
"215 0 LINE"
);
},
{
closed = 1;
nodes = (
"805 644 LINE",
"590 644 LINE",
"509 259 LINE SMOOTH",
"495 196 OFFCURVE",
"474 172 OFFCURVE",
"399 172 CURVE SMOOTH",
"359 172 OFFCURVE",
"319 178 OFFCURVE",
"290 191 CURVE",
"252 13 LINE",
"295 0 OFFCURVE",
"344 -10 OFFCURVE",
"404 -10 CURVE SMOOTH",
"574 -10 OFFCURVE",
"681 59 OFFCURVE",
"714 215 CURVE SMOOTH"
);
}
);
width = 744;
}
);
note = IJ;
rightKerningGroup = J;
unicode = 0132;
},
{
glyphname = Iacute;
lastChange = "2015-10-23 13:39:41 +0000";
layers = (
{
layerId = "DD5B64A7-4DAF-4BC4-A4CC-81A10E608EA1";
name = "Bold Italic";
paths = (
{
closed = 1;
nodes = (
"351 644 LINE",
"136 644 LINE",
"0 0 LINE",
"215 0 LINE"
);
},
{
closed = 1;
nodes = (
"327 688 LINE",
"474 904 LINE",
"308 904 LINE",
"170 688 LINE"
);
}
);
width = 295;
}
);
note = Iacute;
unicode = 00CD;
},
{
glyphname = Ibreve;
lastChange = "2015-10-24 04:56:44 +0000";
layers = (
{
layerId = "DD5B64A7-4DAF-4BC4-A4CC-81A10E608EA1";
name = "Bold Italic";
paths = (
{
closed = 1;
nodes = (
"351 644 LINE",
"136 644 LINE",
"0 0 LINE",
"215 0 LINE"
);
},
{
closed = 1;
nodes = (
"98 915 LINE",
"94 895 OFFCURVE",
"92 876 OFFCURVE",
"92 858 CURVE SMOOTH",
"92 763 OFFCURVE",
"155 711 OFFCURVE",
"258 711 CURVE SMOOTH",
"391 711 OFFCURVE",
"479 783 OFFCURVE",
"507 915 CURVE",
"363 915 LINE",
"353 868 OFFCURVE",
"336 829 OFFCURVE",
"278 829 CURVE SMOOTH",
"238 829 OFFCURVE",
"226 850 OFFCURVE",
"226 880 CURVE SMOOTH",
"226 891 OFFCURVE",
"227 902 OFFCURVE",
"230 915 CURVE"
);
}
);
width = 295;
}
);
note = Ibreve;
unicode = 012C;
},
{
glyphname = Icaron;
lastChange = "2015-10-23 13:39:41 +0000";
layers = (
{
layerId = "DD5B64A7-4DAF-4BC4-A4CC-81A10E608EA1";
name = "Bold Italic";
paths = (
{
closed = 1;
nodes = (
"351 644 LINE",
"136 644 LINE",
"0 0 LINE",
"215 0 LINE"
);
},
{
closed = 1;
nodes = (
"525 896 LINE",
"367 896 LINE",
"268 788 LINE",
"218 896 LINE",
"69 896 LINE",
"190 688 LINE",
"316 688 LINE"
);
}
);
width = 295;
}
);
note = Icaron;
unicode = 01CF;
},
{
glyphname = Icircumflex;
lastChange = "2015-10-23 13:39:41 +0000";
layers = (
{
layerId = "DD5B64A7-4DAF-4BC4-A4CC-81A10E608EA1";
name = "Bold Italic";
paths = (
{
closed = 1;
nodes = (
"351 644 LINE",
"136 644 LINE",
"0 0 LINE",
"215 0 LINE"
);
},
{
closed = 1;
nodes = (
"360 896 LINE",
"233 896 LINE",
"25 688 LINE",
"187 688 LINE",
"282 796 LINE",
"335 688 LINE",
"481 688 LINE"
);
}
);
width = 295;
}
);
note = Icircumflex;
unicode = 00CE;
},
{
glyphname = Idieresis;
lastChange = "2015-10-23 13:39:41 +0000";
layers = (
{
layerId = "DD5B64A7-4DAF-4BC4-A4CC-81A10E608EA1";
name = "Bold Italic";
paths = (
{
closed = 1;
nodes = (
"351 644 LINE",
"136 644 LINE",
"0 0 LINE",
"215 0 LINE"
);
},
{
closed = 1;
nodes = (
"220 724 LINE",
"247 855 LINE",
"104 855 LINE",
"77 724 LINE"
);
},
{
closed = 1;
nodes = (
"445 724 LINE",
"472 855 LINE",
"329 855 LINE",
"302 724 LINE"
);
}
);
width = 295;
}
);
note = Idieresis;
unicode = 00CF;
},
{
glyphname = Idotaccent;
lastChange = "2015-10-23 13:39:41 +0000";
layers = (
{
layerId = "DD5B64A7-4DAF-4BC4-A4CC-81A10E608EA1";
name = "Bold Italic";
paths = (
{
closed = 1;
nodes = (
"351 644 LINE",
"136 644 LINE",
"0 0 LINE",
"215 0 LINE"
);
},
{
closed = 1;
nodes = (
"332 724 LINE",
"359 855 LINE",
"216 855 LINE",
"189 724 LINE"
);
}
);
width = 295;
}
);
note = Idotaccent;
unicode = 0130;
},
{
glyphname = Idotbelow;
lastChange = "2015-10-23 13:39:40 +0000";
layers = (
{
layerId = "DD5B64A7-4DAF-4BC4-A4CC-81A10E608EA1";
name = "Bold Italic";
paths = (
{
closed = 1;
nodes = (
"351 644 LINE",
"136 644 LINE",
"0 0 LINE",
"215 0 LINE"
);
},
{
closed = 1;
nodes = (
"142 -176 LINE",
"170 -46 LINE",
"27 -46 LINE",
"-1 -176 LINE"
);
}
);
width = 295;
}
);
note = Idotbelow;
unicode = 1ECA;
},
{
glyphname = Igrave;
lastChange = "2015-10-23 13:39:40 +0000";
layers = (
{
layerId = "DD5B64A7-4DAF-4BC4-A4CC-81A10E608EA1";
name = "Bold Italic";
paths = (
{
closed = 1;
nodes = (
"351 644 LINE",
"136 644 LINE",
"0 0 LINE",
"215 0 LINE"
);
},
{
closed = 1;
nodes = (
"333 688 LINE",
"287 904 LINE",
"120 904 LINE",
"175 688 LINE"
);
}
);
width = 295;
}
);
note = Igrave;
unicode = 00CC;
},
{
glyphname = Ihookabove;
lastChange = "2015-10-24 04:56:43 +0000";
layers = (
{
layerId = "DD5B64A7-4DAF-4BC4-A4CC-81A10E608EA1";
name = "Bold Italic";
paths = (
{
closed = 1;
nodes = (
"351 644 LINE",
"136 644 LINE",
"0 0 LINE",
"215 0 LINE"
);
},
{
closed = 1;
nodes = (
"443 835 OFFCURVE",
"443 842 OFFCURVE",
"443 848 CURVE SMOOTH",
"443 898 OFFCURVE",
"400 932 OFFCURVE",
"317 932 CURVE SMOOTH",
"264 932 OFFCURVE",
"223 927 OFFCURVE",
"191 918 CURVE",
"173 832 LINE",
"190 837 OFFCURVE",
"213 841 OFFCURVE",
"233 841 CURVE SMOOTH",
"265 841 OFFCURVE",
"282 834 OFFCURVE",
"282 817 CURVE SMOOTH",
"282 791 OFFCURVE",
"260 773 OFFCURVE",
"185 769 CURVE",
"168 688 LINE",
"328 688 LINE",
"336 726 LINE",
"396 743 OFFCURVE",
"428 769 OFFCURVE",
"441 828 CURVE SMOOTH"
);
}
);
width = 295;
}
);
note = Ihookabove;
unicode = 1EC8;
},
{
glyphname = Imacron;
lastChange = "2015-10-23 13:39:41 +0000";
layers = (
{
layerId = "DD5B64A7-4DAF-4BC4-A4CC-81A10E608EA1";
name = "Bold Italic";
paths = (
{
closed = 1;
nodes = (
"351 644 LINE",
"136 644 LINE",
"0 0 LINE",
"215 0 LINE"
);
},
{
closed = 1;
nodes = (
"119 851 LINE",
"92 725 LINE",
"430 725 LINE",
"457 851 LINE"
);
}
);
width = 295;
}
);
note = Imacron;
unicode = 012A;
},
{
glyphname = Iogonek;
lastChange = "2015-10-24 04:56:43 +0000";
layers = (
{
layerId = "DD5B64A7-4DAF-4BC4-A4CC-81A10E608EA1";
name = "Bold Italic";
paths = (
{
closed = 1;
nodes = (
"111 -51 OFFCURVE",
"137 -24 OFFCURVE",
"174 0 CURVE",
"215 0 LINE",
"351 644 LINE",
"136 644 LINE",
"0 0 LINE",
"40 0 LINE",
"-8 -26 OFFCURVE",
"-49 -68 OFFCURVE",
"-60 -120 CURVE SMOOTH",
"-62 -128 OFFCURVE",
"-63 -136 OFFCURVE",
"-63 -143 CURVE SMOOTH",
"-63 -196 OFFCURVE",
"-14 -220 OFFCURVE",
"59 -220 CURVE SMOOTH",
"105 -220 OFFCURVE",
"150 -211 OFFCURVE",
"172 -203 CURVE",
"193 -107 LINE",
"179 -114 OFFCURVE",
"157 -118 OFFCURVE",
"140 -118 CURVE SMOOTH",
"116 -118 OFFCURVE",
"103 -111 OFFCURVE",
"103 -93 CURVE SMOOTH",
"103 -90 OFFCURVE",
"103 -87 OFFCURVE",
"104 -83 CURVE SMOOTH"
);
}
);
width = 295;
}
);
note = Iogonek;
unicode = 012E;
},
{
glyphname = Itilde;
lastChange = "2015-10-23 13:39:41 +0000";
layers = (
{
layerId = "DD5B64A7-4DAF-4BC4-A4CC-81A10E608EA1";
name = "Bold Italic";
paths = (
{
closed = 1;
nodes = (
"351 644 LINE",
"136 644 LINE",
"0 0 LINE",
"215 0 LINE"
);
},
{
closed = 1;
nodes = (
"402 717 OFFCURVE",
"442 733 OFFCURVE",
"459 751 CURVE",
"487 881 LINE",
"466 858 OFFCURVE",
"428 840 OFFCURVE",
"384 840 CURVE SMOOTH",
"318 840 OFFCURVE",
"272 883 OFFCURVE",
"202 883 CURVE SMOOTH",
"162 883 OFFCURVE",
"120 867 OFFCURVE",
"97 849 CURVE",
"69 720 LINE",
"99 744 OFFCURVE",
"135 760 OFFCURVE",
"179 760 CURVE SMOOTH",
"237 760 OFFCURVE",
"292 717 OFFCURVE",
"361 717 CURVE SMOOTH"
);
}
);
width = 295;
}
);
note = Itilde;
unicode = 0128;
},
{
glyphname = J;
lastChange = "2015-10-23 13:39:40 +0000";
layers = (
{
layerId = "DD5B64A7-4DAF-4BC4-A4CC-81A10E608EA1";
name = "Bold Italic";
paths = (
{
closed = 1;
nodes = (
"515 644 LINE",
"300 644 LINE",
"219 259 LINE SMOOTH",
"205 196 OFFCURVE",
"184 172 OFFCURVE",
"109 172 CURVE SMOOTH",
"69 172 OFFCURVE",
"29 178 OFFCURVE",
"0 191 CURVE",
"-38 13 LINE",
"5 0 OFFCURVE",
"54 -10 OFFCURVE",
"114 -10 CURVE SMOOTH",
"284 -10 OFFCURVE",
"391 59 OFFCURVE",
"424 215 CURVE SMOOTH"
);
}
);
width = 454;
}
);
leftKerningGroup = J;
note = J;
rightKerningGroup = J;
unicode = 004A;
},
{
glyphname = Jcircumflex;
lastChange = "2015-10-23 13:39:41 +0000";
layers = (
{
layerId = "DD5B64A7-4DAF-4BC4-A4CC-81A10E608EA1";
name = "Bold Italic";
paths = (
{
closed = 1;
nodes = (
"515 644 LINE",
"300 644 LINE",
"219 259 LINE SMOOTH",
"205 196 OFFCURVE",
"184 172 OFFCURVE",
"109 172 CURVE SMOOTH",
"69 172 OFFCURVE",
"29 178 OFFCURVE",
"0 191 CURVE",
"-38 13 LINE",
"5 0 OFFCURVE",
"54 -10 OFFCURVE",
"114 -10 CURVE SMOOTH",
"284 -10 OFFCURVE",
"391 59 OFFCURVE",
"424 215 CURVE SMOOTH"
);
},
{
closed = 1;
nodes = (
"521 896 LINE",
"394 896 LINE",
"186 688 LINE",
"348 688 LINE",
"443 796 LINE",
"496 688 LINE",
"642 688 LINE"
);
}
);
width = 454;
}
);
leftKerningGroup = J;
note = Jcircumflex;
rightKerningGroup = J;
unicode = 0134;
},
{
glyphname = K;
lastChange = "2015-10-23 13:39:40 +0000";
layers = (
{
layerId = "DD5B64A7-4DAF-4BC4-A4CC-81A10E608EA1";
name = "Bold Italic";
paths = (
{
closed = 1;
nodes = (
"762 644 LINE",
"519 644 LINE",
"308 440 LINE",
"351 644 LINE",
"136 644 LINE",
"0 0 LINE",
"215 0 LINE",
"252 177 LINE",
"322 242 LINE",
"416 0 LINE",
"644 0 LINE",
"483 378 LINE"
);
}
);
width = 704;
}
);
note = K;
rightKerningGroup = K;
unicode = 004B;
},
{
glyphname = Kcommaaccent;
lastChange = "2015-10-23 13:39:41 +0000";
layers = (
{
layerId = "DD5B64A7-4DAF-4BC4-A4CC-81A10E608EA1";
name = "Bold Italic";
paths = (
{
closed = 1;
nodes = (
"762 644 LINE",
"519 644 LINE",
"308 440 LINE",
"351 644 LINE",
"136 644 LINE",
"0 0 LINE",
"215 0 LINE",
"252 177 LINE",
"322 242 LINE",
"416 0 LINE",
"644 0 LINE",
"483 378 LINE"
);
},
{
closed = 1;
nodes = (
"284 -274 LINE",
"396 -37 LINE",
"230 -37 LINE",
"145 -274 LINE"
);
}
);
width = 704;
}
);
note = Kcommaaccent;
rightKerningGroup = K;
unicode = 0136;
},
{
glyphname = L;
lastChange = "2015-10-23 13:39:41 +0000";
layers = (
{
layerId = "DD5B64A7-4DAF-4BC4-A4CC-81A10E608EA1";
name = "Bold Italic";
paths = (
{
closed = 1;
nodes = (
"351 644 LINE",
"136 644 LINE",
"0 0 LINE",
"491 0 LINE",
"525 164 LINE",
"249 164 LINE"
);
}
);
width = 531;
}
);
note = L;
rightKerningGroup = L;
unicode = 004C;
},
{
glyphname = Lacute;
lastChange = "2015-10-23 13:39:40 +0000";
layers = (
{
layerId = "DD5B64A7-4DAF-4BC4-A4CC-81A10E608EA1";
name = "Bold Italic";
paths = (
{
closed = 1;
nodes = (
"351 644 LINE",
"136 644 LINE",
"0 0 LINE",
"491 0 LINE",
"525 164 LINE",
"249 164 LINE"
);
},
{
closed = 1;
nodes = (
"330 688 LINE",
"477 904 LINE",
"311 904 LINE",
"173 688 LINE"
);
}
);
width = 531;
}
);
note = Lacute;
rightKerningGroup = L;
unicode = 0139;
},
{
glyphname = Lcaron;
lastChange = "2015-10-23 13:39:41 +0000";
layers = (
{
layerId = "DD5B64A7-4DAF-4BC4-A4CC-81A10E608EA1";
name = "Bold Italic";
paths = (
{
closed = 1;
nodes = (
"351 644 LINE",
"136 644 LINE",
"0 0 LINE",
"491 0 LINE",
"525 164 LINE",
"249 164 LINE"
);
},
{
closed = 1;
nodes = (
"310 688 LINE",
"422 925 LINE",
"256 925 LINE",
"171 688 LINE"
);
}
);
width = 531;
}
);
note = Lcaron;
rightKerningGroup = L;
unicode = 013D;
},
{
glyphname = Lcommaaccent;
lastChange = "2015-10-23 13:39:41 +0000";
layers = (
{
layerId = "DD5B64A7-4DAF-4BC4-A4CC-81A10E608EA1";
name = "Bold Italic";
paths = (
{
closed = 1;
nodes = (
"351 644 LINE",
"136 644 LINE",
"0 0 LINE",
"491 0 LINE",
"525 164 LINE",
"249 164 LINE"
);
},
{
closed = 1;
nodes = (
"237 -274 LINE",
"349 -37 LINE",
"183 -37 LINE",
"98 -274 LINE"
);
}
);
width = 531;
}
);
note = Lcommaaccent;
rightKerningGroup = L;
unicode = 013B;
},
{
glyphname = Ldot;
lastChange = "2015-10-23 13:39:41 +0000";
layers = (
{
layerId = "DD5B64A7-4DAF-4BC4-A4CC-81A10E608EA1";
name = "Bold Italic";
paths = (
{
closed = 1;
nodes = (
"351 644 LINE",
"136 644 LINE",
"0 0 LINE",
"491 0 LINE",
"525 164 LINE",
"249 164 LINE"
);
},
{
closed = 1;
nodes = (
"510 300 LINE",
"537 431 LINE",
"394 431 LINE",
"367 300 LINE"
);
}
);
width = 531;
}
);
note = Ldot;
rightKerningGroup = L;
unicode = 013F;
},
{
glyphname = Ldotbelow;
lastChange = "2015-10-23 13:39:41 +0000";
layers = (
{
layerId = "DD5B64A7-4DAF-4BC4-A4CC-81A10E608EA1";
name = "Bold Italic";
paths = (
{
closed = 1;
nodes = (
"351 644 LINE",
"136 644 LINE",
"0 0 LINE",
"491 0 LINE",
"525 164 LINE",
"249 164 LINE"
);
},
{
closed = 1;
nodes = (
"271 -175 LINE",
"299 -45 LINE",
"156 -45 LINE",
"128 -175 LINE"
);
}
);
width = 531;
}
);
note = Ldotbelow;
rightKerningGroup = L;
unicode = 1E36;
},
{
glyphname = Ldotbelowmacron;
lastChange = "2015-10-23 13:39:41 +0000";
layers = (
{
layerId = "DD5B64A7-4DAF-4BC4-A4CC-81A10E608EA1";
name = "Bold Italic";
paths = (
{
closed = 1;
nodes = (
"353 644 LINE",
"138 644 LINE",
"2 0 LINE",
"493 0 LINE",
"527 164 LINE",
"251 164 LINE"
);
},
{
closed = 1;
nodes = (
"117 843 LINE",
"90 717 LINE",
"428 717 LINE",
"455 843 LINE"
);
},
{
closed = 1;
nodes = (
"272 -175 LINE",
"300 -45 LINE",
"157 -45 LINE",
"129 -175 LINE"
);
}
);
width = 533;
}
);
note = Ldotbelowmacron;
rightKerningGroup = L;
unicode = 1E38;
},
{
glyphname = Llinebelow;
lastChange = "2015-10-23 13:39:41 +0000";
layers = (
{
layerId = "DD5B64A7-4DAF-4BC4-A4CC-81A10E608EA1";
name = "Bold Italic";
paths = (
{
closed = 1;
nodes = (
"351 644 LINE",
"136 644 LINE",
"0 0 LINE",
"491 0 LINE",
"525 164 LINE",
"249 164 LINE"
);
},
{
closed = 1;
nodes = (
"58 -49 LINE",
"31 -175 LINE",
"369 -175 LINE",
"396 -49 LINE"
);
}
);
width = 531;
}
);
note = Llinebelow;
rightKerningGroup = L;
unicode = 1E3A;
},
{
glyphname = Lslash;
lastChange = "2015-10-23 13:39:41 +0000";
layers = (
{
layerId = "DD5B64A7-4DAF-4BC4-A4CC-81A10E608EA1";
name = "Bold Italic";
paths = (
{
closed = 1;
nodes = (
"371 644 LINE",
"156 644 LINE",
"100 378 LINE",
"23 347 LINE",
"-9 196 LINE",
"68 227 LINE",
"20 0 LINE",
"511 0 LINE",
"545 164 LINE",
"269 164 LINE",
"302 320 LINE",
"388 355 LINE",
"420 506 LINE",
"334 472 LINE"
);
}
);
width = 552;
}
);
note = Lslash;
rightKerningGroup = L;
unicode = 0141;
},
{
glyphname = M;
lastChange = "2015-10-23 13:39:41 +0000";
layers = (
{
layerId = "DD5B64A7-4DAF-4BC4-A4CC-81A10E608EA1";
name = "Bold Italic";
paths = (
{
closed = 1;
nodes = (
"430 110 LINE",
"545 274 LINE",
"487 0 LINE",
"702 0 LINE",
"838 644 LINE",
"625 644 LINE",
"418 347 LINE",
"335 644 LINE",
"136 644 LINE",
"0 0 LINE",
"215 0 LINE",
"273 274 LINE",
"318 110 LINE"
);
}
);
width = 782;
}
);
note = M;
unicode = 004D;
},
{
glyphname = Mdotbelow;
lastChange = "2015-10-23 13:39:40 +0000";
layers = (
{
layerId = "DD5B64A7-4DAF-4BC4-A4CC-81A10E608EA1";
name = "Bold Italic";
paths = (
{
closed = 1;
nodes = (
"430 110 LINE",
"545 274 LINE",
"487 0 LINE",
"702 0 LINE",
"838 644 LINE",
"625 644 LINE",
"418 347 LINE",
"335 644 LINE",
"136 644 LINE",
"0 0 LINE",
"215 0 LINE",
"273 274 LINE",
"318 110 LINE"
);
},
{
closed = 1;
nodes = (
"387 -176 LINE",
"415 -46 LINE",
"272 -46 LINE",
"244 -176 LINE"
);
}
);
width = 782;
}
);
note = Mdotbelow;
unicode = 1E42;
},
{
glyphname = N;
lastChange = "2015-10-24 05:08:10 +0000";
layers = (
{
layerId = "DD5B64A7-4DAF-4BC4-A4CC-81A10E608EA1";
name = "Bold Italic";
paths = (
{
closed = 1;
nodes = (
"425 0 LINE",
"608 0 LINE",
"744 644 LINE",
"529 644 LINE",
"466 347 LINE",
"317 644 LINE",
"136 644 LINE",
"0 0 LINE",
"215 0 LINE",
"277 296 LINE"
);
}
);
width = 688;
}
);
note = N;
unicode = 004E;
},
{
glyphname = Nacute;
lastChange = "2015-10-23 13:39:41 +0000";
layers = (
{
layerId = "DD5B64A7-4DAF-4BC4-A4CC-81A10E608EA1";
name = "Bold Italic";
paths = (
{
closed = 1;
nodes = (
"425 0 LINE",
"608 0 LINE",
"744 644 LINE",
"529 644 LINE",
"466 347 LINE",
"317 644 LINE",
"136 644 LINE",
"0 0 LINE",
"215 0 LINE",
"277 296 LINE"
);
},
{
closed = 1;
nodes = (
"501 688 LINE",
"648 904 LINE",
"482 904 LINE",
"344 688 LINE"
);
}
);
width = 688;
}
);
note = Nacute;
unicode = 0143;
},
{
glyphname = Ncaron;
lastChange = "2015-10-23 13:39:41 +0000";
layers = (
{
layerId = "DD5B64A7-4DAF-4BC4-A4CC-81A10E608EA1";
name = "Bold Italic";
paths = (
{
closed = 1;
nodes = (
"425 0 LINE",
"608 0 LINE",
"744 644 LINE",
"529 644 LINE",
"466 347 LINE",
"317 644 LINE",
"136 644 LINE",
"0 0 LINE",
"215 0 LINE",
"277 296 LINE"
);
},
{
closed = 1;
nodes = (
"717 896 LINE",
"559 896 LINE",
"460 788 LINE",
"410 896 LINE",
"261 896 LINE",
"382 688 LINE",
"508 688 LINE"
);
}
);
width = 688;
}
);
note = Ncaron;
unicode = 0147;
},
{
glyphname = Ncommaaccent;
lastChange = "2015-10-23 13:39:41 +0000";
layers = (
{
layerId = "DD5B64A7-4DAF-4BC4-A4CC-81A10E608EA1";
name = "Bold Italic";
paths = (
{
closed = 1;
nodes = (
"425 0 LINE",
"608 0 LINE",
"744 644 LINE",
"529 644 LINE",
"466 347 LINE",
"317 644 LINE",
"136 644 LINE",
"0 0 LINE",
"215 0 LINE",
"277 296 LINE"
);
},
{
closed = 1;
nodes = (
"281 -274 LINE",
"393 -37 LINE",
"227 -37 LINE",
"142 -274 LINE"
);
}
);
width = 688;
}
);
note = Ncommaaccent;
unicode = 0145;
},
{
glyphname = Ndotaccent;
lastChange = "2015-10-23 13:39:41 +0000";
layers = (
{
layerId = "DD5B64A7-4DAF-4BC4-A4CC-81A10E608EA1";
name = "Bold Italic";
paths = (
{
closed = 1;
nodes = (
"425 0 LINE",
"608 0 LINE",
"744 644 LINE",
"529 644 LINE",
"466 347 LINE",
"317 644 LINE",
"136 644 LINE",
"0 0 LINE",
"215 0 LINE",
"277 296 LINE"
);
},
{
closed = 1;
nodes = (
"525 716 LINE",
"552 847 LINE",
"409 847 LINE",
"382 716 LINE"
);
}
);
width = 688;
}
);
note = Ndotaccent;
unicode = 1E44;
},
{
glyphname = Ndotbelow;
lastChange = "2015-10-23 13:39:40 +0000";
layers = (
{
layerId = "DD5B64A7-4DAF-4BC4-A4CC-81A10E608EA1";
name = "Bold Italic";
paths = (
{
closed = 1;
nodes = (
"425 0 LINE",
"608 0 LINE",
"744 644 LINE",
"529 644 LINE",
"466 347 LINE",
"317 644 LINE",
"136 644 LINE",
"0 0 LINE",
"215 0 LINE",
"277 296 LINE"
);
},
{
closed = 1;
nodes = (
"341 -176 LINE",
"369 -46 LINE",
"226 -46 LINE",
"198 -176 LINE"
);
}
);
width = 688;
}
);
note = Ndotbelow;
unicode = 1E46;
},
{
glyphname = Eng;
lastChange = "2015-10-23 13:39:41 +0000";
layers = (
{
layerId = "DD5B64A7-4DAF-4BC4-A4CC-81A10E608EA1";
name = "Bold Italic";
paths = (
{
closed = 1;
nodes = (
"744 644 LINE",
"528 644 LINE",
"465 347 LINE",
"317 644 LINE",
"136 644 LINE",
"0 0 LINE",
"215 0 LINE",
"277 296 LINE",
"401 46 LINE",
"384 -37 LINE SMOOTH",
"377 -73 OFFCURVE",
"362 -84 OFFCURVE",
"320 -84 CURVE SMOOTH",
"300 -84 OFFCURVE",
"280 -81 OFFCURVE",
"262 -74 CURVE",
"233 -210 LINE",
"268 -226 OFFCURVE",
"309 -234 OFFCURVE",
"365 -234 CURVE SMOOTH",
"513 -234 OFFCURVE",
"571 -170 OFFCURVE",
"596 -52 CURVE SMOOTH"
);
}
);
width = 688;
}
);
note = Eng;
unicode = 014A;
},
{
glyphname = Nlinebelow;
lastChange = "2015-10-23 13:39:41 +0000";
layers = (
{
layerId = "DD5B64A7-4DAF-4BC4-A4CC-81A10E608EA1";
name = "Bold Italic";
paths = (
{
closed = 1;
nodes = (
"425 0 LINE",
"608 0 LINE",
"744 644 LINE",
"529 644 LINE",
"466 347 LINE",
"317 644 LINE",
"136 644 LINE",
"0 0 LINE",
"215 0 LINE",
"277 296 LINE"
);
},
{
closed = 1;
nodes = (
"126 -50 LINE",
"99 -176 LINE",
"437 -176 LINE",
"464 -50 LINE"
);
}
);
width = 688;
}
);
note = Nlinebelow;
unicode = 1E48;
},
{
glyphname = Ntilde;
lastChange = "2015-10-23 13:39:41 +0000";
layers = (
{
layerId = "DD5B64A7-4DAF-4BC4-A4CC-81A10E608EA1";
name = "Bold Italic";
paths = (
{
closed = 1;
nodes = (
"425 0 LINE",
"608 0 LINE",
"744 644 LINE",
"529 644 LINE",
"466 347 LINE",
"317 644 LINE",
"136 644 LINE",
"0 0 LINE",
"215 0 LINE",
"277 296 LINE"
);
},
{
closed = 1;
nodes = (
"601 694 OFFCURVE",
"641 710 OFFCURVE",
"658 728 CURVE",
"686 858 LINE",
"665 835 OFFCURVE",
"627 817 OFFCURVE",
"583 817 CURVE SMOOTH",
"517 817 OFFCURVE",
"471 860 OFFCURVE",
"401 860 CURVE SMOOTH",
"361 860 OFFCURVE",
"319 844 OFFCURVE",
"296 826 CURVE",
"268 697 LINE",
"298 721 OFFCURVE",
"334 737 OFFCURVE",
"378 737 CURVE SMOOTH",
"436 737 OFFCURVE",
"491 694 OFFCURVE",
"560 694 CURVE SMOOTH"
);
}
);
width = 688;
}
);
note = Ntilde;
unicode = 00D1;
},
{
glyphname = O;
lastChange = "2015-10-24 04:56:43 +0000";
layers = (
{
layerId = "DD5B64A7-4DAF-4BC4-A4CC-81A10E608EA1";
name = "Bold Italic";
paths = (
{
closed = 1;
nodes = (
"290 431 OFFCURVE",
"333 471 OFFCURVE",
"417 471 CURVE SMOOTH",
"484 471 OFFCURVE",
"511 449 OFFCURVE",
"511 391 CURVE SMOOTH",
"511 372 OFFCURVE",
"508 349 OFFCURVE",
"502 321 CURVE SMOOTH",
"479 215 OFFCURVE",
"436 172 OFFCURVE",
"353 172 CURVE SMOOTH",
"286 172 OFFCURVE",
"258 196 OFFCURVE",
"258 253 CURVE SMOOTH",
"258 272 OFFCURVE",
"261 294 OFFCURVE",
"267 321 CURVE SMOOTH"
);
},
{
closed = 1;
nodes = (
"730 357 OFFCURVE",
"733 389 OFFCURVE",
"733 419 CURVE SMOOTH",
"733 580 OFFCURVE",
"626 654 OFFCURVE",
"456 654 CURVE SMOOTH",
"224 654 OFFCURVE",
"100 562 OFFCURVE",
"48 321 CURVE SMOOTH",
"40 285 OFFCURVE",
"37 253 OFFCURVE",
"37 223 CURVE SMOOTH",
"37 60 OFFCURVE",
"148 -10 OFFCURVE",
"314 -10 CURVE SMOOTH",
"548 -10 OFFCURVE",
"671 83 OFFCURVE",
"722 321 CURVE SMOOTH"
);
}
);
width = 714;
}
);
leftKerningGroup = O;
note = O;
rightKerningGroup = O;
unicode = 004F;
},
{
glyphname = Oacute;
lastChange = "2015-10-24 04:56:44 +0000";
layers = (
{
layerId = "DD5B64A7-4DAF-4BC4-A4CC-81A10E608EA1";
name = "Bold Italic";
paths = (
{
closed = 1;
nodes = (
"290 431 OFFCURVE",
"333 471 OFFCURVE",
"417 471 CURVE SMOOTH",
"484 471 OFFCURVE",
"511 449 OFFCURVE",
"511 391 CURVE SMOOTH",
"511 372 OFFCURVE",
"508 349 OFFCURVE",
"502 321 CURVE SMOOTH",
"479 215 OFFCURVE",
"436 172 OFFCURVE",
"353 172 CURVE SMOOTH",
"286 172 OFFCURVE",
"258 196 OFFCURVE",
"258 253 CURVE SMOOTH",
"258 272 OFFCURVE",
"261 294 OFFCURVE",
"267 321 CURVE SMOOTH"
);
},
{
closed = 1;
nodes = (
"730 357 OFFCURVE",
"733 389 OFFCURVE",
"733 419 CURVE SMOOTH",
"733 580 OFFCURVE",
"626 654 OFFCURVE",
"456 654 CURVE SMOOTH",
"224 654 OFFCURVE",
"100 562 OFFCURVE",
"48 321 CURVE SMOOTH",
"40 285 OFFCURVE",
"37 253 OFFCURVE",
"37 223 CURVE SMOOTH",
"37 60 OFFCURVE",
"148 -10 OFFCURVE",
"314 -10 CURVE SMOOTH",
"548 -10 OFFCURVE",
"671 83 OFFCURVE",
"722 321 CURVE SMOOTH"
);
},
{
closed = 1;
nodes = (
"525 688 LINE",
"672 904 LINE",
"506 904 LINE",
"368 688 LINE"
);
}
);
width = 714;
}
);
leftKerningGroup = O;
note = Oacute;
rightKerningGroup = O;
unicode = 00D3;
},
{
glyphname = Obreve;
lastChange = "2015-10-24 04:56:43 +0000";
layers = (
{
layerId = "DD5B64A7-4DAF-4BC4-A4CC-81A10E608EA1";
name = "Bold Italic";
paths = (
{
closed = 1;
nodes = (
"290 431 OFFCURVE",
"333 471 OFFCURVE",
"417 471 CURVE SMOOTH",
"484 471 OFFCURVE",
"511 449 OFFCURVE",
"511 391 CURVE SMOOTH",
"511 372 OFFCURVE",
"508 349 OFFCURVE",
"502 321 CURVE SMOOTH",
"479 215 OFFCURVE",
"436 172 OFFCURVE",
"353 172 CURVE SMOOTH",
"286 172 OFFCURVE",
"258 196 OFFCURVE",
"258 253 CURVE SMOOTH",
"258 272 OFFCURVE",
"261 294 OFFCURVE",
"267 321 CURVE SMOOTH"
);
},
{
closed = 1;
nodes = (
"730 357 OFFCURVE",
"733 389 OFFCURVE",
"733 419 CURVE SMOOTH",
"733 580 OFFCURVE",
"626 654 OFFCURVE",
"456 654 CURVE SMOOTH",
"224 654 OFFCURVE",
"100 562 OFFCURVE",
"48 321 CURVE SMOOTH",
"40 285 OFFCURVE",
"37 253 OFFCURVE",
"37 223 CURVE SMOOTH",
"37 60 OFFCURVE",
"148 -10 OFFCURVE",
"314 -10 CURVE SMOOTH",
"548 -10 OFFCURVE",
"671 83 OFFCURVE",
"722 321 CURVE SMOOTH"
);
},
{
closed = 1;
nodes = (
"302 892 LINE",
"298 872 OFFCURVE",
"296 853 OFFCURVE",
"296 835 CURVE SMOOTH",
"296 740 OFFCURVE",
"359 688 OFFCURVE",
"462 688 CURVE SMOOTH",
"595 688 OFFCURVE",
"683 760 OFFCURVE",
"711 892 CURVE",
"567 892 LINE",
"557 845 OFFCURVE",
"540 806 OFFCURVE",
"482 806 CURVE SMOOTH",
"442 806 OFFCURVE",
"430 827 OFFCURVE",
"430 857 CURVE SMOOTH",
"430 868 OFFCURVE",
"431 879 OFFCURVE",
"434 892 CURVE"
);
}
);
width = 714;
}
);
leftKerningGroup = O;
note = Obreve;
rightKerningGroup = O;
unicode = 014E;
},
{
glyphname = Ocaron;
lastChange = "2015-10-24 04:56:43 +0000";
layers = (
{
layerId = "DD5B64A7-4DAF-4BC4-A4CC-81A10E608EA1";
name = "Bold Italic";
paths = (
{
closed = 1;
nodes = (
"290 431 OFFCURVE",
"333 471 OFFCURVE",
"417 471 CURVE SMOOTH",
"484 471 OFFCURVE",
"511 449 OFFCURVE",
"511 391 CURVE SMOOTH",
"511 372 OFFCURVE",
"508 349 OFFCURVE",
"502 321 CURVE SMOOTH",
"479 215 OFFCURVE",
"436 172 OFFCURVE",
"353 172 CURVE SMOOTH",
"286 172 OFFCURVE",
"258 196 OFFCURVE",
"258 253 CURVE SMOOTH",
"258 272 OFFCURVE",
"261 294 OFFCURVE",
"267 321 CURVE SMOOTH"
);
},
{
closed = 1;
nodes = (
"730 357 OFFCURVE",
"733 389 OFFCURVE",
"733 419 CURVE SMOOTH",
"733 580 OFFCURVE",
"626 654 OFFCURVE",
"456 654 CURVE SMOOTH",
"224 654 OFFCURVE",
"100 562 OFFCURVE",
"48 321 CURVE SMOOTH",
"40 285 OFFCURVE",
"37 253 OFFCURVE",
"37 223 CURVE SMOOTH",
"37 60 OFFCURVE",
"148 -10 OFFCURVE",
"314 -10 CURVE SMOOTH",
"548 -10 OFFCURVE",
"671 83 OFFCURVE",
"722 321 CURVE SMOOTH"
);
},
{
closed = 1;
nodes = (
"734 896 LINE",
"576 896 LINE",
"477 788 LINE",
"427 896 LINE",
"278 896 LINE",
"399 688 LINE",
"525 688 LINE"
);
}
);
width = 714;
}
);
leftKerningGroup = O;
note = Ocaron;
rightKerningGroup = O;
unicode = 01D1;
},
{
glyphname = Ocircumflex;
lastChange = "2015-10-24 04:56:43 +0000";
layers = (
{
layerId = "DD5B64A7-4DAF-4BC4-A4CC-81A10E608EA1";
name = "Bold Italic";
paths = (
{
closed = 1;
nodes = (
"290 431 OFFCURVE",
"333 471 OFFCURVE",
"417 471 CURVE SMOOTH",
"484 471 OFFCURVE",
"511 449 OFFCURVE",
"511 391 CURVE SMOOTH",
"511 372 OFFCURVE",
"508 349 OFFCURVE",
"502 321 CURVE SMOOTH",
"479 215 OFFCURVE",
"436 172 OFFCURVE",
"353 172 CURVE SMOOTH",
"286 172 OFFCURVE",
"258 196 OFFCURVE",
"258 253 CURVE SMOOTH",
"258 272 OFFCURVE",
"261 294 OFFCURVE",
"267 321 CURVE SMOOTH"
);
},
{
closed = 1;
nodes = (
"730 357 OFFCURVE",
"733 389 OFFCURVE",
"733 419 CURVE SMOOTH",
"733 580 OFFCURVE",
"626 654 OFFCURVE",
"456 654 CURVE SMOOTH",
"224 654 OFFCURVE",
"100 562 OFFCURVE",
"48 321 CURVE SMOOTH",
"40 285 OFFCURVE",
"37 253 OFFCURVE",
"37 223 CURVE SMOOTH",
"37 60 OFFCURVE",
"148 -10 OFFCURVE",
"314 -10 CURVE SMOOTH",
"548 -10 OFFCURVE",
"671 83 OFFCURVE",
"722 321 CURVE SMOOTH"
);
},
{
closed = 1;
nodes = (
"570 896 LINE",
"443 896 LINE",
"235 688 LINE",
"397 688 LINE",
"492 796 LINE",
"545 688 LINE",
"691 688 LINE"
);
}
);
width = 714;
}
);
leftKerningGroup = O;
note = Ocircumflex;
rightKerningGroup = O;
unicode = 00D4;
},
{
glyphname = Ocircumflexacute;
lastChange = "2015-10-24 04:56:43 +0000";
layers = (
{
layerId = "DD5B64A7-4DAF-4BC4-A4CC-81A10E608EA1";
name = "Bold Italic";
paths = (
{
closed = 1;
nodes = (
"290 431 OFFCURVE",
"333 471 OFFCURVE",
"417 471 CURVE SMOOTH",
"484 471 OFFCURVE",
"511 449 OFFCURVE",
"511 391 CURVE SMOOTH",
"511 372 OFFCURVE",
"508 349 OFFCURVE",
"502 321 CURVE SMOOTH",
"479 215 OFFCURVE",
"436 172 OFFCURVE",
"353 172 CURVE SMOOTH",
"286 172 OFFCURVE",
"258 196 OFFCURVE",
"258 253 CURVE SMOOTH",
"258 272 OFFCURVE",
"261 294 OFFCURVE",
"267 321 CURVE SMOOTH"
);
},
{
closed = 1;
nodes = (
"730 357 OFFCURVE",
"733 389 OFFCURVE",
"733 419 CURVE SMOOTH",
"733 580 OFFCURVE",
"626 654 OFFCURVE",
"456 654 CURVE SMOOTH",
"224 654 OFFCURVE",
"100 562 OFFCURVE",
"48 321 CURVE SMOOTH",
"40 285 OFFCURVE",
"37 253 OFFCURVE",
"37 223 CURVE SMOOTH",
"37 60 OFFCURVE",
"148 -10 OFFCURVE",
"314 -10 CURVE SMOOTH",
"548 -10 OFFCURVE",
"671 83 OFFCURVE",
"722 321 CURVE SMOOTH"
);
},
{
closed = 1;
nodes = (
"573 848 LINE",
"417 848 LINE",
"233 688 LINE",
"409 688 LINE",
"482 765 LINE",
"525 688 LINE",
"688 688 LINE"
);
},
{
closed = 1;
nodes = (
"770 816 LINE",
"885 980 LINE",
"728 980 LINE",
"621 816 LINE"
);
}
);
width = 714;
}
);
leftKerningGroup = O;
note = Ocircumflexacute;
rightKerningGroup = O;
unicode = 1ED0;
},
{
glyphname = Ocircumflexdotbelow;
lastChange = "2015-10-24 04:56:43 +0000";
layers = (
{
layerId = "DD5B64A7-4DAF-4BC4-A4CC-81A10E608EA1";
name = "Bold Italic";
paths = (
{
closed = 1;
nodes = (
"290 431 OFFCURVE",
"333 471 OFFCURVE",
"417 471 CURVE SMOOTH",
"484 471 OFFCURVE",
"511 449 OFFCURVE",
"511 391 CURVE SMOOTH",
"511 372 OFFCURVE",
"508 349 OFFCURVE",
"502 321 CURVE SMOOTH",
"479 215 OFFCURVE",
"436 172 OFFCURVE",
"353 172 CURVE SMOOTH",
"286 172 OFFCURVE",
"258 196 OFFCURVE",
"258 253 CURVE SMOOTH",
"258 272 OFFCURVE",
"261 294 OFFCURVE",
"267 321 CURVE SMOOTH"
);
},
{
closed = 1;
nodes = (
"730 357 OFFCURVE",
"733 389 OFFCURVE",
"733 419 CURVE SMOOTH",
"733 580 OFFCURVE",
"626 654 OFFCURVE",
"456 654 CURVE SMOOTH",
"224 654 OFFCURVE",
"100 562 OFFCURVE",
"48 321 CURVE SMOOTH",
"40 285 OFFCURVE",
"37 253 OFFCURVE",
"37 223 CURVE SMOOTH",
"37 60 OFFCURVE",
"148 -10 OFFCURVE",
"314 -10 CURVE SMOOTH",
"548 -10 OFFCURVE",
"671 83 OFFCURVE",
"722 321 CURVE SMOOTH"
);
},
{
closed = 1;
nodes = (
"570 896 LINE",
"443 896 LINE",
"235 688 LINE",
"397 688 LINE",
"492 796 LINE",
"545 688 LINE",
"691 688 LINE"
);
},
{
closed = 1;
nodes = (
"353 -176 LINE",
"381 -46 LINE",
"238 -46 LINE",
"210 -176 LINE"
);
}
);
width = 714;
}
);
leftKerningGroup = O;
note = Ocircumflexdotbelow;
rightKerningGroup = O;
unicode = 1ED8;
},
{
glyphname = Ocircumflexgrave;
lastChange = "2015-10-24 04:56:43 +0000";
layers = (
{
layerId = "DD5B64A7-4DAF-4BC4-A4CC-81A10E608EA1";
name = "Bold Italic";
paths = (
{
closed = 1;
nodes = (
"290 431 OFFCURVE",
"333 471 OFFCURVE",
"417 471 CURVE SMOOTH",
"484 471 OFFCURVE",
"511 449 OFFCURVE",
"511 391 CURVE SMOOTH",
"511 372 OFFCURVE",
"508 349 OFFCURVE",
"502 321 CURVE SMOOTH",
"479 215 OFFCURVE",
"436 172 OFFCURVE",
"353 172 CURVE SMOOTH",
"286 172 OFFCURVE",
"258 196 OFFCURVE",
"258 253 CURVE SMOOTH",
"258 272 OFFCURVE",
"261 294 OFFCURVE",
"267 321 CURVE SMOOTH"
);
},
{
closed = 1;
nodes = (
"730 357 OFFCURVE",
"733 389 OFFCURVE",
"733 419 CURVE SMOOTH",
"733 580 OFFCURVE",
"626 654 OFFCURVE",
"456 654 CURVE SMOOTH",
"224 654 OFFCURVE",
"100 562 OFFCURVE",
"48 321 CURVE SMOOTH",
"40 285 OFFCURVE",
"37 253 OFFCURVE",
"37 223 CURVE SMOOTH",
"37 60 OFFCURVE",
"148 -10 OFFCURVE",
"314 -10 CURVE SMOOTH",
"548 -10 OFFCURVE",
"671 83 OFFCURVE",
"722 321 CURVE SMOOTH"
);
},
{
closed = 1;
nodes = (
"236 688 LINE",
"409 688 LINE",
"484 765 LINE",
"526 688 LINE",
"692 688 LINE",
"577 848 LINE",
"420 848 LINE"
);
},
{
closed = 1;
nodes = (
"359 816 LINE",
"321 980 LINE",
"163 980 LINE",
"209 816 LINE"
);
}
);
width = 714;
}
);
leftKerningGroup = O;
note = Ocircumflexgrave;
rightKerningGroup = O;
unicode = 1ED2;
},
{
glyphname = Ocircumflexhookabove;
lastChange = "2015-10-24 04:56:43 +0000";
layers = (
{
layerId = "DD5B64A7-4DAF-4BC4-A4CC-81A10E608EA1";
name = "Bold Italic";
paths = (
{
closed = 1;
nodes = (
"290 431 OFFCURVE",
"333 471 OFFCURVE",
"417 471 CURVE SMOOTH",
"484 471 OFFCURVE",
"511 449 OFFCURVE",
"511 391 CURVE SMOOTH",
"511 372 OFFCURVE",
"508 349 OFFCURVE",
"502 321 CURVE SMOOTH",
"479 215 OFFCURVE",
"436 172 OFFCURVE",
"353 172 CURVE SMOOTH",
"286 172 OFFCURVE",
"258 196 OFFCURVE",
"258 253 CURVE SMOOTH",
"258 272 OFFCURVE",
"261 294 OFFCURVE",
"267 321 CURVE SMOOTH"
);
},
{
closed = 1;
nodes = (
"730 357 OFFCURVE",
"733 389 OFFCURVE",
"733 419 CURVE SMOOTH",
"733 580 OFFCURVE",
"626 654 OFFCURVE",
"456 654 CURVE SMOOTH",
"224 654 OFFCURVE",
"100 562 OFFCURVE",
"48 321 CURVE SMOOTH",
"40 285 OFFCURVE",
"37 253 OFFCURVE",
"37 223 CURVE SMOOTH",
"37 60 OFFCURVE",
"148 -10 OFFCURVE",
"314 -10 CURVE SMOOTH",
"548 -10 OFFCURVE",
"671 83 OFFCURVE",
"722 321 CURVE SMOOTH"
);
},
{
closed = 1;
nodes = (
"573 848 LINE",
"416 848 LINE",
"232 688 LINE",
"408 688 LINE",
"482 765 LINE",
"525 688 LINE",
"688 688 LINE"
);
},
{
closed = 1;
nodes = (
"863 918 OFFCURVE",
"864 924 OFFCURVE",
"864 930 CURVE SMOOTH",
"864 972 OFFCURVE",
"829 1001 OFFCURVE",
"757 1001 CURVE SMOOTH",
"712 1001 OFFCURVE",
"674 996 OFFCURVE",
"648 989 CURVE",
"630 907 LINE",
"645 911 OFFCURVE",
"664 915 OFFCURVE",
"681 915 CURVE SMOOTH",
"703 915 OFFCURVE",
"715 912 OFFCURVE",
"715 901 CURVE SMOOTH",
"715 884 OFFCURVE",
"702 871 OFFCURVE",
"642 870 CURVE",
"626 793 LINE",
"766 793 LINE",
"773 825 LINE",
"824 834 OFFCURVE",
"852 866 OFFCURVE",
"862 912 CURVE SMOOTH"
);
}
);
width = 714;
}
);
leftKerningGroup = O;
note = Ocircumflexhookabove;
rightKerningGroup = O;
unicode = 1ED4;
},
{
glyphname = Ocircumflextilde;
lastChange = "2015-10-24 04:56:43 +0000";
layers = (
{
layerId = "DD5B64A7-4DAF-4BC4-A4CC-81A10E608EA1";
name = "Bold Italic";
paths = (
{
closed = 1;
nodes = (
"290 431 OFFCURVE",
"333 471 OFFCURVE",
"417 471 CURVE SMOOTH",
"484 471 OFFCURVE",
"511 449 OFFCURVE",
"511 391 CURVE SMOOTH",
"511 372 OFFCURVE",
"508 349 OFFCURVE",
"502 321 CURVE SMOOTH",
"479 215 OFFCURVE",
"436 172 OFFCURVE",
"353 172 CURVE SMOOTH",
"286 172 OFFCURVE",
"258 196 OFFCURVE",
"258 253 CURVE SMOOTH",
"258 272 OFFCURVE",
"261 294 OFFCURVE",
"267 321 CURVE SMOOTH"
);
},
{
closed = 1;
nodes = (
"730 357 OFFCURVE",
"733 389 OFFCURVE",
"733 419 CURVE SMOOTH",
"733 580 OFFCURVE",
"626 654 OFFCURVE",
"456 654 CURVE SMOOTH",
"224 654 OFFCURVE",
"100 562 OFFCURVE",
"48 321 CURVE SMOOTH",
"40 285 OFFCURVE",
"37 253 OFFCURVE",
"37 223 CURVE SMOOTH",
"37 60 OFFCURVE",
"148 -10 OFFCURVE",
"314 -10 CURVE SMOOTH",
"548 -10 OFFCURVE",
"671 83 OFFCURVE",
"722 321 CURVE SMOOTH"
);
},
{
closed = 1;
nodes = (
"639 889 OFFCURVE",
"676 904 OFFCURVE",
"692 921 CURVE",
"714 1027 LINE",
"694 1004 OFFCURVE",
"659 988 OFFCURVE",
"618 988 CURVE SMOOTH",
"558 988 OFFCURVE",
"515 1029 OFFCURVE",
"450 1029 CURVE SMOOTH",
"412 1029 OFFCURVE",
"373 1015 OFFCURVE",
"352 997 CURVE",
"329 892 LINE",
"357 916 OFFCURVE",
"391 930 OFFCURVE",
"432 930 CURVE SMOOTH",
"486 930 OFFCURVE",
"537 889 OFFCURVE",
"600 889 CURVE SMOOTH"
);
},
{
closed = 1;
nodes = (
"311 868 LINE",
"308 851 OFFCURVE",
"306 836 OFFCURVE",
"306 822 CURVE SMOOTH",
"306 731 OFFCURVE",
"371 688 OFFCURVE",
"463 688 CURVE SMOOTH",
"583 688 OFFCURVE",
"665 743 OFFCURVE",
"691 868 CURVE",
"569 868 LINE",
"561 822 OFFCURVE",
"536 792 OFFCURVE",
"482 792 CURVE SMOOTH",
"441 792 OFFCURVE",
"424 807 OFFCURVE",
"424 838 CURVE SMOOTH",
"424 847 OFFCURVE",
"426 857 OFFCURVE",
"428 868 CURVE"
);
}
);
width = 714;
}
);
leftKerningGroup = O;
note = Ocircumflextilde;
rightKerningGroup = O;
unicode = 1ED6;
},
{
glyphname = Odieresis;
lastChange = "2015-10-24 04:56:43 +0000";
layers = (
{
layerId = "DD5B64A7-4DAF-4BC4-A4CC-81A10E608EA1";
name = "Bold Italic";
paths = (
{
closed = 1;
nodes = (
"290 431 OFFCURVE",
"333 471 OFFCURVE",
"417 471 CURVE SMOOTH",
"484 471 OFFCURVE",
"511 449 OFFCURVE",
"511 391 CURVE SMOOTH",
"511 372 OFFCURVE",
"508 349 OFFCURVE",
"502 321 CURVE SMOOTH",
"479 215 OFFCURVE",
"436 172 OFFCURVE",
"353 172 CURVE SMOOTH",
"286 172 OFFCURVE",
"258 196 OFFCURVE",
"258 253 CURVE SMOOTH",
"258 272 OFFCURVE",
"261 294 OFFCURVE",
"267 321 CURVE SMOOTH"
);
},
{
closed = 1;
nodes = (
"730 357 OFFCURVE",
"733 389 OFFCURVE",
"733 419 CURVE SMOOTH",
"733 580 OFFCURVE",
"626 654 OFFCURVE",
"456 654 CURVE SMOOTH",
"224 654 OFFCURVE",
"100 562 OFFCURVE",
"48 321 CURVE SMOOTH",
"40 285 OFFCURVE",
"37 253 OFFCURVE",
"37 223 CURVE SMOOTH",
"37 60 OFFCURVE",
"148 -10 OFFCURVE",
"314 -10 CURVE SMOOTH",
"548 -10 OFFCURVE",
"671 83 OFFCURVE",
"722 321 CURVE SMOOTH"
);
},
{
closed = 1;
nodes = (
"428 716 LINE",
"455 847 LINE",
"312 847 LINE",
"285 716 LINE"
);
},
{
closed = 1;
nodes = (
"653 716 LINE",
"680 847 LINE",
"537 847 LINE",
"510 716 LINE"
);
}
);
width = 714;
}
);
leftKerningGroup = O;
note = Odieresis;
rightKerningGroup = O;
unicode = 00D6;
},
{
glyphname = Odotbelow;
lastChange = "2015-10-24 04:56:43 +0000";
layers = (
{
layerId = "DD5B64A7-4DAF-4BC4-A4CC-81A10E608EA1";
name = "Bold Italic";
paths = (
{
closed = 1;
nodes = (
"290 431 OFFCURVE",
"333 471 OFFCURVE",
"417 471 CURVE SMOOTH",
"484 471 OFFCURVE",
"511 449 OFFCURVE",
"511 391 CURVE SMOOTH",
"511 372 OFFCURVE",
"508 349 OFFCURVE",
"502 321 CURVE SMOOTH",
"479 215 OFFCURVE",
"436 172 OFFCURVE",
"353 172 CURVE SMOOTH",
"286 172 OFFCURVE",
"258 196 OFFCURVE",
"258 253 CURVE SMOOTH",
"258 272 OFFCURVE",
"261 294 OFFCURVE",
"267 321 CURVE SMOOTH"
);
},
{
closed = 1;
nodes = (
"730 357 OFFCURVE",
"733 389 OFFCURVE",
"733 419 CURVE SMOOTH",
"733 580 OFFCURVE",
"626 654 OFFCURVE",
"456 654 CURVE SMOOTH",
"224 654 OFFCURVE",
"100 562 OFFCURVE",
"48 321 CURVE SMOOTH",
"40 285 OFFCURVE",
"37 253 OFFCURVE",
"37 223 CURVE SMOOTH",
"37 60 OFFCURVE",
"148 -10 OFFCURVE",
"314 -10 CURVE SMOOTH",
"548 -10 OFFCURVE",
"671 83 OFFCURVE",
"722 321 CURVE SMOOTH"
);
},
{
closed = 1;
nodes = (
"352 -176 LINE",
"380 -46 LINE",
"237 -46 LINE",
"209 -176 LINE"
);
}
);
width = 714;
}
);
leftKerningGroup = O;
note = Odotbelow;
rightKerningGroup = O;
unicode = 1ECC;
},
{
glyphname = Ograve;
lastChange = "2015-10-24 04:56:44 +0000";
layers = (
{
layerId = "DD5B64A7-4DAF-4BC4-A4CC-81A10E608EA1";
name = "Bold Italic";
paths = (
{
closed = 1;
nodes = (
"290 431 OFFCURVE",
"333 471 OFFCURVE",
"417 471 CURVE SMOOTH",
"484 471 OFFCURVE",
"511 449 OFFCURVE",
"511 391 CURVE SMOOTH",
"511 372 OFFCURVE",
"508 349 OFFCURVE",
"502 321 CURVE SMOOTH",
"479 215 OFFCURVE",
"436 172 OFFCURVE",
"353 172 CURVE SMOOTH",
"286 172 OFFCURVE",
"258 196 OFFCURVE",
"258 253 CURVE SMOOTH",
"258 272 OFFCURVE",
"261 294 OFFCURVE",
"267 321 CURVE SMOOTH"
);
},
{
closed = 1;
nodes = (
"730 357 OFFCURVE",
"733 389 OFFCURVE",
"733 419 CURVE SMOOTH",
"733 580 OFFCURVE",
"626 654 OFFCURVE",
"456 654 CURVE SMOOTH",
"224 654 OFFCURVE",
"100 562 OFFCURVE",
"48 321 CURVE SMOOTH",
"40 285 OFFCURVE",
"37 253 OFFCURVE",
"37 223 CURVE SMOOTH",
"37 60 OFFCURVE",
"148 -10 OFFCURVE",
"314 -10 CURVE SMOOTH",
"548 -10 OFFCURVE",
"671 83 OFFCURVE",
"722 321 CURVE SMOOTH"
);
},
{
closed = 1;
nodes = (
"547 688 LINE",
"501 904 LINE",
"334 904 LINE",
"389 688 LINE"
);
}
);
width = 714;
}
);
leftKerningGroup = O;
note = Ograve;
rightKerningGroup = O;
unicode = 00D2;
},
{
glyphname = Ohookabove;
lastChange = "2015-10-24 04:56:43 +0000";
layers = (
{
layerId = "DD5B64A7-4DAF-4BC4-A4CC-81A10E608EA1";
name = "Bold Italic";
paths = (
{
closed = 1;
nodes = (
"290 431 OFFCURVE",
"333 471 OFFCURVE",
"417 471 CURVE SMOOTH",
"484 471 OFFCURVE",
"511 449 OFFCURVE",
"511 391 CURVE SMOOTH",
"511 372 OFFCURVE",
"508 349 OFFCURVE",
"502 321 CURVE SMOOTH",
"479 215 OFFCURVE",
"436 172 OFFCURVE",
"353 172 CURVE SMOOTH",
"286 172 OFFCURVE",
"258 196 OFFCURVE",
"258 253 CURVE SMOOTH",
"258 272 OFFCURVE",
"261 294 OFFCURVE",
"267 321 CURVE SMOOTH"
);
},
{
closed = 1;
nodes = (
"730 357 OFFCURVE",
"733 389 OFFCURVE",
"733 419 CURVE SMOOTH",
"733 580 OFFCURVE",
"626 654 OFFCURVE",
"456 654 CURVE SMOOTH",
"224 654 OFFCURVE",
"100 562 OFFCURVE",
"48 321 CURVE SMOOTH",
"40 285 OFFCURVE",
"37 253 OFFCURVE",
"37 223 CURVE SMOOTH",
"37 60 OFFCURVE",
"148 -10 OFFCURVE",
"314 -10 CURVE SMOOTH",
"548 -10 OFFCURVE",
"671 83 OFFCURVE",
"722 321 CURVE SMOOTH"
);
},
{
closed = 1;
nodes = (
"652 835 OFFCURVE",
"652 842 OFFCURVE",
"652 848 CURVE SMOOTH",
"652 898 OFFCURVE",
"609 932 OFFCURVE",
"526 932 CURVE SMOOTH",
"473 932 OFFCURVE",
"432 927 OFFCURVE",
"400 918 CURVE",
"382 832 LINE",
"399 837 OFFCURVE",
"422 841 OFFCURVE",
"442 841 CURVE SMOOTH",
"474 841 OFFCURVE",
"491 834 OFFCURVE",
"491 817 CURVE SMOOTH",
"491 791 OFFCURVE",
"469 773 OFFCURVE",
"394 769 CURVE",
"377 688 LINE",
"537 688 LINE",
"545 726 LINE",
"605 743 OFFCURVE",
"637 769 OFFCURVE",
"650 828 CURVE SMOOTH"
);
}
);
width = 714;
}
);
leftKerningGroup = O;
note = Ohookabove;
rightKerningGroup = O;
unicode = 1ECE;
},
{
glyphname = Ohorn;
lastChange = "2015-10-24 04:56:43 +0000";
layers = (
{
layerId = "DD5B64A7-4DAF-4BC4-A4CC-81A10E608EA1";
name = "Bold Italic";
paths = (
{
closed = 1;
nodes = (
"729 356 OFFCURVE",
"733 387 OFFCURVE",
"733 417 CURVE SMOOTH",
"733 439 OFFCURVE",
"731 459 OFFCURVE",
"727 478 CURVE",
"822 500 OFFCURVE",
"873 559 OFFCURVE",
"901 688 CURVE",
"768 688 LINE",
"753 618 OFFCURVE",
"726 593 OFFCURVE",
"666 590 CURVE",
"617 633 OFFCURVE",
"545 654 OFFCURVE",
"456 654 CURVE SMOOTH",
"224 654 OFFCURVE",
"100 562 OFFCURVE",
"48 321 CURVE SMOOTH",
"40 285 OFFCURVE",
"37 253 OFFCURVE",
"37 223 CURVE SMOOTH",
"37 60 OFFCURVE",
"148 -10 OFFCURVE",
"314 -10 CURVE SMOOTH",
"548 -10 OFFCURVE",
"671 83 OFFCURVE",
"722 321 CURVE SMOOTH"
);
},
{
closed = 1;
nodes = (
"290 431 OFFCURVE",
"333 471 OFFCURVE",
"417 471 CURVE SMOOTH",
"484 471 OFFCURVE",
"511 449 OFFCURVE",
"511 391 CURVE SMOOTH",
"511 372 OFFCURVE",
"508 349 OFFCURVE",
"502 321 CURVE SMOOTH",
"479 215 OFFCURVE",
"436 172 OFFCURVE",
"353 172 CURVE SMOOTH",
"286 172 OFFCURVE",
"258 196 OFFCURVE",
"258 253 CURVE SMOOTH",
"258 272 OFFCURVE",
"261 294 OFFCURVE",
"267 321 CURVE SMOOTH"
);
}
);
width = 805;
}
);
leftKerningGroup = O;
note = Ohorn;
rightKerningGroup = O;
unicode = 01A0;
},
{
glyphname = Ohornacute;
lastChange = "2015-10-24 04:56:43 +0000";
layers = (
{
layerId = "DD5B64A7-4DAF-4BC4-A4CC-81A10E608EA1";
name = "Bold Italic";
paths = (
{
closed = 1;
nodes = (
"729 356 OFFCURVE",
"733 387 OFFCURVE",
"733 417 CURVE SMOOTH",
"733 439 OFFCURVE",
"731 459 OFFCURVE",
"727 478 CURVE",
"822 500 OFFCURVE",
"873 559 OFFCURVE",
"901 688 CURVE",
"768 688 LINE",
"753 618 OFFCURVE",
"726 593 OFFCURVE",
"666 590 CURVE",
"617 633 OFFCURVE",
"545 654 OFFCURVE",
"456 654 CURVE SMOOTH",
"224 654 OFFCURVE",
"100 562 OFFCURVE",
"48 321 CURVE SMOOTH",
"40 285 OFFCURVE",
"37 253 OFFCURVE",
"37 223 CURVE SMOOTH",
"37 60 OFFCURVE",
"148 -10 OFFCURVE",
"314 -10 CURVE SMOOTH",
"548 -10 OFFCURVE",
"671 83 OFFCURVE",
"722 321 CURVE SMOOTH"
);
},
{
closed = 1;
nodes = (
"290 431 OFFCURVE",
"333 471 OFFCURVE",
"417 471 CURVE SMOOTH",
"484 471 OFFCURVE",
"511 449 OFFCURVE",
"511 391 CURVE SMOOTH",
"511 372 OFFCURVE",
"508 349 OFFCURVE",
"502 321 CURVE SMOOTH",
"479 215 OFFCURVE",
"436 172 OFFCURVE",
"353 172 CURVE SMOOTH",
"286 172 OFFCURVE",
"258 196 OFFCURVE",
"258 253 CURVE SMOOTH",
"258 272 OFFCURVE",
"261 294 OFFCURVE",
"267 321 CURVE SMOOTH"
);
},
{
closed = 1;
nodes = (
"541 688 LINE",
"688 904 LINE",
"522 904 LINE",
"384 688 LINE"
);
}
);
width = 805;
}
);
leftKerningGroup = O;
note = Ohornacute;
rightKerningGroup = O;
unicode = 1EDA;
},
{
glyphname = Ohorndotbelow;
lastChange = "2015-10-24 04:56:44 +0000";
layers = (
{
layerId = "DD5B64A7-4DAF-4BC4-A4CC-81A10E608EA1";
name = "Bold Italic";
paths = (
{
closed = 1;
nodes = (
"729 356 OFFCURVE",
"733 387 OFFCURVE",
"733 417 CURVE SMOOTH",
"733 439 OFFCURVE",
"731 459 OFFCURVE",
"727 478 CURVE",
"822 500 OFFCURVE",
"873 559 OFFCURVE",
"901 688 CURVE",
"768 688 LINE",
"753 618 OFFCURVE",
"726 593 OFFCURVE",
"666 590 CURVE",
"617 633 OFFCURVE",
"545 654 OFFCURVE",
"456 654 CURVE SMOOTH",
"224 654 OFFCURVE",
"100 562 OFFCURVE",
"48 321 CURVE SMOOTH",
"40 285 OFFCURVE",
"37 253 OFFCURVE",
"37 223 CURVE SMOOTH",
"37 60 OFFCURVE",
"148 -10 OFFCURVE",
"314 -10 CURVE SMOOTH",
"548 -10 OFFCURVE",
"671 83 OFFCURVE",
"722 321 CURVE SMOOTH"
);
},
{
closed = 1;
nodes = (
"290 431 OFFCURVE",
"333 471 OFFCURVE",
"417 471 CURVE SMOOTH",
"484 471 OFFCURVE",
"511 449 OFFCURVE",
"511 391 CURVE SMOOTH",
"511 372 OFFCURVE",
"508 349 OFFCURVE",
"502 321 CURVE SMOOTH",
"479 215 OFFCURVE",
"436 172 OFFCURVE",
"353 172 CURVE SMOOTH",
"286 172 OFFCURVE",
"258 196 OFFCURVE",
"258 253 CURVE SMOOTH",
"258 272 OFFCURVE",
"261 294 OFFCURVE",
"267 321 CURVE SMOOTH"
);
},
{
closed = 1;
nodes = (
"351 -176 LINE",
"379 -46 LINE",
"236 -46 LINE",
"208 -176 LINE"
);
}
);
width = 805;
}
);
leftKerningGroup = O;
note = Ohorndotbelow;
rightKerningGroup = O;
unicode = 1EE2;
},
{
glyphname = Ohorngrave;
lastChange = "2015-10-24 04:56:43 +0000";
layers = (
{
layerId = "DD5B64A7-4DAF-4BC4-A4CC-81A10E608EA1";
name = "Bold Italic";
paths = (
{
closed = 1;
nodes = (
"729 356 OFFCURVE",
"733 387 OFFCURVE",
"733 417 CURVE SMOOTH",
"733 439 OFFCURVE",
"731 459 OFFCURVE",
"727 478 CURVE",
"822 500 OFFCURVE",
"873 559 OFFCURVE",
"901 688 CURVE",
"768 688 LINE",
"753 618 OFFCURVE",
"726 593 OFFCURVE",
"666 590 CURVE",
"617 633 OFFCURVE",
"545 654 OFFCURVE",
"456 654 CURVE SMOOTH",
"224 654 OFFCURVE",
"100 562 OFFCURVE",
"48 321 CURVE SMOOTH",
"40 285 OFFCURVE",
"37 253 OFFCURVE",
"37 223 CURVE SMOOTH",
"37 60 OFFCURVE",
"148 -10 OFFCURVE",
"314 -10 CURVE SMOOTH",
"548 -10 OFFCURVE",
"671 83 OFFCURVE",
"722 321 CURVE SMOOTH"
);
},
{
closed = 1;
nodes = (
"290 431 OFFCURVE",
"333 471 OFFCURVE",
"417 471 CURVE SMOOTH",
"484 471 OFFCURVE",
"511 449 OFFCURVE",
"511 391 CURVE SMOOTH",
"511 372 OFFCURVE",
"508 349 OFFCURVE",
"502 321 CURVE SMOOTH",
"479 215 OFFCURVE",
"436 172 OFFCURVE",
"353 172 CURVE SMOOTH",
"286 172 OFFCURVE",
"258 196 OFFCURVE",
"258 253 CURVE SMOOTH",
"258 272 OFFCURVE",
"261 294 OFFCURVE",
"267 321 CURVE SMOOTH"
);
},
{
closed = 1;
nodes = (
"555 688 LINE",
"509 904 LINE",
"342 904 LINE",
"397 688 LINE"
);
}
);
width = 805;
}
);
leftKerningGroup = O;
note = Ohorngrave;
rightKerningGroup = O;
unicode = 1EDC;
},
{
glyphname = Ohornhookabove;
lastChange = "2015-10-24 04:56:43 +0000";
layers = (
{
layerId = "DD5B64A7-4DAF-4BC4-A4CC-81A10E608EA1";
name = "Bold Italic";
paths = (
{
closed = 1;
nodes = (
"729 356 OFFCURVE",
"733 387 OFFCURVE",
"733 417 CURVE SMOOTH",
"733 439 OFFCURVE",
"731 459 OFFCURVE",
"727 478 CURVE",
"822 500 OFFCURVE",
"873 559 OFFCURVE",
"901 688 CURVE",
"768 688 LINE",
"753 618 OFFCURVE",
"726 593 OFFCURVE",
"666 590 CURVE",
"617 633 OFFCURVE",
"545 654 OFFCURVE",
"456 654 CURVE SMOOTH",
"224 654 OFFCURVE",
"100 562 OFFCURVE",
"48 321 CURVE SMOOTH",
"40 285 OFFCURVE",
"37 253 OFFCURVE",
"37 223 CURVE SMOOTH",
"37 60 OFFCURVE",
"148 -10 OFFCURVE",
"314 -10 CURVE SMOOTH",
"548 -10 OFFCURVE",
"671 83 OFFCURVE",
"722 321 CURVE SMOOTH"
);
},
{
closed = 1;
nodes = (
"290 431 OFFCURVE",
"333 471 OFFCURVE",
"417 471 CURVE SMOOTH",
"484 471 OFFCURVE",
"511 449 OFFCURVE",
"511 391 CURVE SMOOTH",
"511 372 OFFCURVE",
"508 349 OFFCURVE",
"502 321 CURVE SMOOTH",
"479 215 OFFCURVE",
"436 172 OFFCURVE",
"353 172 CURVE SMOOTH",
"286 172 OFFCURVE",
"258 196 OFFCURVE",
"258 253 CURVE SMOOTH",
"258 272 OFFCURVE",
"261 294 OFFCURVE",
"267 321 CURVE SMOOTH"
);
},
{
closed = 1;
nodes = (
"654 835 OFFCURVE",
"654 842 OFFCURVE",
"654 848 CURVE SMOOTH",
"654 898 OFFCURVE",
"611 932 OFFCURVE",
"528 932 CURVE SMOOTH",
"475 932 OFFCURVE",
"434 927 OFFCURVE",
"402 918 CURVE",
"384 832 LINE",
"401 837 OFFCURVE",
"424 841 OFFCURVE",
"444 841 CURVE SMOOTH",
"476 841 OFFCURVE",
"493 834 OFFCURVE",
"493 817 CURVE SMOOTH",
"493 791 OFFCURVE",
"471 773 OFFCURVE",
"396 769 CURVE",
"379 688 LINE",
"539 688 LINE",
"547 726 LINE",
"607 743 OFFCURVE",
"639 769 OFFCURVE",
"652 828 CURVE SMOOTH"
);
}
);
width = 805;
}
);
leftKerningGroup = O;
note = Ohornhookabove;
rightKerningGroup = O;
unicode = 1EDE;
},
{
glyphname = Ohorntilde;
lastChange = "2015-10-24 04:56:43 +0000";
layers = (
{
layerId = "DD5B64A7-4DAF-4BC4-A4CC-81A10E608EA1";
name = "Bold Italic";
paths = (
{
closed = 1;
nodes = (
"729 356 OFFCURVE",
"733 387 OFFCURVE",
"733 417 CURVE SMOOTH",
"733 439 OFFCURVE",
"731 459 OFFCURVE",
"727 478 CURVE",
"822 500 OFFCURVE",
"873 559 OFFCURVE",
"901 688 CURVE",
"768 688 LINE",
"753 618 OFFCURVE",
"726 593 OFFCURVE",
"666 590 CURVE",
"617 633 OFFCURVE",
"545 654 OFFCURVE",
"456 654 CURVE SMOOTH",
"224 654 OFFCURVE",
"100 562 OFFCURVE",
"48 321 CURVE SMOOTH",
"40 285 OFFCURVE",
"37 253 OFFCURVE",
"37 223 CURVE SMOOTH",
"37 60 OFFCURVE",
"148 -10 OFFCURVE",
"314 -10 CURVE SMOOTH",
"548 -10 OFFCURVE",
"671 83 OFFCURVE",
"722 321 CURVE SMOOTH"
);
},
{
closed = 1;
nodes = (
"290 431 OFFCURVE",
"333 471 OFFCURVE",
"417 471 CURVE SMOOTH",
"484 471 OFFCURVE",
"511 449 OFFCURVE",
"511 391 CURVE SMOOTH",
"511 372 OFFCURVE",
"508 349 OFFCURVE",
"502 321 CURVE SMOOTH",
"479 215 OFFCURVE",
"436 172 OFFCURVE",
"353 172 CURVE SMOOTH",
"286 172 OFFCURVE",
"258 196 OFFCURVE",
"258 253 CURVE SMOOTH",
"258 272 OFFCURVE",
"261 294 OFFCURVE",
"267 321 CURVE SMOOTH"
);
},
{
closed = 1;
nodes = (
"607 690 OFFCURVE",
"647 706 OFFCURVE",
"664 724 CURVE",
"692 854 LINE",
"671 831 OFFCURVE",
"633 813 OFFCURVE",
"589 813 CURVE SMOOTH",
"523 813 OFFCURVE",
"477 856 OFFCURVE",
"407 856 CURVE SMOOTH",
"367 856 OFFCURVE",
"325 840 OFFCURVE",
"302 822 CURVE",
"274 693 LINE",
"304 717 OFFCURVE",
"340 733 OFFCURVE",
"384 733 CURVE SMOOTH",
"442 733 OFFCURVE",
"497 690 OFFCURVE",
"566 690 CURVE SMOOTH"
);
}
);
width = 805;
}
);
leftKerningGroup = O;
note = Ohorntilde;
rightKerningGroup = O;
unicode = 1EE0;
},
{
glyphname = Ohungarumlaut;
lastChange = "2015-10-24 04:56:43 +0000";
layers = (
{
layerId = "DD5B64A7-4DAF-4BC4-A4CC-81A10E608EA1";
name = "Bold Italic";
paths = (
{
closed = 1;
nodes = (
"290 431 OFFCURVE",
"333 471 OFFCURVE",
"417 471 CURVE SMOOTH",
"484 471 OFFCURVE",
"511 449 OFFCURVE",
"511 391 CURVE SMOOTH",
"511 372 OFFCURVE",
"508 349 OFFCURVE",
"502 321 CURVE SMOOTH",
"479 215 OFFCURVE",
"436 172 OFFCURVE",
"353 172 CURVE SMOOTH",
"286 172 OFFCURVE",
"258 196 OFFCURVE",
"258 253 CURVE SMOOTH",
"258 272 OFFCURVE",
"261 294 OFFCURVE",
"267 321 CURVE SMOOTH"
);
},
{
closed = 1;
nodes = (
"730 357 OFFCURVE",
"733 389 OFFCURVE",
"733 419 CURVE SMOOTH",
"733 580 OFFCURVE",
"626 654 OFFCURVE",
"456 654 CURVE SMOOTH",
"224 654 OFFCURVE",
"100 562 OFFCURVE",
"48 321 CURVE SMOOTH",
"40 285 OFFCURVE",
"37 253 OFFCURVE",
"37 223 CURVE SMOOTH",
"37 60 OFFCURVE",
"148 -10 OFFCURVE",
"314 -10 CURVE SMOOTH",
"548 -10 OFFCURVE",
"671 83 OFFCURVE",
"722 321 CURVE SMOOTH"
);
},
{
closed = 1;
nodes = (
"386 688 LINE",
"534 882 LINE",
"353 882 LINE",
"222 688 LINE"
);
},
{
closed = 1;
nodes = (
"637 688 LINE",
"786 882 LINE",
"604 882 LINE",
"473 688 LINE"
);
}
);
width = 714;
}
);
leftKerningGroup = O;
note = Ohungarumlaut;
rightKerningGroup = O;
unicode = 0150;
},
{
glyphname = Omacron;
lastChange = "2015-10-24 04:56:43 +0000";
layers = (
{
layerId = "DD5B64A7-4DAF-4BC4-A4CC-81A10E608EA1";
name = "Bold Italic";
paths = (
{
closed = 1;
nodes = (
"290 431 OFFCURVE",
"333 471 OFFCURVE",
"417 471 CURVE SMOOTH",
"484 471 OFFCURVE",
"511 449 OFFCURVE",
"511 391 CURVE SMOOTH",
"511 372 OFFCURVE",
"508 349 OFFCURVE",
"502 321 CURVE SMOOTH",
"479 215 OFFCURVE",
"436 172 OFFCURVE",
"353 172 CURVE SMOOTH",
"286 172 OFFCURVE",
"258 196 OFFCURVE",
"258 253 CURVE SMOOTH",
"258 272 OFFCURVE",
"261 294 OFFCURVE",
"267 321 CURVE SMOOTH"
);
},
{
closed = 1;
nodes = (
"730 357 OFFCURVE",
"733 389 OFFCURVE",
"733 419 CURVE SMOOTH",
"733 580 OFFCURVE",
"626 654 OFFCURVE",
"456 654 CURVE SMOOTH",
"224 654 OFFCURVE",
"100 562 OFFCURVE",
"48 321 CURVE SMOOTH",
"40 285 OFFCURVE",
"37 253 OFFCURVE",
"37 223 CURVE SMOOTH",
"37 60 OFFCURVE",
"148 -10 OFFCURVE",
"314 -10 CURVE SMOOTH",
"548 -10 OFFCURVE",
"671 83 OFFCURVE",
"722 321 CURVE SMOOTH"
);
},
{
closed = 1;
nodes = (
"324 852 LINE",
"297 726 LINE",
"635 726 LINE",
"662 852 LINE"
);
}
);
width = 714;
}
);
leftKerningGroup = O;
note = Omacron;
rightKerningGroup = O;
unicode = 014C;
},
{
glyphname = Oslash;
lastChange = "2015-10-24 04:56:43 +0000";
layers = (
{
layerId = "DD5B64A7-4DAF-4BC4-A4CC-81A10E608EA1";
name = "Bold Italic";
paths = (
{
closed = 1;
nodes = (
"197 -53 LINE",
"228 -3 LINE",
"254 -8 OFFCURVE",
"283 -10 OFFCURVE",
"314 -10 CURVE SMOOTH",
"548 -10 OFFCURVE",
"671 83 OFFCURVE",
"722 321 CURVE SMOOTH",
"730 357 OFFCURVE",
"733 389 OFFCURVE",
"733 419 CURVE SMOOTH",
"733 522 OFFCURVE",
"689 589 OFFCURVE",
"613 624 CURVE",
"655 693 LINE",
"565 693 LINE",
"537 647 LINE",
"512 652 OFFCURVE",
"485 654 OFFCURVE",
"456 654 CURVE SMOOTH",
"224 654 OFFCURVE",
"100 562 OFFCURVE",
"48 321 CURVE SMOOTH",
"40 285 OFFCURVE",
"37 252 OFFCURVE",
"37 222 CURVE SMOOTH",
"37 121 OFFCURVE",
"79 56 OFFCURVE",
"152 21 CURVE",
"107 -53 LINE"
);
},
{
closed = 1;
nodes = (
"479 215 OFFCURVE",
"436 172 OFFCURVE",
"353 172 CURVE SMOOTH",
"335 172 LINE",
"500 440 LINE",
"507 428 OFFCURVE",
"511 411 OFFCURVE",
"511 391 CURVE SMOOTH",
"511 371 OFFCURVE",
"508 348 OFFCURVE",
"502 321 CURVE SMOOTH"
);
},
{
closed = 1;
nodes = (
"290 431 OFFCURVE",
"333 471 OFFCURVE",
"417 471 CURVE SMOOTH",
"428 471 LINE",
"267 208 LINE",
"261 220 OFFCURVE",
"258 234 OFFCURVE",
"258 253 CURVE SMOOTH",
"258 271 OFFCURVE",
"261 294 OFFCURVE",
"267 321 CURVE SMOOTH"
);
}
);
width = 714;
}
);
leftKerningGroup = O;
note = Oslash;
rightKerningGroup = O;
unicode = 00D8;
},
{
glyphname = Oslashacute;
lastChange = "2015-10-24 04:56:44 +0000";
layers = (
{
layerId = "DD5B64A7-4DAF-4BC4-A4CC-81A10E608EA1";
name = "Bold Italic";
paths = (
{
closed = 1;
nodes = (
"197 -53 LINE",
"228 -3 LINE",
"254 -8 OFFCURVE",
"283 -10 OFFCURVE",
"314 -10 CURVE SMOOTH",
"548 -10 OFFCURVE",
"671 83 OFFCURVE",
"722 321 CURVE SMOOTH",
"730 357 OFFCURVE",
"733 389 OFFCURVE",
"733 419 CURVE SMOOTH",
"733 522 OFFCURVE",
"689 589 OFFCURVE",
"613 624 CURVE",
"655 693 LINE",
"565 693 LINE",
"537 647 LINE",
"512 652 OFFCURVE",
"485 654 OFFCURVE",
"456 654 CURVE SMOOTH",
"224 654 OFFCURVE",
"100 562 OFFCURVE",
"48 321 CURVE SMOOTH",
"40 285 OFFCURVE",
"37 252 OFFCURVE",
"37 222 CURVE SMOOTH",
"37 121 OFFCURVE",
"79 56 OFFCURVE",
"152 21 CURVE",
"107 -53 LINE"
);
},
{
closed = 1;
nodes = (
"479 215 OFFCURVE",
"436 172 OFFCURVE",
"353 172 CURVE SMOOTH",
"335 172 LINE",
"500 440 LINE",
"507 428 OFFCURVE",
"511 411 OFFCURVE",
"511 391 CURVE SMOOTH",
"511 371 OFFCURVE",
"508 348 OFFCURVE",
"502 321 CURVE SMOOTH"
);
},
{
closed = 1;
nodes = (
"290 431 OFFCURVE",
"333 471 OFFCURVE",
"417 471 CURVE SMOOTH",
"428 471 LINE",
"267 208 LINE",
"261 220 OFFCURVE",
"258 234 OFFCURVE",
"258 253 CURVE SMOOTH",
"258 271 OFFCURVE",
"261 294 OFFCURVE",
"267 321 CURVE SMOOTH"
);
},
{
closed = 1;
nodes = (
"515 688 LINE",
"662 904 LINE",
"496 904 LINE",
"358 688 LINE"
);
}
);
width = 714;
}
);
leftKerningGroup = O;
note = Oslashacute;
rightKerningGroup = O;
unicode = 01FE;
},
{
glyphname = Otilde;
lastChange = "2015-10-24 04:56:43 +0000";
layers = (
{
layerId = "DD5B64A7-4DAF-4BC4-A4CC-81A10E608EA1";
name = "Bold Italic";
paths = (
{
closed = 1;
nodes = (
"290 431 OFFCURVE",
"333 471 OFFCURVE",
"417 471 CURVE SMOOTH",
"484 471 OFFCURVE",
"511 449 OFFCURVE",
"511 391 CURVE SMOOTH",
"511 372 OFFCURVE",
"508 349 OFFCURVE",
"502 321 CURVE SMOOTH",
"479 215 OFFCURVE",
"436 172 OFFCURVE",
"353 172 CURVE SMOOTH",
"286 172 OFFCURVE",
"258 196 OFFCURVE",
"258 253 CURVE SMOOTH",
"258 272 OFFCURVE",
"261 294 OFFCURVE",
"267 321 CURVE SMOOTH"
);
},
{
closed = 1;
nodes = (
"730 357 OFFCURVE",
"733 389 OFFCURVE",
"733 419 CURVE SMOOTH",
"733 580 OFFCURVE",
"626 654 OFFCURVE",
"456 654 CURVE SMOOTH",
"224 654 OFFCURVE",
"100 562 OFFCURVE",
"48 321 CURVE SMOOTH",
"40 285 OFFCURVE",
"37 253 OFFCURVE",
"37 223 CURVE SMOOTH",
"37 60 OFFCURVE",
"148 -10 OFFCURVE",
"314 -10 CURVE SMOOTH",
"548 -10 OFFCURVE",
"671 83 OFFCURVE",
"722 321 CURVE SMOOTH"
);
},
{
closed = 1;
nodes = (
"610 712 OFFCURVE",
"650 728 OFFCURVE",
"667 746 CURVE",
"695 876 LINE",
"674 853 OFFCURVE",
"636 835 OFFCURVE",
"592 835 CURVE SMOOTH",
"526 835 OFFCURVE",
"480 878 OFFCURVE",
"410 878 CURVE SMOOTH",
"370 878 OFFCURVE",
"328 862 OFFCURVE",
"305 844 CURVE",
"277 715 LINE",
"307 739 OFFCURVE",
"343 755 OFFCURVE",
"387 755 CURVE SMOOTH",
"445 755 OFFCURVE",
"500 712 OFFCURVE",
"569 712 CURVE SMOOTH"
);
}
);
width = 714;
}
);
leftKerningGroup = O;
note = Otilde;
rightKerningGroup = O;
unicode = 00D5;
},
{
glyphname = OE;
lastChange = "2015-10-24 04:56:43 +0000";
layers = (
{
layerId = "DD5B64A7-4DAF-4BC4-A4CC-81A10E608EA1";
name = "Bold Italic";
paths = (
{
closed = 1;
nodes = (
"292 431 OFFCURVE",
"335 471 OFFCURVE",
"419 471 CURVE SMOOTH",
"486 471 OFFCURVE",
"513 449 OFFCURVE",
"513 391 CURVE SMOOTH",
"513 372 OFFCURVE",
"510 349 OFFCURVE",
"504 321 CURVE SMOOTH",
"481 215 OFFCURVE",
"438 172 OFFCURVE",
"355 172 CURVE SMOOTH",
"288 172 OFFCURVE",
"260 196 OFFCURVE",
"260 253 CURVE SMOOTH",
"260 272 OFFCURVE",
"263 294 OFFCURVE",
"269 321 CURVE SMOOTH"
);
},
{
closed = 1;
nodes = (
"937 0 LINE",
"970 159 LINE",
"684 159 LINE",
"702 240 LINE",
"951 240 LINE",
"985 403 LINE",
"736 403 LINE",
"754 485 LINE",
"1040 485 LINE",
"1073 644 LINE",
"572 644 LINE",
"537 649 OFFCURVE",
"499 654 OFFCURVE",
"458 654 CURVE SMOOTH",
"226 654 OFFCURVE",
"102 562 OFFCURVE",
"50 321 CURVE SMOOTH",
"42 285 OFFCURVE",
"39 253 OFFCURVE",
"39 223 CURVE SMOOTH",
"39 60 OFFCURVE",
"150 -10 OFFCURVE",
"316 -10 CURVE SMOOTH",
"360 -10 OFFCURVE",
"399 -7 OFFCURVE",
"436 0 CURVE"
);
}
);
width = 997;
}
);
leftKerningGroup = C;
note = OE;
unicode = 0152;
},
{
glyphname = P;
lastChange = "2015-10-24 04:56:43 +0000";
layers = (
{
layerId = "DD5B64A7-4DAF-4BC4-A4CC-81A10E608EA1";
name = "Bold Italic";
paths = (
{
closed = 1;
nodes = (
"674 419 OFFCURVE",
"676 437 OFFCURVE",
"676 455 CURVE SMOOTH",
"676 563 OFFCURVE",
"608 644 OFFCURVE",
"471 644 CURVE SMOOTH",
"136 644 LINE",
"0 0 LINE",
"215 0 LINE",
"248 158 LINE",
"376 158 LINE SMOOTH",
"545 158 OFFCURVE",
"641 250 OFFCURVE",
"670 400 CURVE SMOOTH"
);
},
{
closed = 1;
nodes = (
"284 325 LINE",
"316 477 LINE",
"398 477 LINE SMOOTH",
"438 477 OFFCURVE",
"454 459 OFFCURVE",
"454 428 CURVE SMOOTH",
"454 419 OFFCURVE",
"453 410 OFFCURVE",
"451 400 CURVE SMOOTH",
"441 355 OFFCURVE",
"419 325 OFFCURVE",
"362 325 CURVE SMOOTH"
);
}
);
width = 625;
}
);
note = P;
unicode = 0050;
},
{
glyphname = Thorn;
lastChange = "2015-10-24 04:56:43 +0000";
layers = (
{
layerId = "DD5B64A7-4DAF-4BC4-A4CC-81A10E608EA1";
name = "Bold Italic";
paths = (
{
closed = 1;
nodes = (
"657 343 OFFCURVE",
"660 364 OFFCURVE",
"660 384 CURVE SMOOTH",
"660 492 OFFCURVE",
"593 562 OFFCURVE",
"466 562 CURVE SMOOTH",
"334 562 LINE",
"351 644 LINE",
"136 644 LINE",
"0 0 LINE",
"215 0 LINE",
"232 81 LINE",
"360 81 LINE SMOOTH",
"527 81 OFFCURVE",
"625 182 OFFCURVE",
"653 321 CURVE SMOOTH"
);
},
{
closed = 1;
nodes = (
"267 247 LINE",
"299 396 LINE",
"381 396 LINE SMOOTH",
"421 396 OFFCURVE",
"437 379 OFFCURVE",
"437 348 CURVE SMOOTH",
"437 340 OFFCURVE",
"436 331 OFFCURVE",
"434 321 CURVE SMOOTH",
"424 276 OFFCURVE",
"401 247 OFFCURVE",
"345 247 CURVE SMOOTH"
);
}
);
width = 645;
}
);
note = Thorn;
unicode = 00DE;
},
{
glyphname = Q;
lastChange = "2015-10-24 05:07:35 +0000";
layers = (
{
layerId = "DD5B64A7-4DAF-4BC4-A4CC-81A10E608EA1";
name = "Bold Italic";
paths = (
{
closed = 1;
nodes = (
"730 357 OFFCURVE",
"733 389 OFFCURVE",
"733 419 CURVE SMOOTH",
"733 580 OFFCURVE",
"626 654 OFFCURVE",
"456 654 CURVE SMOOTH",
"224 654 OFFCURVE",
"100 562 OFFCURVE",
"48 321 CURVE SMOOTH",
"40 285 OFFCURVE",
"36 252 OFFCURVE",
"36 222 CURVE SMOOTH",
"36 89 OFFCURVE",
"111 18 OFFCURVE",
"229 -3 CURVE",
"227 -17 OFFCURVE",
"225 -30 OFFCURVE",
"225 -42 CURVE SMOOTH",
"225 -125 OFFCURVE",
"280 -172 OFFCURVE",
"381 -172 CURVE SMOOTH",
"419 -172 OFFCURVE",
"461 -166 OFFCURVE",
"486 -159 CURVE",
"512 -34 LINE",
"490 -41 OFFCURVE",
"465 -45 OFFCURVE",
"443 -45 CURVE SMOOTH",
"409 -45 OFFCURVE",
"397 -39 OFFCURVE",
"397 -18 CURVE SMOOTH",
"397 -14 OFFCURVE",
"397 -10 OFFCURVE",
"398 -5 CURVE",
"578 16 OFFCURVE",
"677 113 OFFCURVE",
"722 321 CURVE SMOOTH"
);
},
{
closed = 1;
nodes = (
"290 431 OFFCURVE",
"333 471 OFFCURVE",
"417 471 CURVE SMOOTH",
"484 471 OFFCURVE",
"511 449 OFFCURVE",
"511 391 CURVE SMOOTH",
"511 372 OFFCURVE",
"508 349 OFFCURVE",
"502 321 CURVE SMOOTH",
"479 215 OFFCURVE",
"436 172 OFFCURVE",
"353 172 CURVE SMOOTH",
"286 172 OFFCURVE",
"258 196 OFFCURVE",
"258 253 CURVE SMOOTH",
"258 272 OFFCURVE",
"261 294 OFFCURVE",
"267 321 CURVE SMOOTH"
);
}
);
width = 714;
}
);
leftKerningGroup = O;
note = Q;
rightKerningGroup = O;
unicode = 0051;
},
{
glyphname = R;
lastChange = "2015-10-24 04:56:44 +0000";
layers = (
{
layerId = "DD5B64A7-4DAF-4BC4-A4CC-81A10E608EA1";
name = "Bold Italic";
paths = (
{
closed = 1;
nodes = (
"675 429 OFFCURVE",
"677 448 OFFCURVE",
"677 466 CURVE SMOOTH",
"677 572 OFFCURVE",
"607 644 OFFCURVE",
"484 644 CURVE SMOOTH",
"136 644 LINE",
"0 0 LINE",
"215 0 LINE",
"252 176 LINE",
"283 176 LINE SMOOTH",
"305 176 OFFCURVE",
"313 168 OFFCURVE",
"317 149 CURVE SMOOTH",
"352 0 LINE",
"576 0 LINE",
"537 172 LINE SMOOTH",
"533 189 OFFCURVE",
"526 205 OFFCURVE",
"514 216 CURVE",
"596 254 OFFCURVE",
"653 322 OFFCURVE",
"671 409 CURVE SMOOTH"
);
},
{
closed = 1;
nodes = (
"287 342 LINE",
"316 477 LINE",
"400 477 LINE SMOOTH",
"440 477 OFFCURVE",
"455 464 OFFCURVE",
"455 436 CURVE SMOOTH",
"455 428 OFFCURVE",
"454 419 OFFCURVE",
"452 409 CURVE SMOOTH",
"443 365 OFFCURVE",
"420 342 OFFCURVE",
"366 342 CURVE SMOOTH"
);
}
);
width = 645;
}
);
note = R;
rightKerningGroup = R;
unicode = 0052;
},
{
glyphname = Racute;
lastChange = "2015-10-24 04:56:43 +0000";
layers = (
{
layerId = "DD5B64A7-4DAF-4BC4-A4CC-81A10E608EA1";
name = "Bold Italic";
paths = (
{
closed = 1;
nodes = (
"675 429 OFFCURVE",
"677 448 OFFCURVE",
"677 466 CURVE SMOOTH",
"677 572 OFFCURVE",
"607 644 OFFCURVE",
"484 644 CURVE SMOOTH",
"136 644 LINE",
"0 0 LINE",
"215 0 LINE",
"252 176 LINE",
"283 176 LINE SMOOTH",
"305 176 OFFCURVE",
"313 168 OFFCURVE",
"317 149 CURVE SMOOTH",
"352 0 LINE",
"576 0 LINE",
"537 172 LINE SMOOTH",
"533 189 OFFCURVE",
"526 205 OFFCURVE",
"514 216 CURVE",
"596 254 OFFCURVE",
"653 322 OFFCURVE",
"671 409 CURVE SMOOTH"
);
},
{
closed = 1;
nodes = (
"287 342 LINE",
"316 477 LINE",
"400 477 LINE SMOOTH",
"440 477 OFFCURVE",
"455 464 OFFCURVE",
"455 436 CURVE SMOOTH",
"455 428 OFFCURVE",
"454 419 OFFCURVE",
"452 409 CURVE SMOOTH",
"443 365 OFFCURVE",
"420 342 OFFCURVE",
"366 342 CURVE SMOOTH"
);
},
{
closed = 1;
nodes = (
"454 688 LINE",
"601 904 LINE",
"435 904 LINE",
"297 688 LINE"
);
}
);
width = 645;
}
);
note = Racute;
rightKerningGroup = R;
unicode = 0154;
},
{
glyphname = Rcaron;
lastChange = "2015-10-24 04:56:43 +0000";
layers = (
{
layerId = "DD5B64A7-4DAF-4BC4-A4CC-81A10E608EA1";
name = "Bold Italic";
paths = (
{
closed = 1;
nodes = (
"675 429 OFFCURVE",
"677 448 OFFCURVE",
"677 466 CURVE SMOOTH",
"677 572 OFFCURVE",
"607 644 OFFCURVE",
"484 644 CURVE SMOOTH",
"136 644 LINE",
"0 0 LINE",
"215 0 LINE",
"252 176 LINE",
"283 176 LINE SMOOTH",
"305 176 OFFCURVE",
"313 168 OFFCURVE",
"317 149 CURVE SMOOTH",
"352 0 LINE",
"576 0 LINE",
"537 172 LINE SMOOTH",
"533 189 OFFCURVE",
"526 205 OFFCURVE",
"514 216 CURVE",
"596 254 OFFCURVE",
"653 322 OFFCURVE",
"671 409 CURVE SMOOTH"
);
},
{
closed = 1;
nodes = (
"287 342 LINE",
"316 477 LINE",
"400 477 LINE SMOOTH",
"440 477 OFFCURVE",
"455 464 OFFCURVE",
"455 436 CURVE SMOOTH",
"455 428 OFFCURVE",
"454 419 OFFCURVE",
"452 409 CURVE SMOOTH",
"443 365 OFFCURVE",
"420 342 OFFCURVE",
"366 342 CURVE SMOOTH"
);
},
{
closed = 1;
nodes = (
"663 896 LINE",
"505 896 LINE",
"406 788 LINE",
"356 896 LINE",
"207 896 LINE",
"328 688 LINE",
"454 688 LINE"
);
}
);
width = 645;
}
);
note = Rcaron;
rightKerningGroup = R;
unicode = 0158;
},
{
glyphname = Rcommaaccent;
lastChange = "2015-10-24 04:56:43 +0000";
layers = (
{
layerId = "DD5B64A7-4DAF-4BC4-A4CC-81A10E608EA1";
name = "Bold Italic";
paths = (
{
closed = 1;
nodes = (
"675 429 OFFCURVE",
"677 448 OFFCURVE",
"677 466 CURVE SMOOTH",
"677 572 OFFCURVE",
"607 644 OFFCURVE",
"484 644 CURVE SMOOTH",
"136 644 LINE",
"0 0 LINE",
"215 0 LINE",
"252 176 LINE",
"283 176 LINE SMOOTH",
"305 176 OFFCURVE",
"313 168 OFFCURVE",
"317 149 CURVE SMOOTH",
"352 0 LINE",
"576 0 LINE",
"537 172 LINE SMOOTH",
"533 189 OFFCURVE",
"526 205 OFFCURVE",
"514 216 CURVE",
"596 254 OFFCURVE",
"653 322 OFFCURVE",
"671 409 CURVE SMOOTH"
);
},
{
closed = 1;
nodes = (
"287 342 LINE",
"316 477 LINE",
"400 477 LINE SMOOTH",
"440 477 OFFCURVE",
"455 464 OFFCURVE",
"455 436 CURVE SMOOTH",
"455 428 OFFCURVE",
"454 419 OFFCURVE",
"452 409 CURVE SMOOTH",
"443 365 OFFCURVE",
"420 342 OFFCURVE",
"366 342 CURVE SMOOTH"
);
},
{
closed = 1;
nodes = (
"242 -274 LINE",
"354 -37 LINE",
"188 -37 LINE",
"103 -274 LINE"
);
}
);
width = 645;
}
);
note = Rcommaaccent;
rightKerningGroup = R;
unicode = 0156;
},
{
glyphname = Rdotbelow;
lastChange = "2015-10-24 04:56:43 +0000";
layers = (
{
layerId = "DD5B64A7-4DAF-4BC4-A4CC-81A10E608EA1";
name = "Bold Italic";
paths = (
{
closed = 1;
nodes = (
"675 429 OFFCURVE",
"677 448 OFFCURVE",
"677 466 CURVE SMOOTH",
"677 572 OFFCURVE",
"607 644 OFFCURVE",
"484 644 CURVE SMOOTH",
"136 644 LINE",
"0 0 LINE",
"215 0 LINE",
"252 176 LINE",
"283 176 LINE SMOOTH",
"305 176 OFFCURVE",
"313 168 OFFCURVE",
"317 149 CURVE SMOOTH",
"352 0 LINE",
"576 0 LINE",
"537 172 LINE SMOOTH",
"533 189 OFFCURVE",
"526 205 OFFCURVE",
"514 216 CURVE",
"596 254 OFFCURVE",
"653 322 OFFCURVE",
"671 409 CURVE SMOOTH"
);
},
{
closed = 1;
nodes = (
"287 342 LINE",
"316 477 LINE",
"400 477 LINE SMOOTH",
"440 477 OFFCURVE",
"455 464 OFFCURVE",
"455 436 CURVE SMOOTH",
"455 428 OFFCURVE",
"454 419 OFFCURVE",
"452 409 CURVE SMOOTH",
"443 365 OFFCURVE",
"420 342 OFFCURVE",
"366 342 CURVE SMOOTH"
);
},
{
closed = 1;
nodes = (
"299 -175 LINE",
"327 -45 LINE",
"184 -45 LINE",
"156 -175 LINE"
);
}
);
width = 645;
}
);
note = Rdotbelow;
rightKerningGroup = R;
unicode = 1E5A;
},
{
glyphname = Rdotbelowmacron;
lastChange = "2015-10-24 04:56:43 +0000";
layers = (
{
layerId = "DD5B64A7-4DAF-4BC4-A4CC-81A10E608EA1";
name = "Bold Italic";
paths = (
{
closed = 1;
nodes = (
"675 429 OFFCURVE",
"677 448 OFFCURVE",
"677 466 CURVE SMOOTH",
"677 572 OFFCURVE",
"607 644 OFFCURVE",
"484 644 CURVE SMOOTH",
"136 644 LINE",
"0 0 LINE",
"215 0 LINE",
"252 176 LINE",
"283 176 LINE SMOOTH",
"305 176 OFFCURVE",
"313 168 OFFCURVE",
"317 149 CURVE SMOOTH",
"352 0 LINE",
"576 0 LINE",
"537 172 LINE SMOOTH",
"533 189 OFFCURVE",
"526 205 OFFCURVE",
"514 216 CURVE",
"596 254 OFFCURVE",
"653 322 OFFCURVE",
"671 409 CURVE SMOOTH"
);
},
{
closed = 1;
nodes = (
"287 342 LINE",
"316 477 LINE",
"400 477 LINE SMOOTH",
"440 477 OFFCURVE",
"455 464 OFFCURVE",
"455 436 CURVE SMOOTH",
"455 428 OFFCURVE",
"454 419 OFFCURVE",
"452 409 CURVE SMOOTH",
"443 365 OFFCURVE",
"420 342 OFFCURVE",
"366 342 CURVE SMOOTH"
);
},
{
closed = 1;
nodes = (
"250 843 LINE",
"223 717 LINE",
"561 717 LINE",
"588 843 LINE"
);
},
{
closed = 1;
nodes = (
"294 -175 LINE",
"322 -45 LINE",
"179 -45 LINE",
"151 -175 LINE"
);
}
);
width = 645;
}
);
note = Rdotbelowmacron;
rightKerningGroup = R;
unicode = 1E5C;
},
{
glyphname = Rlinebelow;
lastChange = "2015-10-24 04:56:43 +0000";
layers = (
{
layerId = "DD5B64A7-4DAF-4BC4-A4CC-81A10E608EA1";
name = "Bold Italic";
paths = (
{
closed = 1;
nodes = (
"675 429 OFFCURVE",
"677 448 OFFCURVE",
"677 466 CURVE SMOOTH",
"677 572 OFFCURVE",
"607 644 OFFCURVE",
"484 644 CURVE SMOOTH",
"136 644 LINE",
"0 0 LINE",
"215 0 LINE",
"252 176 LINE",
"283 176 LINE SMOOTH",
"305 176 OFFCURVE",
"313 168 OFFCURVE",
"317 149 CURVE SMOOTH",
"352 0 LINE",
"576 0 LINE",
"537 172 LINE SMOOTH",
"533 189 OFFCURVE",
"526 205 OFFCURVE",
"514 216 CURVE",
"596 254 OFFCURVE",
"653 322 OFFCURVE",
"671 409 CURVE SMOOTH"
);
},
{
closed = 1;
nodes = (
"287 342 LINE",
"316 477 LINE",
"400 477 LINE SMOOTH",
"440 477 OFFCURVE",
"455 464 OFFCURVE",
"455 436 CURVE SMOOTH",
"455 428 OFFCURVE",
"454 419 OFFCURVE",
"452 409 CURVE SMOOTH",
"443 365 OFFCURVE",
"420 342 OFFCURVE",
"366 342 CURVE SMOOTH"
);
},
{
closed = 1;
nodes = (
"85 -49 LINE",
"58 -175 LINE",
"396 -175 LINE",
"423 -49 LINE"
);
}
);
width = 645;
}
);
note = Rlinebelow;
rightKerningGroup = R;
unicode = 1E5E;
},
{
glyphname = S;
lastChange = "2015-10-24 05:07:17 +0000";
layers = (
{
layerId = "DD5B64A7-4DAF-4BC4-A4CC-81A10E608EA1";
name = "Bold Italic";
paths = (
{
closed = 1;
nodes = (
"541 207 OFFCURVE",
"543 225 OFFCURVE",
"543 242 CURVE SMOOTH",
"543 313 OFFCURVE",
"506 371 OFFCURVE",
"393 404 CURVE SMOOTH",
"325 424 OFFCURVE",
"295 431 OFFCURVE",
"295 452 CURVE SMOOTH",
"295 487 OFFCURVE",
"345 492 OFFCURVE",
"395 492 CURVE SMOOTH",
"441 492 OFFCURVE",
"496 482 OFFCURVE",
"558 455 CURVE",
"594 624 LINE",
"547 639 OFFCURVE",
"462 654 OFFCURVE",
"394 654 CURVE SMOOTH",
"203 654 OFFCURVE",
"105 594 OFFCURVE",
"76 456 CURVE SMOOTH",
"72 439 OFFCURVE",
"70 422 OFFCURVE",
"70 408 CURVE SMOOTH",
"70 333 OFFCURVE",
"116 289 OFFCURVE",
"203 257 CURVE SMOOTH",
"280 229 OFFCURVE",
"323 221 OFFCURVE",
"316 188 CURVE SMOOTH",
"310 159 OFFCURVE",
"278 150 OFFCURVE",
"225 150 CURVE SMOOTH",
"162 150 OFFCURVE",
"85 171 OFFCURVE",
"29 200 CURVE",
"-7 32 LINE",
"44 5 OFFCURVE",
"127 -10 OFFCURVE",
"214 -10 CURVE SMOOTH",
"410 -10 OFFCURVE",
"511 69 OFFCURVE",
"537 189 CURVE SMOOTH"
);
}
);
width = 557;
}
);
leftKerningGroup = S;
note = S;
rightKerningGroup = S;
unicode = 0053;
},
{
glyphname = Sacute;
lastChange = "2015-10-24 04:56:43 +0000";
layers = (
{
layerId = "DD5B64A7-4DAF-4BC4-A4CC-81A10E608EA1";
name = "Bold Italic";
paths = (
{
closed = 1;
nodes = (
"541 207 OFFCURVE",
"543 225 OFFCURVE",
"543 242 CURVE SMOOTH",
"543 313 OFFCURVE",
"506 371 OFFCURVE",
"393 404 CURVE SMOOTH",
"325 424 OFFCURVE",
"295 431 OFFCURVE",
"295 452 CURVE SMOOTH",
"295 487 OFFCURVE",
"345 492 OFFCURVE",
"395 492 CURVE SMOOTH",
"441 492 OFFCURVE",
"496 482 OFFCURVE",
"558 455 CURVE",
"594 624 LINE",
"547 639 OFFCURVE",
"462 654 OFFCURVE",
"394 654 CURVE SMOOTH",
"203 654 OFFCURVE",
"105 594 OFFCURVE",
"76 456 CURVE SMOOTH",
"72 439 OFFCURVE",
"70 422 OFFCURVE",
"70 408 CURVE SMOOTH",
"70 333 OFFCURVE",
"116 289 OFFCURVE",
"203 257 CURVE SMOOTH",
"280 229 OFFCURVE",
"323 221 OFFCURVE",
"316 188 CURVE SMOOTH",
"310 159 OFFCURVE",
"278 150 OFFCURVE",
"225 150 CURVE SMOOTH",
"162 150 OFFCURVE",
"85 171 OFFCURVE",
"29 200 CURVE",
"-7 32 LINE",
"44 5 OFFCURVE",
"127 -10 OFFCURVE",
"214 -10 CURVE SMOOTH",
"410 -10 OFFCURVE",
"511 69 OFFCURVE",
"537 189 CURVE SMOOTH"
);
},
{
closed = 1;
nodes = (
"449 688 LINE",
"596 904 LINE",
"430 904 LINE",
"292 688 LINE"
);
}
);
width = 557;
}
);
leftKerningGroup = S;
note = Sacute;
rightKerningGroup = S;
unicode = 015A;
},
{
glyphname = Scaron;
lastChange = "2015-10-24 04:56:43 +0000";
layers = (
{
layerId = "DD5B64A7-4DAF-4BC4-A4CC-81A10E608EA1";
name = "Bold Italic";
paths = (
{
closed = 1;
nodes = (
"541 207 OFFCURVE",
"543 225 OFFCURVE",
"543 242 CURVE SMOOTH",
"543 313 OFFCURVE",
"506 371 OFFCURVE",
"393 404 CURVE SMOOTH",
"325 424 OFFCURVE",
"295 431 OFFCURVE",
"295 452 CURVE SMOOTH",
"295 487 OFFCURVE",
"345 492 OFFCURVE",
"395 492 CURVE SMOOTH",
"441 492 OFFCURVE",
"496 482 OFFCURVE",
"558 455 CURVE",
"594 624 LINE",
"547 639 OFFCURVE",
"462 654 OFFCURVE",
"394 654 CURVE SMOOTH",
"203 654 OFFCURVE",
"105 594 OFFCURVE",
"76 456 CURVE SMOOTH",
"72 439 OFFCURVE",
"70 422 OFFCURVE",
"70 408 CURVE SMOOTH",
"70 333 OFFCURVE",
"116 289 OFFCURVE",
"203 257 CURVE SMOOTH",
"280 229 OFFCURVE",
"323 221 OFFCURVE",
"316 188 CURVE SMOOTH",
"310 159 OFFCURVE",
"278 150 OFFCURVE",
"225 150 CURVE SMOOTH",
"162 150 OFFCURVE",
"85 171 OFFCURVE",
"29 200 CURVE",
"-7 32 LINE",
"44 5 OFFCURVE",
"127 -10 OFFCURVE",
"214 -10 CURVE SMOOTH",
"410 -10 OFFCURVE",
"511 69 OFFCURVE",
"537 189 CURVE SMOOTH"
);
},
{
closed = 1;
nodes = (
"653 896 LINE",
"495 896 LINE",
"396 788 LINE",
"346 896 LINE",
"197 896 LINE",
"318 688 LINE",
"444 688 LINE"
);
}
);
width = 557;
}
);
leftKerningGroup = S;
note = Scaron;
rightKerningGroup = S;
unicode = 0160;
},
{
glyphname = Scedilla;
lastChange = "2015-10-24 04:56:43 +0000";
layers = (
{
layerId = "DD5B64A7-4DAF-4BC4-A4CC-81A10E608EA1";
name = "Bold Italic";
paths = (
{
closed = 1;
nodes = (
"348 -126 OFFCURVE",
"348 -119 OFFCURVE",
"348 -112 CURVE SMOOTH",
"348 -69 OFFCURVE",
"319 -39 OFFCURVE",
"256 -39 CURVE",
"275 -7 LINE",
"431 8 OFFCURVE",
"514 82 OFFCURVE",
"537 189 CURVE SMOOTH",
"541 207 OFFCURVE",
"543 225 OFFCURVE",
"543 242 CURVE SMOOTH",
"543 313 OFFCURVE",
"506 371 OFFCURVE",
"393 404 CURVE SMOOTH",
"325 424 OFFCURVE",
"295 431 OFFCURVE",
"295 452 CURVE SMOOTH",
"295 487 OFFCURVE",
"345 492 OFFCURVE",
"395 492 CURVE SMOOTH",
"441 492 OFFCURVE",
"496 482 OFFCURVE",
"558 455 CURVE",
"594 624 LINE",
"547 639 OFFCURVE",
"462 654 OFFCURVE",
"394 654 CURVE SMOOTH",
"203 654 OFFCURVE",
"105 594 OFFCURVE",
"76 456 CURVE SMOOTH",
"72 439 OFFCURVE",
"70 422 OFFCURVE",
"70 408 CURVE SMOOTH",
"70 333 OFFCURVE",
"116 289 OFFCURVE",
"203 257 CURVE SMOOTH",
"280 229 OFFCURVE",
"323 221 OFFCURVE",
"316 188 CURVE SMOOTH",
"310 159 OFFCURVE",
"278 150 OFFCURVE",
"225 150 CURVE SMOOTH",
"162 150 OFFCURVE",
"85 171 OFFCURVE",
"29 200 CURVE",
"-7 32 LINE",
"34 10 OFFCURVE",
"95 -4 OFFCURVE",
"163 -8 CURVE",
"117 -101 LINE",
"186 -101 LINE SMOOTH",
"210 -101 OFFCURVE",
"226 -105 OFFCURVE",
"226 -122 CURVE SMOOTH",
"226 -152 OFFCURVE",
"200 -165 OFFCURVE",
"148 -165 CURVE SMOOTH",
"128 -165 OFFCURVE",
"108 -162 OFFCURVE",
"91 -157 CURVE",
"75 -232 LINE",
"89 -236 OFFCURVE",
"134 -240 OFFCURVE",
"158 -240 CURVE SMOOTH",
"268 -240 OFFCURVE",
"332 -200 OFFCURVE",
"346 -134 CURVE SMOOTH"
);
}
);
width = 557;
}
);
leftKerningGroup = S;
note = Scedilla;
rightKerningGroup = S;
unicode = 015E;
},
{
glyphname = Scircumflex;
lastChange = "2015-10-24 04:56:44 +0000";
layers = (
{
layerId = "DD5B64A7-4DAF-4BC4-A4CC-81A10E608EA1";
name = "Bold Italic";
paths = (
{
closed = 1;
nodes = (
"562 207 OFFCURVE",
"564 225 OFFCURVE",
"564 242 CURVE SMOOTH",
"564 313 OFFCURVE",
"527 371 OFFCURVE",
"414 404 CURVE SMOOTH",
"346 424 OFFCURVE",
"316 431 OFFCURVE",
"316 452 CURVE SMOOTH",
"316 487 OFFCURVE",
"366 492 OFFCURVE",
"416 492 CURVE SMOOTH",
"462 492 OFFCURVE",
"517 482 OFFCURVE",
"579 455 CURVE",
"615 624 LINE",
"568 639 OFFCURVE",
"483 654 OFFCURVE",
"415 654 CURVE SMOOTH",
"224 654 OFFCURVE",
"126 594 OFFCURVE",
"97 456 CURVE SMOOTH",
"93 439 OFFCURVE",
"91 422 OFFCURVE",
"91 408 CURVE SMOOTH",
"91 333 OFFCURVE",
"137 289 OFFCURVE",
"224 257 CURVE SMOOTH",
"301 229 OFFCURVE",
"344 221 OFFCURVE",
"337 188 CURVE SMOOTH",
"331 159 OFFCURVE",
"299 150 OFFCURVE",
"246 150 CURVE SMOOTH",
"183 150 OFFCURVE",
"106 171 OFFCURVE",
"50 200 CURVE",
"14 32 LINE",
"65 5 OFFCURVE",
"148 -10 OFFCURVE",
"235 -10 CURVE SMOOTH",
"431 -10 OFFCURVE",
"532 69 OFFCURVE",
"558 189 CURVE SMOOTH"
);
},
{
closed = 1;
nodes = (
"499 896 LINE",
"372 896 LINE",
"164 688 LINE",
"326 688 LINE",
"421 796 LINE",
"474 688 LINE",
"620 688 LINE"
);
}
);
width = 578;
}
);
leftKerningGroup = S;
note = Scircumflex;
rightKerningGroup = S;
unicode = 015C;
},
{
glyphname = Scommaaccent;
lastChange = "2015-10-24 04:56:44 +0000";
layers = (
{
layerId = "DD5B64A7-4DAF-4BC4-A4CC-81A10E608EA1";
name = "Bold Italic";
paths = (
{
closed = 1;
nodes = (
"541 207 OFFCURVE",
"543 225 OFFCURVE",
"543 242 CURVE SMOOTH",
"543 313 OFFCURVE",
"506 371 OFFCURVE",
"393 404 CURVE SMOOTH",
"325 424 OFFCURVE",
"295 431 OFFCURVE",
"295 452 CURVE SMOOTH",
"295 487 OFFCURVE",
"345 492 OFFCURVE",
"395 492 CURVE SMOOTH",
"441 492 OFFCURVE",
"496 482 OFFCURVE",
"558 455 CURVE",
"594 624 LINE",
"547 639 OFFCURVE",
"462 654 OFFCURVE",
"394 654 CURVE SMOOTH",
"203 654 OFFCURVE",
"105 594 OFFCURVE",
"76 456 CURVE SMOOTH",
"72 439 OFFCURVE",
"70 422 OFFCURVE",
"70 408 CURVE SMOOTH",
"70 333 OFFCURVE",
"116 289 OFFCURVE",
"203 257 CURVE SMOOTH",
"280 229 OFFCURVE",
"323 221 OFFCURVE",
"316 188 CURVE SMOOTH",
"310 159 OFFCURVE",
"278 150 OFFCURVE",
"225 150 CURVE SMOOTH",
"162 150 OFFCURVE",
"85 171 OFFCURVE",
"29 200 CURVE",
"-7 32 LINE",
"44 5 OFFCURVE",
"127 -10 OFFCURVE",
"214 -10 CURVE SMOOTH",
"410 -10 OFFCURVE",
"511 69 OFFCURVE",
"537 189 CURVE SMOOTH"
);
},
{
closed = 1;
nodes = (
"235 -238 LINE",
"325 -40 LINE",
"151 -40 LINE",
"76 -238 LINE"
);
}
);
width = 557;
}
);
leftKerningGroup = S;
note = Scommaaccent;
rightKerningGroup = S;
unicode = 0218;
},
{
glyphname = Sdotaccent;
lastChange = "2015-10-24 04:56:43 +0000";
layers = (
{
layerId = "DD5B64A7-4DAF-4BC4-A4CC-81A10E608EA1";
name = "Bold Italic";
paths = (
{
closed = 1;
nodes = (
"541 207 OFFCURVE",
"543 225 OFFCURVE",
"543 242 CURVE SMOOTH",
"543 313 OFFCURVE",
"506 371 OFFCURVE",
"393 404 CURVE SMOOTH",
"325 424 OFFCURVE",
"295 431 OFFCURVE",
"295 452 CURVE SMOOTH",
"295 487 OFFCURVE",
"345 492 OFFCURVE",
"395 492 CURVE SMOOTH",
"441 492 OFFCURVE",
"496 482 OFFCURVE",
"558 455 CURVE",
"594 624 LINE",
"547 639 OFFCURVE",
"462 654 OFFCURVE",
"394 654 CURVE SMOOTH",
"203 654 OFFCURVE",
"105 594 OFFCURVE",
"76 456 CURVE SMOOTH",
"72 439 OFFCURVE",
"70 422 OFFCURVE",
"70 408 CURVE SMOOTH",
"70 333 OFFCURVE",
"116 289 OFFCURVE",
"203 257 CURVE SMOOTH",
"280 229 OFFCURVE",
"323 221 OFFCURVE",
"316 188 CURVE SMOOTH",
"310 159 OFFCURVE",
"278 150 OFFCURVE",
"225 150 CURVE SMOOTH",
"162 150 OFFCURVE",
"85 171 OFFCURVE",
"29 200 CURVE",
"-7 32 LINE",
"44 5 OFFCURVE",
"127 -10 OFFCURVE",
"214 -10 CURVE SMOOTH",
"410 -10 OFFCURVE",
"511 69 OFFCURVE",
"537 189 CURVE SMOOTH"
);
},
{
closed = 1;
nodes = (
"456 716 LINE",
"483 847 LINE",
"340 847 LINE",
"313 716 LINE"
);
}
);
width = 557;
}
);
leftKerningGroup = S;
note = Sdotaccent;
rightKerningGroup = S;
unicode = 1E60;
},
{
glyphname = Sdotbelow;
lastChange = "2015-10-24 04:56:43 +0000";
layers = (
{
layerId = "DD5B64A7-4DAF-4BC4-A4CC-81A10E608EA1";
name = "Bold Italic";
paths = (
{
closed = 1;
nodes = (
"541 207 OFFCURVE",
"543 225 OFFCURVE",
"543 242 CURVE SMOOTH",
"543 313 OFFCURVE",
"506 371 OFFCURVE",
"393 404 CURVE SMOOTH",
"325 424 OFFCURVE",
"295 431 OFFCURVE",
"295 452 CURVE SMOOTH",
"295 487 OFFCURVE",
"345 492 OFFCURVE",
"395 492 CURVE SMOOTH",
"441 492 OFFCURVE",
"496 482 OFFCURVE",
"558 455 CURVE",
"594 624 LINE",
"547 639 OFFCURVE",
"462 654 OFFCURVE",
"394 654 CURVE SMOOTH",
"203 654 OFFCURVE",
"105 594 OFFCURVE",
"76 456 CURVE SMOOTH",
"72 439 OFFCURVE",
"70 422 OFFCURVE",
"70 408 CURVE SMOOTH",
"70 333 OFFCURVE",
"116 289 OFFCURVE",
"203 257 CURVE SMOOTH",
"280 229 OFFCURVE",
"323 221 OFFCURVE",
"316 188 CURVE SMOOTH",
"310 159 OFFCURVE",
"278 150 OFFCURVE",
"225 150 CURVE SMOOTH",
"162 150 OFFCURVE",
"85 171 OFFCURVE",
"29 200 CURVE",
"-7 32 LINE",
"44 5 OFFCURVE",
"127 -10 OFFCURVE",
"214 -10 CURVE SMOOTH",
"410 -10 OFFCURVE",
"511 69 OFFCURVE",
"537 189 CURVE SMOOTH"
);
},
{
closed = 1;
nodes = (
"268 -176 LINE",
"296 -46 LINE",
"153 -46 LINE",
"125 -176 LINE"
);
}
);
width = 557;
}
);
leftKerningGroup = S;
note = Sdotbelow;
rightKerningGroup = S;
unicode = 1E62;
},
{
glyphname = Germandbls;
lastChange = "2015-10-24 04:56:44 +0000";
layers = (
{
layerId = "DD5B64A7-4DAF-4BC4-A4CC-81A10E608EA1";
name = "Bold Italic";
paths = (
{
closed = 1;
nodes = (
"317 141 OFFCURVE",
"287 146 OFFCURVE",
"268 154 CURVE",
"238 12 LINE",
"265 -2 OFFCURVE",
"314 -10 OFFCURVE",
"366 -10 CURVE SMOOTH",
"523 -10 OFFCURVE",
"602 50 OFFCURVE",
"624 170 CURVE SMOOTH",
"626 181 OFFCURVE",
"627 192 OFFCURVE",
"627 202 CURVE SMOOTH",
"627 270 OFFCURVE",
"582 314 OFFCURVE",
"524 314 CURVE SMOOTH",
"502 314 LINE",
"654 415 LINE",
"655 423 OFFCURVE",
"656 432 OFFCURVE",
"656 440 CURVE SMOOTH",
"656 546 OFFCURVE",
"567 654 OFFCURVE",
"416 654 CURVE SMOOTH",
"217 654 OFFCURVE",
"114 561 OFFCURVE",
"81 405 CURVE SMOOTH",
"-5 0 LINE",
"197 0 LINE",
"281 399 LINE SMOOTH",
"292 450 OFFCURVE",
"327 477 OFFCURVE",
"389 477 CURVE SMOOTH",
"431 477 OFFCURVE",
"460 459 OFFCURVE",
"459 438 CURVE",
"315 338 LINE",
"292 229 LINE",
"355 229 LINE SMOOTH",
"392 229 OFFCURVE",
"410 219 OFFCURVE",
"410 199 CURVE SMOOTH",
"410 196 OFFCURVE",
"410 192 OFFCURVE",
"409 189 CURVE SMOOTH",
"401 153 OFFCURVE",
"382 141 OFFCURVE",
"339 141 CURVE SMOOTH"
);
}
);
width = 648;
}
);
note = uni1E9E;
unicode = 1E9E;
},
{
glyphname = Schwa;
lastChange = "2015-10-24 04:56:43 +0000";
layers = (
{
layerId = "DD5B64A7-4DAF-4BC4-A4CC-81A10E608EA1";
name = "Bold Italic";
paths = (
{
closed = 1;
nodes = (
"111 469 LINE",
"163 490 OFFCURVE",
"270 512 OFFCURVE",
"342 512 CURVE SMOOTH",
"483 512 OFFCURVE",
"522 489 OFFCURVE",
"522 417 CURVE SMOOTH",
"522 411 OFFCURVE",
"521 405 OFFCURVE",
"521 399 CURVE",
"64 399 LINE",
"40 283 LINE SMOOTH",
"34 256 OFFCURVE",
"32 232 OFFCURVE",
"32 208 CURVE SMOOTH",
"32 69 OFFCURVE",
"132 -10 OFFCURVE",
"300 -10 CURVE SMOOTH",
"529 -10 OFFCURVE",
"660 116 OFFCURVE",
"702 312 CURVE SMOOTH",
"708 341 OFFCURVE",
"711 369 OFFCURVE",
"711 395 CURVE SMOOTH",
"711 555 OFFCURVE",
"598 654 OFFCURVE",
"419 654 CURVE SMOOTH",
"312 654 OFFCURVE",
"211 634 OFFCURVE",
"141 607 CURVE"
);
},
{
closed = 1;
nodes = (
"240 123 OFFCURVE",
"211 153 OFFCURVE",
"211 198 CURVE SMOOTH",
"211 209 OFFCURVE",
"213 221 OFFCURVE",
"216 233 CURVE SMOOTH",
"222 259 LINE",
"492 259 LINE",
"473 173 OFFCURVE",
"427 123 OFFCURVE",
"329 123 CURVE SMOOTH"
);
}
);
width = 696;
}
);
note = uni018F;
unicode = 018F;
},
{
glyphname = T;
lastChange = "2015-10-24 05:07:07 +0000";
layers = (
{
layerId = "DD5B64A7-4DAF-4BC4-A4CC-81A10E608EA1";
name = "Bold Italic";
paths = (
{
closed = 1;
nodes = (
"623 487 LINE",
"656 644 LINE",
"96 644 LINE",
"63 487 LINE",
"235 487 LINE",
"132 0 LINE",
"347 0 LINE",
"450 487 LINE"
);
}
);
width = 560;
}
);
leftKerningGroup = T;
note = T;
rightKerningGroup = T;
unicode = 0054;
},
{
glyphname = Tbar;
lastChange = "2015-10-23 13:39:41 +0000";
layers = (
{
layerId = "DD5B64A7-4DAF-4BC4-A4CC-81A10E608EA1";
name = "Bold Italic";
paths = (
{
closed = 1;
nodes = (
"623 487 LINE",
"656 644 LINE",
"96 644 LINE",
"63 487 LINE",
"235 487 LINE",
"215 392 LINE",
"132 392 LINE",
"102 252 LINE",
"185 252 LINE",
"132 0 LINE",
"347 0 LINE",
"400 252 LINE",
"486 252 LINE",
"516 392 LINE",
"430 392 LINE",
"450 487 LINE"
);
}
);
width = 560;
}
);
leftKerningGroup = T;
note = Tbar;
rightKerningGroup = T;
unicode = 0166;
},
{
glyphname = Tcaron;
lastChange = "2015-10-23 13:39:41 +0000";
layers = (
{
layerId = "DD5B64A7-4DAF-4BC4-A4CC-81A10E608EA1";
name = "Bold Italic";
paths = (
{
closed = 1;
nodes = (
"623 487 LINE",
"656 644 LINE",
"96 644 LINE",
"63 487 LINE",
"235 487 LINE",
"132 0 LINE",
"347 0 LINE",
"450 487 LINE"
);
},
{
closed = 1;
nodes = (
"658 896 LINE",
"500 896 LINE",
"401 788 LINE",
"351 896 LINE",
"202 896 LINE",
"323 688 LINE",
"449 688 LINE"
);
}
);
width = 560;
}
);
leftKerningGroup = T;
note = Tcaron;
rightKerningGroup = T;
unicode = 0164;
},
{
glyphname = Tcedilla;
lastChange = "2015-10-24 04:56:43 +0000";
layers = (
{
layerId = "DD5B64A7-4DAF-4BC4-A4CC-81A10E608EA1";
name = "Bold Italic";
paths = (
{
closed = 1;
nodes = (
"371 -126 OFFCURVE",
"371 -119 OFFCURVE",
"371 -112 CURVE SMOOTH",
"371 -69 OFFCURVE",
"342 -39 OFFCURVE",
"279 -39 CURVE",
"302 0 LINE",
"347 0 LINE",
"450 487 LINE",
"623 487 LINE",
"656 644 LINE",
"96 644 LINE",
"63 487 LINE",
"235 487 LINE",
"132 0 LINE",
"190 0 LINE",
"140 -101 LINE",
"209 -101 LINE SMOOTH",
"233 -101 OFFCURVE",
"249 -105 OFFCURVE",
"249 -122 CURVE SMOOTH",
"249 -152 OFFCURVE",
"223 -165 OFFCURVE",
"171 -165 CURVE SMOOTH",
"151 -165 OFFCURVE",
"131 -162 OFFCURVE",
"114 -157 CURVE",
"98 -232 LINE",
"112 -236 OFFCURVE",
"157 -240 OFFCURVE",
"181 -240 CURVE SMOOTH",
"291 -240 OFFCURVE",
"355 -200 OFFCURVE",
"369 -134 CURVE SMOOTH"
);
}
);
width = 560;
}
);
leftKerningGroup = T;
note = Tcedilla;
rightKerningGroup = T;
unicode = 0162;
},
{
glyphname = Tcommaaccent;
lastChange = "2015-10-23 13:39:40 +0000";
layers = (
{
layerId = "DD5B64A7-4DAF-4BC4-A4CC-81A10E608EA1";
name = "Bold Italic";
paths = (
{
closed = 1;
nodes = (
"611 487 LINE",
"644 644 LINE",
"84 644 LINE",
"51 487 LINE",
"223 487 LINE",
"120 0 LINE",
"335 0 LINE",
"438 487 LINE"
);
},
{
closed = 1;
nodes = (
"187 -277 LINE",
"299 -40 LINE",
"133 -40 LINE",
"48 -277 LINE"
);
}
);
width = 548;
}
);
leftKerningGroup = T;
note = Tcommaaccent;
rightKerningGroup = T;
unicode = 021A;
},
{
glyphname = Tdotbelow;
lastChange = "2015-10-23 13:39:40 +0000";
layers = (
{
layerId = "DD5B64A7-4DAF-4BC4-A4CC-81A10E608EA1";
name = "Bold Italic";
paths = (
{
closed = 1;
nodes = (
"623 487 LINE",
"656 644 LINE",
"96 644 LINE",
"63 487 LINE",
"235 487 LINE",
"132 0 LINE",
"347 0 LINE",
"450 487 LINE"
);
},
{
closed = 1;
nodes = (
"276 -176 LINE",
"304 -46 LINE",
"161 -46 LINE",
"133 -176 LINE"
);
}
);
width = 560;
}
);
leftKerningGroup = T;
note = Tdotbelow;
rightKerningGroup = T;
unicode = 1E6C;
},
{
glyphname = Tlinebelow;
lastChange = "2015-10-23 13:39:41 +0000";
layers = (
{
layerId = "DD5B64A7-4DAF-4BC4-A4CC-81A10E608EA1";
name = "Bold Italic";
paths = (
{
closed = 1;
nodes = (
"623 487 LINE",
"656 644 LINE",
"96 644 LINE",
"63 487 LINE",
"235 487 LINE",
"132 0 LINE",
"347 0 LINE",
"450 487 LINE"
);
},
{
closed = 1;
nodes = (
"60 -50 LINE",
"33 -176 LINE",
"371 -176 LINE",
"398 -50 LINE"
);
}
);
width = 560;
}
);
leftKerningGroup = T;
note = Tlinebelow;
rightKerningGroup = T;
unicode = 1E6E;
},
{
glyphname = U;
lastChange = "2015-10-24 05:06:57 +0000";
layers = (
{
layerId = "DD5B64A7-4DAF-4BC4-A4CC-81A10E608EA1";
name = "Bold Italic";
paths = (
{
closed = 1;
nodes = (
"288 172 OFFCURVE",
"263 189 OFFCURVE",
"263 234 CURVE SMOOTH",
"263 246 OFFCURVE",
"265 260 OFFCURVE",
"268 276 CURVE SMOOTH",
"346 644 LINE",
"131 644 LINE",
"53 275 LINE SMOOTH",
"49 254 OFFCURVE",
"46 234 OFFCURVE",
"46 214 CURVE SMOOTH",
"46 79 OFFCURVE",
"149 -10 OFFCURVE",
"305 -10 CURVE SMOOTH",
"504 -10 OFFCURVE",
"638 81 OFFCURVE",
"674 251 CURVE SMOOTH",
"757 644 LINE",
"542 644 LINE",
"464 276 LINE SMOOTH",
"448 200 OFFCURVE",
"413 172 OFFCURVE",
"344 172 CURVE SMOOTH"
);
}
);
width = 696;
}
);
leftKerningGroup = U;
note = U;
rightKerningGroup = U;
unicode = 0055;
},
{
glyphname = Uacute;
lastChange = "2015-10-24 04:56:43 +0000";
layers = (
{
layerId = "DD5B64A7-4DAF-4BC4-A4CC-81A10E608EA1";
name = "Bold Italic";
paths = (
{
closed = 1;
nodes = (
"288 172 OFFCURVE",
"263 189 OFFCURVE",
"263 234 CURVE SMOOTH",
"263 246 OFFCURVE",
"265 260 OFFCURVE",
"268 276 CURVE SMOOTH",
"346 644 LINE",
"131 644 LINE",
"53 275 LINE SMOOTH",
"49 254 OFFCURVE",
"46 234 OFFCURVE",
"46 214 CURVE SMOOTH",
"46 79 OFFCURVE",
"149 -10 OFFCURVE",
"305 -10 CURVE SMOOTH",
"504 -10 OFFCURVE",
"638 81 OFFCURVE",
"674 251 CURVE SMOOTH",
"757 644 LINE",
"542 644 LINE",
"464 276 LINE SMOOTH",
"448 200 OFFCURVE",
"413 172 OFFCURVE",
"344 172 CURVE SMOOTH"
);
},
{
closed = 1;
nodes = (
"532 688 LINE",
"679 904 LINE",
"513 904 LINE",
"375 688 LINE"
);
}
);
width = 696;
}
);
leftKerningGroup = U;
note = Uacute;
rightKerningGroup = U;
unicode = 00DA;
},
{
glyphname = Ubreve;
lastChange = "2015-10-24 04:56:43 +0000";
layers = (
{
layerId = "DD5B64A7-4DAF-4BC4-A4CC-81A10E608EA1";
name = "Bold Italic";
paths = (
{
closed = 1;
nodes = (
"288 172 OFFCURVE",
"263 189 OFFCURVE",
"263 234 CURVE SMOOTH",
"263 246 OFFCURVE",
"265 260 OFFCURVE",
"268 276 CURVE SMOOTH",
"346 644 LINE",
"131 644 LINE",
"53 275 LINE SMOOTH",
"49 254 OFFCURVE",
"46 234 OFFCURVE",
"46 214 CURVE SMOOTH",
"46 79 OFFCURVE",
"149 -10 OFFCURVE",
"305 -10 CURVE SMOOTH",
"504 -10 OFFCURVE",
"638 81 OFFCURVE",
"674 251 CURVE SMOOTH",
"757 644 LINE",
"542 644 LINE",
"464 276 LINE SMOOTH",
"448 200 OFFCURVE",
"413 172 OFFCURVE",
"344 172 CURVE SMOOTH"
);
},
{
closed = 1;
nodes = (
"293 892 LINE",
"289 872 OFFCURVE",
"287 853 OFFCURVE",
"287 835 CURVE SMOOTH",
"287 740 OFFCURVE",
"350 688 OFFCURVE",
"453 688 CURVE SMOOTH",
"586 688 OFFCURVE",
"674 760 OFFCURVE",
"702 892 CURVE",
"558 892 LINE",
"548 845 OFFCURVE",
"531 806 OFFCURVE",
"473 806 CURVE SMOOTH",
"433 806 OFFCURVE",
"421 827 OFFCURVE",
"421 857 CURVE SMOOTH",
"421 868 OFFCURVE",
"422 879 OFFCURVE",
"425 892 CURVE"
);
}
);
width = 696;
}
);
leftKerningGroup = U;
note = Ubreve;
rightKerningGroup = U;
unicode = 016C;
},
{
glyphname = Ucaron;
lastChange = "2015-10-24 04:56:43 +0000";
layers = (
{
layerId = "DD5B64A7-4DAF-4BC4-A4CC-81A10E608EA1";
name = "Bold Italic";
paths = (
{
closed = 1;
nodes = (
"289 172 OFFCURVE",
"264 189 OFFCURVE",
"264 234 CURVE SMOOTH",
"264 246 OFFCURVE",
"266 260 OFFCURVE",
"269 276 CURVE SMOOTH",
"347 644 LINE",
"132 644 LINE",
"54 275 LINE SMOOTH",
"50 254 OFFCURVE",
"47 234 OFFCURVE",
"47 214 CURVE SMOOTH",
"47 79 OFFCURVE",
"150 -10 OFFCURVE",
"306 -10 CURVE SMOOTH",
"505 -10 OFFCURVE",
"639 81 OFFCURVE",
"675 251 CURVE SMOOTH",
"758 644 LINE",
"543 644 LINE",
"465 276 LINE SMOOTH",
"449 200 OFFCURVE",
"414 172 OFFCURVE",
"345 172 CURVE SMOOTH"
);
},
{
closed = 1;
nodes = (
"726 896 LINE",
"568 896 LINE",
"469 788 LINE",
"419 896 LINE",
"270 896 LINE",
"391 688 LINE",
"517 688 LINE"
);
}
);
width = 697;
}
);
leftKerningGroup = U;
note = Ucaron;
rightKerningGroup = U;
unicode = 01D3;
},
{
glyphname = Ucircumflex;
lastChange = "2015-10-24 04:56:43 +0000";
layers = (
{
layerId = "DD5B64A7-4DAF-4BC4-A4CC-81A10E608EA1";
name = "Bold Italic";
paths = (
{
closed = 1;
nodes = (
"288 172 OFFCURVE",
"263 189 OFFCURVE",
"263 234 CURVE SMOOTH",
"263 246 OFFCURVE",
"265 260 OFFCURVE",
"268 276 CURVE SMOOTH",
"346 644 LINE",
"131 644 LINE",
"53 275 LINE SMOOTH",
"49 254 OFFCURVE",
"46 234 OFFCURVE",
"46 214 CURVE SMOOTH",
"46 79 OFFCURVE",
"149 -10 OFFCURVE",
"305 -10 CURVE SMOOTH",
"504 -10 OFFCURVE",
"638 81 OFFCURVE",
"674 251 CURVE SMOOTH",
"757 644 LINE",
"542 644 LINE",
"464 276 LINE SMOOTH",
"448 200 OFFCURVE",
"413 172 OFFCURVE",
"344 172 CURVE SMOOTH"
);
},
{
closed = 1;
nodes = (
"561 896 LINE",
"434 896 LINE",
"226 688 LINE",
"388 688 LINE",
"483 796 LINE",
"536 688 LINE",
"682 688 LINE"
);
}
);
width = 696;
}
);
leftKerningGroup = U;
note = Ucircumflex;
rightKerningGroup = U;
unicode = 00DB;
},
{
glyphname = Udieresis;
lastChange = "2015-10-24 04:56:43 +0000";
layers = (
{
layerId = "DD5B64A7-4DAF-4BC4-A4CC-81A10E608EA1";
name = "Bold Italic";
paths = (
{
closed = 1;
nodes = (
"288 172 OFFCURVE",
"263 189 OFFCURVE",
"263 234 CURVE SMOOTH",
"263 246 OFFCURVE",
"265 260 OFFCURVE",
"268 276 CURVE SMOOTH",
"346 644 LINE",
"131 644 LINE",
"53 275 LINE SMOOTH",
"49 254 OFFCURVE",
"46 234 OFFCURVE",
"46 214 CURVE SMOOTH",
"46 79 OFFCURVE",
"149 -10 OFFCURVE",
"305 -10 CURVE SMOOTH",
"504 -10 OFFCURVE",
"638 81 OFFCURVE",
"674 251 CURVE SMOOTH",
"757 644 LINE",
"542 644 LINE",
"464 276 LINE SMOOTH",
"448 200 OFFCURVE",
"413 172 OFFCURVE",
"344 172 CURVE SMOOTH"
);
},
{
closed = 1;
nodes = (
"419 716 LINE",
"446 847 LINE",
"303 847 LINE",
"276 716 LINE"
);
},
{
closed = 1;
nodes = (
"644 716 LINE",
"671 847 LINE",
"528 847 LINE",
"501 716 LINE"
);
}
);
width = 696;
}
);
leftKerningGroup = U;
note = Udieresis;
rightKerningGroup = U;
unicode = 00DC;
},
{
glyphname = Udieresisacute;
lastChange = "2015-10-24 04:56:43 +0000";
layers = (
{
layerId = "DD5B64A7-4DAF-4BC4-A4CC-81A10E608EA1";
name = "Bold Italic";
paths = (
{
closed = 1;
nodes = (
"288 172 OFFCURVE",
"263 189 OFFCURVE",
"263 234 CURVE SMOOTH",
"263 246 OFFCURVE",
"265 260 OFFCURVE",
"268 276 CURVE SMOOTH",
"346 644 LINE",
"131 644 LINE",
"53 275 LINE SMOOTH",
"49 254 OFFCURVE",
"46 234 OFFCURVE",
"46 214 CURVE SMOOTH",
"46 79 OFFCURVE",
"149 -10 OFFCURVE",
"305 -10 CURVE SMOOTH",
"504 -10 OFFCURVE",
"638 81 OFFCURVE",
"674 251 CURVE SMOOTH",
"757 644 LINE",
"542 644 LINE",
"464 276 LINE SMOOTH",
"448 200 OFFCURVE",
"413 172 OFFCURVE",
"344 172 CURVE SMOOTH"
);
},
{
closed = 1;
nodes = (
"414 695 LINE",
"440 818 LINE",
"300 818 LINE",
"274 695 LINE"
);
},
{
closed = 1;
nodes = (
"636 695 LINE",
"662 818 LINE",
"522 818 LINE",
"496 695 LINE"
);
},
{
closed = 1;
nodes = (
"555 846 LINE",
"657 987 LINE",
"498 987 LINE",
"411 846 LINE"
);
}
);
width = 696;
}
);
leftKerningGroup = U;
note = Udieresisacute;
rightKerningGroup = U;
unicode = 01D7;
},
{
glyphname = Udieresiscaron;
lastChange = "2015-10-24 04:56:43 +0000";
layers = (
{
layerId = "DD5B64A7-4DAF-4BC4-A4CC-81A10E608EA1";
name = "Bold Italic";
paths = (
{
closed = 1;
nodes = (
"288 172 OFFCURVE",
"263 189 OFFCURVE",
"263 234 CURVE SMOOTH",
"263 246 OFFCURVE",
"265 260 OFFCURVE",
"268 276 CURVE SMOOTH",
"346 644 LINE",
"131 644 LINE",
"53 275 LINE SMOOTH",
"49 254 OFFCURVE",
"46 234 OFFCURVE",
"46 214 CURVE SMOOTH",
"46 79 OFFCURVE",
"149 -10 OFFCURVE",
"305 -10 CURVE SMOOTH",
"504 -10 OFFCURVE",
"638 81 OFFCURVE",
"674 251 CURVE SMOOTH",
"757 644 LINE",
"542 644 LINE",
"464 276 LINE SMOOTH",
"448 200 OFFCURVE",
"413 172 OFFCURVE",
"344 172 CURVE SMOOTH"
);
},
{
closed = 1;
nodes = (
"632 695 LINE",
"658 818 LINE",
"519 818 LINE",
"493 695 LINE"
);
},
{
closed = 1;
nodes = (
"411 695 LINE",
"437 818 LINE",
"297 818 LINE",
"271 695 LINE"
);
},
{
closed = 1;
nodes = (
"727 984 LINE",
"568 984 LINE",
"497 911 LINE",
"458 984 LINE",
"306 984 LINE",
"414 845 LINE",
"561 845 LINE"
);
}
);
width = 696;
}
);
leftKerningGroup = U;
note = Udieresiscaron;
rightKerningGroup = U;
unicode = 01D9;
},
{
glyphname = Udieresisgrave;
lastChange = "2015-10-24 04:56:43 +0000";
layers = (
{
layerId = "DD5B64A7-4DAF-4BC4-A4CC-81A10E608EA1";
name = "Bold Italic";
paths = (
{
closed = 1;
nodes = (
"288 172 OFFCURVE",
"263 189 OFFCURVE",
"263 234 CURVE SMOOTH",
"263 246 OFFCURVE",
"265 260 OFFCURVE",
"268 276 CURVE SMOOTH",
"346 644 LINE",
"131 644 LINE",
"53 275 LINE SMOOTH",
"49 254 OFFCURVE",
"46 234 OFFCURVE",
"46 214 CURVE SMOOTH",
"46 79 OFFCURVE",
"149 -10 OFFCURVE",
"305 -10 CURVE SMOOTH",
"504 -10 OFFCURVE",
"638 81 OFFCURVE",
"674 251 CURVE SMOOTH",
"757 644 LINE",
"542 644 LINE",
"464 276 LINE SMOOTH",
"448 200 OFFCURVE",
"413 172 OFFCURVE",
"344 172 CURVE SMOOTH"
);
},
{
closed = 1;
nodes = (
"642 721 LINE",
"668 844 LINE",
"528 844 LINE",
"502 721 LINE"
);
},
{
closed = 1;
nodes = (
"420 721 LINE",
"446 844 LINE",
"306 844 LINE",
"280 721 LINE"
);
},
{
closed = 1;
nodes = (
"569 872 LINE",
"542 1013 LINE",
"383 1013 LINE",
"425 872 LINE"
);
}
);
width = 696;
}
);
leftKerningGroup = U;
note = Udieresisgrave;
rightKerningGroup = U;
unicode = 01DB;
},
{
glyphname = Udieresismacron;
lastChange = "2015-10-24 04:56:43 +0000";
layers = (
{
layerId = "DD5B64A7-4DAF-4BC4-A4CC-81A10E608EA1";
name = "Bold Italic";
paths = (
{
closed = 1;
nodes = (
"288 172 OFFCURVE",
"263 189 OFFCURVE",
"263 234 CURVE SMOOTH",
"263 246 OFFCURVE",
"265 260 OFFCURVE",
"268 276 CURVE SMOOTH",
"346 644 LINE",
"131 644 LINE",
"53 275 LINE SMOOTH",
"49 254 OFFCURVE",
"46 234 OFFCURVE",
"46 214 CURVE SMOOTH",
"46 79 OFFCURVE",
"149 -10 OFFCURVE",
"305 -10 CURVE SMOOTH",
"504 -10 OFFCURVE",
"638 81 OFFCURVE",
"674 251 CURVE SMOOTH",
"757 644 LINE",
"542 644 LINE",
"464 276 LINE SMOOTH",
"448 200 OFFCURVE",
"413 172 OFFCURVE",
"344 172 CURVE SMOOTH"
);
},
{
closed = 1;
nodes = (
"352 1006 LINE",
"325 880 LINE",
"663 880 LINE",
"690 1006 LINE"
);
},
{
closed = 1;
nodes = (
"415 697 LINE",
"442 828 LINE",
"299 828 LINE",
"272 697 LINE"
);
},
{
closed = 1;
nodes = (
"640 697 LINE",
"667 828 LINE",
"524 828 LINE",
"497 697 LINE"
);
}
);
width = 696;
}
);
leftKerningGroup = U;
note = Udieresismacron;
rightKerningGroup = U;
unicode = 01D5;
},
{
glyphname = Udotbelow;
lastChange = "2015-10-24 04:56:43 +0000";
layers = (
{
layerId = "DD5B64A7-4DAF-4BC4-A4CC-81A10E608EA1";
name = "Bold Italic";
paths = (
{
closed = 1;
nodes = (
"288 172 OFFCURVE",
"263 189 OFFCURVE",
"263 234 CURVE SMOOTH",
"263 246 OFFCURVE",
"265 260 OFFCURVE",
"268 276 CURVE SMOOTH",
"346 644 LINE",
"131 644 LINE",
"53 275 LINE SMOOTH",
"49 254 OFFCURVE",
"46 234 OFFCURVE",
"46 214 CURVE SMOOTH",
"46 79 OFFCURVE",
"149 -10 OFFCURVE",
"305 -10 CURVE SMOOTH",
"504 -10 OFFCURVE",
"638 81 OFFCURVE",
"674 251 CURVE SMOOTH",
"757 644 LINE",
"542 644 LINE",
"464 276 LINE SMOOTH",
"448 200 OFFCURVE",
"413 172 OFFCURVE",
"344 172 CURVE SMOOTH"
);
},
{
closed = 1;
nodes = (
"342 -176 LINE",
"370 -46 LINE",
"227 -46 LINE",
"199 -176 LINE"
);
}
);
width = 696;
}
);
leftKerningGroup = U;
note = Udotbelow;
rightKerningGroup = U;
unicode = 1EE4;
},
{
glyphname = Ugrave;
lastChange = "2015-10-24 04:56:43 +0000";
layers = (
{
layerId = "DD5B64A7-4DAF-4BC4-A4CC-81A10E608EA1";
name = "Bold Italic";
paths = (
{
closed = 1;
nodes = (
"288 172 OFFCURVE",
"263 189 OFFCURVE",
"263 234 CURVE SMOOTH",
"263 246 OFFCURVE",
"265 260 OFFCURVE",
"268 276 CURVE SMOOTH",
"346 644 LINE",
"131 644 LINE",
"53 275 LINE SMOOTH",
"49 254 OFFCURVE",
"46 234 OFFCURVE",
"46 214 CURVE SMOOTH",
"46 79 OFFCURVE",
"149 -10 OFFCURVE",
"305 -10 CURVE SMOOTH",
"504 -10 OFFCURVE",
"638 81 OFFCURVE",
"674 251 CURVE SMOOTH",
"757 644 LINE",
"542 644 LINE",
"464 276 LINE SMOOTH",
"448 200 OFFCURVE",
"413 172 OFFCURVE",
"344 172 CURVE SMOOTH"
);
},
{
closed = 1;
nodes = (
"536 688 LINE",
"490 904 LINE",
"323 904 LINE",
"378 688 LINE"
);
}
);
width = 696;
}
);
leftKerningGroup = U;
note = Ugrave;
rightKerningGroup = U;
unicode = 00D9;
},
{
glyphname = Uhookabove;
lastChange = "2015-10-24 04:56:43 +0000";
layers = (
{
layerId = "DD5B64A7-4DAF-4BC4-A4CC-81A10E608EA1";
name = "Bold Italic";
paths = (
{
closed = 1;
nodes = (
"288 172 OFFCURVE",
"263 189 OFFCURVE",
"263 234 CURVE SMOOTH",
"263 246 OFFCURVE",
"265 260 OFFCURVE",
"268 276 CURVE SMOOTH",
"346 644 LINE",
"131 644 LINE",
"53 275 LINE SMOOTH",
"49 254 OFFCURVE",
"46 234 OFFCURVE",
"46 214 CURVE SMOOTH",
"46 79 OFFCURVE",
"149 -10 OFFCURVE",
"305 -10 CURVE SMOOTH",
"504 -10 OFFCURVE",
"638 81 OFFCURVE",
"674 251 CURVE SMOOTH",
"757 644 LINE",
"542 644 LINE",
"464 276 LINE SMOOTH",
"448 200 OFFCURVE",
"413 172 OFFCURVE",
"344 172 CURVE SMOOTH"
);
},
{
closed = 1;
nodes = (
"648 835 OFFCURVE",
"648 842 OFFCURVE",
"648 848 CURVE SMOOTH",
"648 898 OFFCURVE",
"605 932 OFFCURVE",
"522 932 CURVE SMOOTH",
"469 932 OFFCURVE",
"428 927 OFFCURVE",
"396 918 CURVE",
"378 832 LINE",
"395 837 OFFCURVE",
"418 841 OFFCURVE",
"438 841 CURVE SMOOTH",
"470 841 OFFCURVE",
"487 834 OFFCURVE",
"487 817 CURVE SMOOTH",
"487 791 OFFCURVE",
"465 773 OFFCURVE",
"390 769 CURVE",
"373 688 LINE",
"533 688 LINE",
"541 726 LINE",
"601 743 OFFCURVE",
"633 769 OFFCURVE",
"646 828 CURVE SMOOTH"
);
}
);
width = 696;
}
);
leftKerningGroup = U;
note = Uhookabove;
rightKerningGroup = U;
unicode = 1EE6;
},
{
glyphname = Uhorn;
lastChange = "2015-10-24 04:56:43 +0000";
layers = (
{
layerId = "DD5B64A7-4DAF-4BC4-A4CC-81A10E608EA1";
name = "Bold Italic";
paths = (
{
closed = 1;
nodes = (
"268 150 OFFCURVE",
"238 169 OFFCURVE",
"238 221 CURVE SMOOTH",
"238 234 OFFCURVE",
"240 250 OFFCURVE",
"244 268 CURVE SMOOTH",
"324 644 LINE",
"136 644 LINE",
"54 253 LINE SMOOTH",
"50 234 OFFCURVE",
"48 215 OFFCURVE",
"48 198 CURVE SMOOTH",
"48 72 OFFCURVE",
"148 -10 OFFCURVE",
"302 -10 CURVE SMOOTH",
"499 -10 OFFCURVE",
"626 80 OFFCURVE",
"661 248 CURVE SMOOTH",
"708 468 LINE",
"866 471 OFFCURVE",
"937 525 OFFCURVE",
"972 688 CURVE",
"839 688 LINE",
"824 617 OFFCURVE",
"803 592 OFFCURVE",
"734 590 CURVE",
"745 644 LINE",
"557 644 LINE",
"477 268 LINE SMOOTH",
"460 188 OFFCURVE",
"420 150 OFFCURVE",
"336 150 CURVE SMOOTH"
);
}
);
width = 876;
}
);
note = Uhorn;
unicode = 01AF;
},
{
glyphname = Uhornacute;
lastChange = "2015-10-24 04:56:43 +0000";
layers = (
{
layerId = "DD5B64A7-4DAF-4BC4-A4CC-81A10E608EA1";
name = "Bold Italic";
paths = (
{
closed = 1;
nodes = (
"268 150 OFFCURVE",
"238 169 OFFCURVE",
"238 221 CURVE SMOOTH",
"238 234 OFFCURVE",
"240 250 OFFCURVE",
"244 268 CURVE SMOOTH",
"324 644 LINE",
"136 644 LINE",
"54 253 LINE SMOOTH",
"50 234 OFFCURVE",
"48 215 OFFCURVE",
"48 198 CURVE SMOOTH",
"48 72 OFFCURVE",
"148 -10 OFFCURVE",
"302 -10 CURVE SMOOTH",
"499 -10 OFFCURVE",
"626 80 OFFCURVE",
"661 248 CURVE SMOOTH",
"708 468 LINE",
"866 471 OFFCURVE",
"937 525 OFFCURVE",
"972 688 CURVE",
"839 688 LINE",
"824 617 OFFCURVE",
"803 592 OFFCURVE",
"734 590 CURVE",
"745 644 LINE",
"557 644 LINE",
"477 268 LINE SMOOTH",
"460 188 OFFCURVE",
"420 150 OFFCURVE",
"336 150 CURVE SMOOTH"
);
},
{
closed = 1;
nodes = (
"529 688 LINE",
"676 904 LINE",
"510 904 LINE",
"372 688 LINE"
);
}
);
width = 876;
}
);
leftKerningGroup = U;
note = Uhornacute;
rightKerningGroup = U;
unicode = 1EE8;
},
{
glyphname = Uhorndotbelow;
lastChange = "2015-10-24 04:56:43 +0000";
layers = (
{
layerId = "DD5B64A7-4DAF-4BC4-A4CC-81A10E608EA1";
name = "Bold Italic";
paths = (
{
closed = 1;
nodes = (
"268 150 OFFCURVE",
"238 169 OFFCURVE",
"238 221 CURVE SMOOTH",
"238 234 OFFCURVE",
"240 250 OFFCURVE",
"244 268 CURVE SMOOTH",
"324 644 LINE",
"136 644 LINE",
"54 253 LINE SMOOTH",
"50 234 OFFCURVE",
"48 215 OFFCURVE",
"48 198 CURVE SMOOTH",
"48 72 OFFCURVE",
"148 -10 OFFCURVE",
"302 -10 CURVE SMOOTH",
"499 -10 OFFCURVE",
"626 80 OFFCURVE",
"661 248 CURVE SMOOTH",
"708 468 LINE",
"866 471 OFFCURVE",
"937 525 OFFCURVE",
"972 688 CURVE",
"839 688 LINE",
"824 617 OFFCURVE",
"803 592 OFFCURVE",
"734 590 CURVE",
"745 644 LINE",
"557 644 LINE",
"477 268 LINE SMOOTH",
"460 188 OFFCURVE",
"420 150 OFFCURVE",
"336 150 CURVE SMOOTH"
);
},
{
closed = 1;
nodes = (
"345 -176 LINE",
"373 -46 LINE",
"230 -46 LINE",
"202 -176 LINE"
);
}
);
width = 876;
}
);
leftKerningGroup = U;
note = Uhorndotbelow;
rightKerningGroup = U;
unicode = 1EF0;
},
{
glyphname = Uhorngrave;
lastChange = "2015-10-24 04:56:44 +0000";
layers = (
{
layerId = "DD5B64A7-4DAF-4BC4-A4CC-81A10E608EA1";
name = "Bold Italic";
paths = (
{
closed = 1;
nodes = (
"268 150 OFFCURVE",
"238 169 OFFCURVE",
"238 221 CURVE SMOOTH",
"238 234 OFFCURVE",
"240 250 OFFCURVE",
"244 268 CURVE SMOOTH",
"324 644 LINE",
"136 644 LINE",
"54 253 LINE SMOOTH",
"50 234 OFFCURVE",
"48 215 OFFCURVE",
"48 198 CURVE SMOOTH",
"48 72 OFFCURVE",
"148 -10 OFFCURVE",
"302 -10 CURVE SMOOTH",
"499 -10 OFFCURVE",
"626 80 OFFCURVE",
"661 248 CURVE SMOOTH",
"708 468 LINE",
"866 471 OFFCURVE",
"937 525 OFFCURVE",
"972 688 CURVE",
"839 688 LINE",
"824 617 OFFCURVE",
"803 592 OFFCURVE",
"734 590 CURVE",
"745 644 LINE",
"557 644 LINE",
"477 268 LINE SMOOTH",
"460 188 OFFCURVE",
"420 150 OFFCURVE",
"336 150 CURVE SMOOTH"
);
},
{
closed = 1;
nodes = (
"540 688 LINE",
"494 904 LINE",
"327 904 LINE",
"382 688 LINE"
);
}
);
width = 876;
}
);
leftKerningGroup = U;
note = Uhorngrave;
rightKerningGroup = U;
unicode = 1EEA;
},
{
glyphname = Uhornhookabove;
lastChange = "2015-10-24 04:56:43 +0000";
layers = (
{
layerId = "DD5B64A7-4DAF-4BC4-A4CC-81A10E608EA1";
name = "Bold Italic";
paths = (
{
closed = 1;
nodes = (
"268 150 OFFCURVE",
"238 169 OFFCURVE",
"238 221 CURVE SMOOTH",
"238 234 OFFCURVE",
"240 250 OFFCURVE",
"244 268 CURVE SMOOTH",
"324 644 LINE",
"136 644 LINE",
"54 253 LINE SMOOTH",
"50 234 OFFCURVE",
"48 215 OFFCURVE",
"48 198 CURVE SMOOTH",
"48 72 OFFCURVE",
"148 -10 OFFCURVE",
"302 -10 CURVE SMOOTH",
"499 -10 OFFCURVE",
"626 80 OFFCURVE",
"661 248 CURVE SMOOTH",
"708 468 LINE",
"866 471 OFFCURVE",
"937 525 OFFCURVE",
"972 688 CURVE",
"839 688 LINE",
"824 617 OFFCURVE",
"803 592 OFFCURVE",
"734 590 CURVE",
"745 644 LINE",
"557 644 LINE",
"477 268 LINE SMOOTH",
"460 188 OFFCURVE",
"420 150 OFFCURVE",
"336 150 CURVE SMOOTH"
);
},
{
closed = 1;
nodes = (
"634 835 OFFCURVE",
"634 842 OFFCURVE",
"634 848 CURVE SMOOTH",
"634 898 OFFCURVE",
"591 932 OFFCURVE",
"508 932 CURVE SMOOTH",
"455 932 OFFCURVE",
"414 927 OFFCURVE",
"382 918 CURVE",
"364 832 LINE",
"381 837 OFFCURVE",
"404 841 OFFCURVE",
"424 841 CURVE SMOOTH",
"456 841 OFFCURVE",
"473 834 OFFCURVE",
"473 817 CURVE SMOOTH",
"473 791 OFFCURVE",
"451 773 OFFCURVE",
"376 769 CURVE",
"359 688 LINE",
"519 688 LINE",
"527 726 LINE",
"587 743 OFFCURVE",
"619 769 OFFCURVE",
"632 828 CURVE SMOOTH"
);
}
);
width = 876;
}
);
leftKerningGroup = U;
note = Uhornhookabove;
rightKerningGroup = U;
unicode = 1EEC;
},
{
glyphname = Uhorntilde;
lastChange = "2015-10-24 04:56:43 +0000";
layers = (
{
layerId = "DD5B64A7-4DAF-4BC4-A4CC-81A10E608EA1";
name = "Bold Italic";
paths = (
{
closed = 1;
nodes = (
"268 150 OFFCURVE",
"238 169 OFFCURVE",
"238 221 CURVE SMOOTH",
"238 234 OFFCURVE",
"240 250 OFFCURVE",
"244 268 CURVE SMOOTH",
"324 644 LINE",
"136 644 LINE",
"54 253 LINE SMOOTH",
"50 234 OFFCURVE",
"48 215 OFFCURVE",
"48 198 CURVE SMOOTH",
"48 72 OFFCURVE",
"148 -10 OFFCURVE",
"302 -10 CURVE SMOOTH",
"499 -10 OFFCURVE",
"626 80 OFFCURVE",
"661 248 CURVE SMOOTH",
"708 468 LINE",
"866 471 OFFCURVE",
"937 525 OFFCURVE",
"972 688 CURVE",
"839 688 LINE",
"824 617 OFFCURVE",
"803 592 OFFCURVE",
"734 590 CURVE",
"745 644 LINE",
"557 644 LINE",
"477 268 LINE SMOOTH",
"460 188 OFFCURVE",
"420 150 OFFCURVE",
"336 150 CURVE SMOOTH"
);
},
{
closed = 1;
nodes = (
"601 690 OFFCURVE",
"641 706 OFFCURVE",
"658 724 CURVE",
"686 854 LINE",
"665 831 OFFCURVE",
"627 813 OFFCURVE",
"583 813 CURVE SMOOTH",
"517 813 OFFCURVE",
"471 856 OFFCURVE",
"401 856 CURVE SMOOTH",
"361 856 OFFCURVE",
"319 840 OFFCURVE",
"296 822 CURVE",
"268 693 LINE",
"298 717 OFFCURVE",
"334 733 OFFCURVE",
"378 733 CURVE SMOOTH",
"436 733 OFFCURVE",
"491 690 OFFCURVE",
"560 690 CURVE SMOOTH"
);
}
);
width = 876;
}
);
leftKerningGroup = U;
note = Uhorntilde;
rightKerningGroup = U;
unicode = 1EEE;
},
{
glyphname = Uhungarumlaut;
lastChange = "2015-10-24 04:56:43 +0000";
layers = (
{
layerId = "DD5B64A7-4DAF-4BC4-A4CC-81A10E608EA1";
name = "Bold Italic";
paths = (
{
closed = 1;
nodes = (
"288 172 OFFCURVE",
"263 189 OFFCURVE",
"263 234 CURVE SMOOTH",
"263 246 OFFCURVE",
"265 260 OFFCURVE",
"268 276 CURVE SMOOTH",
"346 644 LINE",
"131 644 LINE",
"53 275 LINE SMOOTH",
"49 254 OFFCURVE",
"46 234 OFFCURVE",
"46 214 CURVE SMOOTH",
"46 79 OFFCURVE",
"149 -10 OFFCURVE",
"305 -10 CURVE SMOOTH",
"504 -10 OFFCURVE",
"638 81 OFFCURVE",
"674 251 CURVE SMOOTH",
"757 644 LINE",
"542 644 LINE",
"464 276 LINE SMOOTH",
"448 200 OFFCURVE",
"413 172 OFFCURVE",
"344 172 CURVE SMOOTH"
);
},
{
closed = 1;
nodes = (
"392 688 LINE",
"540 882 LINE",
"359 882 LINE",
"228 688 LINE"
);
},
{
closed = 1;
nodes = (
"643 688 LINE",
"792 882 LINE",
"610 882 LINE",
"479 688 LINE"
);
}
);
width = 696;
}
);
leftKerningGroup = U;
note = Uhungarumlaut;
rightKerningGroup = U;
unicode = 0170;
},
{
glyphname = Umacron;
lastChange = "2015-10-24 04:56:43 +0000";
layers = (
{
layerId = "DD5B64A7-4DAF-4BC4-A4CC-81A10E608EA1";
name = "Bold Italic";
paths = (
{
closed = 1;
nodes = (
"288 172 OFFCURVE",
"263 189 OFFCURVE",
"263 234 CURVE SMOOTH",
"263 246 OFFCURVE",
"265 260 OFFCURVE",
"268 276 CURVE SMOOTH",
"346 644 LINE",
"131 644 LINE",
"53 275 LINE SMOOTH",
"49 254 OFFCURVE",
"46 234 OFFCURVE",
"46 214 CURVE SMOOTH",
"46 79 OFFCURVE",
"149 -10 OFFCURVE",
"305 -10 CURVE SMOOTH",
"504 -10 OFFCURVE",
"638 81 OFFCURVE",
"674 251 CURVE SMOOTH",
"757 644 LINE",
"542 644 LINE",
"464 276 LINE SMOOTH",
"448 200 OFFCURVE",
"413 172 OFFCURVE",
"344 172 CURVE SMOOTH"
);
},
{
closed = 1;
nodes = (
"319 851 LINE",
"292 725 LINE",
"630 725 LINE",
"657 851 LINE"
);
}
);
width = 696;
}
);
leftKerningGroup = U;
note = Umacron;
rightKerningGroup = U;
unicode = 016A;
},
{
glyphname = Uogonek;
lastChange = "2015-10-24 04:56:43 +0000";
layers = (
{
layerId = "DD5B64A7-4DAF-4BC4-A4CC-81A10E608EA1";
name = "Bold Italic";
paths = (
{
closed = 1;
nodes = (
"319 -54 OFFCURVE",
"341 -29 OFFCURVE",
"373 -6 CURVE",
"534 12 OFFCURVE",
"642 101 OFFCURVE",
"674 251 CURVE SMOOTH",
"757 644 LINE",
"542 644 LINE",
"464 276 LINE SMOOTH",
"448 200 OFFCURVE",
"413 172 OFFCURVE",
"344 172 CURVE SMOOTH",
"288 172 OFFCURVE",
"263 189 OFFCURVE",
"263 234 CURVE SMOOTH",
"263 246 OFFCURVE",
"265 260 OFFCURVE",
"268 276 CURVE SMOOTH",
"346 644 LINE",
"131 644 LINE",
"53 275 LINE SMOOTH",
"48 254 OFFCURVE",
"46 233 OFFCURVE",
"46 213 CURVE SMOOTH",
"46 98 OFFCURVE",
"121 17 OFFCURVE",
"241 -4 CURVE",
"189 -34 OFFCURVE",
"146 -84 OFFCURVE",
"146 -143 CURVE SMOOTH",
"146 -196 OFFCURVE",
"195 -220 OFFCURVE",
"268 -220 CURVE SMOOTH",
"314 -220 OFFCURVE",
"359 -211 OFFCURVE",
"381 -203 CURVE",
"402 -107 LINE",
"388 -114 OFFCURVE",
"366 -118 OFFCURVE",
"349 -118 CURVE SMOOTH",
"325 -118 OFFCURVE",
"312 -111 OFFCURVE",
"312 -93 CURVE SMOOTH",
"312 -90 OFFCURVE",
"312 -87 OFFCURVE",
"313 -83 CURVE SMOOTH"
);
}
);
width = 696;
}
);
leftKerningGroup = U;
note = Uogonek;
rightKerningGroup = U;
unicode = 0172;
},
{
glyphname = Uring;
lastChange = "2015-10-24 04:56:43 +0000";
layers = (
{
layerId = "DD5B64A7-4DAF-4BC4-A4CC-81A10E608EA1";
name = "Bold Italic";
paths = (
{
closed = 1;
nodes = (
"288 172 OFFCURVE",
"263 189 OFFCURVE",
"263 234 CURVE SMOOTH",
"263 246 OFFCURVE",
"265 260 OFFCURVE",
"268 276 CURVE SMOOTH",
"346 644 LINE",
"131 644 LINE",
"53 275 LINE SMOOTH",
"49 254 OFFCURVE",
"46 234 OFFCURVE",
"46 214 CURVE SMOOTH",
"46 79 OFFCURVE",
"149 -10 OFFCURVE",
"305 -10 CURVE SMOOTH",
"504 -10 OFFCURVE",
"638 81 OFFCURVE",
"674 251 CURVE SMOOTH",
"757 644 LINE",
"542 644 LINE",
"464 276 LINE SMOOTH",
"448 200 OFFCURVE",
"413 172 OFFCURVE",
"344 172 CURVE SMOOTH"
);
},
{
closed = 1;
nodes = (
"334 814 OFFCURVE",
"333 804 OFFCURVE",
"333 794 CURVE SMOOTH",
"333 732 OFFCURVE",
"375 688 OFFCURVE",
"452 688 CURVE SMOOTH",
"553 688 OFFCURVE",
"612 748 OFFCURVE",
"628 825 CURVE SMOOTH",
"630 836 OFFCURVE",
"632 847 OFFCURVE",
"632 858 CURVE SMOOTH",
"632 919 OFFCURVE",
"590 963 OFFCURVE",
"511 963 CURVE SMOOTH",
"411 963 OFFCURVE",
"353 903 OFFCURVE",
"336 825 CURVE SMOOTH"
);
},
{
closed = 1;
nodes = (
"424 844 OFFCURVE",
"451 878 OFFCURVE",
"493 878 CURVE SMOOTH",
"526 878 OFFCURVE",
"538 862 OFFCURVE",
"538 840 CURVE SMOOTH",
"538 807 OFFCURVE",
"514 773 OFFCURVE",
"470 773 CURVE SMOOTH",
"437 773 OFFCURVE",
"424 789 OFFCURVE",
"424 811 CURVE SMOOTH"
);
}
);
width = 696;
}
);
leftKerningGroup = U;
note = Uring;
rightKerningGroup = U;
unicode = 016E;
},
{
glyphname = Utilde;
lastChange = "2015-10-24 04:56:43 +0000";
layers = (
{
layerId = "DD5B64A7-4DAF-4BC4-A4CC-81A10E608EA1";
name = "Bold Italic";
paths = (
{
closed = 1;
nodes = (
"288 172 OFFCURVE",
"263 189 OFFCURVE",
"263 234 CURVE SMOOTH",
"263 246 OFFCURVE",
"265 260 OFFCURVE",
"268 276 CURVE SMOOTH",
"346 644 LINE",
"131 644 LINE",
"53 275 LINE SMOOTH",
"49 254 OFFCURVE",
"46 234 OFFCURVE",
"46 214 CURVE SMOOTH",
"46 79 OFFCURVE",
"149 -10 OFFCURVE",
"305 -10 CURVE SMOOTH",
"504 -10 OFFCURVE",
"638 81 OFFCURVE",
"674 251 CURVE SMOOTH",
"757 644 LINE",
"542 644 LINE",
"464 276 LINE SMOOTH",
"448 200 OFFCURVE",
"413 172 OFFCURVE",
"344 172 CURVE SMOOTH"
);
},
{
closed = 1;
nodes = (
"597 694 OFFCURVE",
"637 710 OFFCURVE",
"654 728 CURVE",
"682 858 LINE",
"661 835 OFFCURVE",
"623 817 OFFCURVE",
"579 817 CURVE SMOOTH",
"513 817 OFFCURVE",
"467 860 OFFCURVE",
"397 860 CURVE SMOOTH",
"357 860 OFFCURVE",
"315 844 OFFCURVE",
"292 826 CURVE",
"264 697 LINE",
"294 721 OFFCURVE",
"330 737 OFFCURVE",
"374 737 CURVE SMOOTH",
"432 737 OFFCURVE",
"487 694 OFFCURVE",
"556 694 CURVE SMOOTH"
);
}
);
width = 696;
}
);
leftKerningGroup = U;
note = Utilde;
rightKerningGroup = U;
unicode = 0168;
},
{
glyphname = V;
lastChange = "2015-10-23 13:39:41 +0000";
layers = (
{
layerId = "DD5B64A7-4DAF-4BC4-A4CC-81A10E608EA1";
name = "Bold Italic";
paths = (
{
closed = 1;
nodes = (
"386 252 LINE",
"334 644 LINE",
"116 644 LINE",
"227 0 LINE",
"452 0 LINE",
"836 644 LINE",
"605 644 LINE"
);
}
);
width = 760;
}
);
note = V;
unicode = 0056;
},
{
glyphname = W;
lastChange = "2015-10-23 13:39:41 +0000";
layers = (
{
layerId = "DD5B64A7-4DAF-4BC4-A4CC-81A10E608EA1";
name = "Bold Italic";
paths = (
{
closed = 1;
nodes = (
"507 0 LINE",
"692 0 LINE",
"977 644 LINE",
"767 644 LINE",
"639 349 LINE",
"616 644 LINE",
"441 644 LINE",
"419 541 LINE",
"325 350 LINE",
"326 644 LINE",
"116 644 LINE",
"130 0 LINE",
"326 0 LINE",
"482 293 LINE"
);
}
);
width = 901;
}
);
leftKerningGroup = W;
note = W;
rightKerningGroup = W;
unicode = 0057;
},
{
glyphname = Wacute;
lastChange = "2015-10-23 13:39:40 +0000";
layers = (
{
layerId = "DD5B64A7-4DAF-4BC4-A4CC-81A10E608EA1";
name = "Bold Italic";
paths = (
{
closed = 1;
nodes = (
"507 0 LINE",
"692 0 LINE",
"977 644 LINE",
"767 644 LINE",
"639 349 LINE",
"616 644 LINE",
"441 644 LINE",
"419 541 LINE",
"325 350 LINE",
"326 644 LINE",
"116 644 LINE",
"130 0 LINE",
"326 0 LINE",
"482 293 LINE"
);
},
{
closed = 1;
nodes = (
"612 688 LINE",
"759 904 LINE",
"593 904 LINE",
"455 688 LINE"
);
}
);
width = 901;
}
);
leftKerningGroup = W;
note = Wacute;
rightKerningGroup = W;
unicode = 1E82;
},
{
glyphname = Wcircumflex;
lastChange = "2015-10-23 13:39:41 +0000";
layers = (
{
layerId = "DD5B64A7-4DAF-4BC4-A4CC-81A10E608EA1";
name = "Bold Italic";
paths = (
{
closed = 1;
nodes = (
"507 0 LINE",
"692 0 LINE",
"977 644 LINE",
"767 644 LINE",
"639 349 LINE",
"616 644 LINE",
"441 644 LINE",
"419 541 LINE",
"325 350 LINE",
"326 644 LINE",
"116 644 LINE",
"130 0 LINE",
"326 0 LINE",
"482 293 LINE"
);
},
{
closed = 1;
nodes = (
"667 896 LINE",
"540 896 LINE",
"332 688 LINE",
"494 688 LINE",
"589 796 LINE",
"642 688 LINE",
"788 688 LINE"
);
}
);
width = 901;
}
);
leftKerningGroup = W;
note = Wcircumflex;
rightKerningGroup = W;
unicode = 0174;
},
{
glyphname = Wdieresis;
lastChange = "2015-10-23 13:39:41 +0000";
layers = (
{
layerId = "DD5B64A7-4DAF-4BC4-A4CC-81A10E608EA1";
name = "Bold Italic";
paths = (
{
closed = 1;
nodes = (
"507 0 LINE",
"692 0 LINE",
"977 644 LINE",
"767 644 LINE",
"639 349 LINE",
"616 644 LINE",
"441 644 LINE",
"419 541 LINE",
"325 350 LINE",
"326 644 LINE",
"116 644 LINE",
"130 0 LINE",
"326 0 LINE",
"482 293 LINE"
);
},
{
closed = 1;
nodes = (
"526 716 LINE",
"553 847 LINE",
"410 847 LINE",
"383 716 LINE"
);
},
{
closed = 1;
nodes = (
"751 716 LINE",
"778 847 LINE",
"635 847 LINE",
"608 716 LINE"
);
}
);
width = 901;
}
);
leftKerningGroup = W;
note = Wdieresis;
rightKerningGroup = W;
unicode = 1E84;
},
{
glyphname = Wgrave;
lastChange = "2015-10-23 13:39:41 +0000";
layers = (
{
layerId = "DD5B64A7-4DAF-4BC4-A4CC-81A10E608EA1";
name = "Bold Italic";
paths = (
{
closed = 1;
nodes = (
"507 0 LINE",
"692 0 LINE",
"977 644 LINE",
"767 644 LINE",
"639 349 LINE",
"616 644 LINE",
"441 644 LINE",
"419 541 LINE",
"325 350 LINE",
"326 644 LINE",
"116 644 LINE",
"130 0 LINE",
"326 0 LINE",
"482 293 LINE"
);
},
{
closed = 1;
nodes = (
"622 688 LINE",
"576 904 LINE",
"409 904 LINE",
"464 688 LINE"
);
}
);
width = 901;
}
);
leftKerningGroup = W;
note = Wgrave;
rightKerningGroup = W;
unicode = 1E80;
},
{
glyphname = X;
lastChange = "2015-10-24 05:06:42 +0000";
layers = (
{
layerId = "DD5B64A7-4DAF-4BC4-A4CC-81A10E608EA1";
name = "Bold Italic";
paths = (
{
closed = 1;
nodes = (
"815 644 LINE",
"591 644 LINE",
"436 475 LINE",
"354 644 LINE",
"130 644 LINE",
"292 326 LINE",
"-15 0 LINE",
"212 0 LINE",
"373 175 LINE",
"461 0 LINE",
"688 0 LINE",
"519 326 LINE"
);
}
);
width = 781;
}
);
note = X;
unicode = 0058;
},
{
glyphname = Y;
lastChange = "2015-10-23 13:39:41 +0000";
layers = (
{
layerId = "DD5B64A7-4DAF-4BC4-A4CC-81A10E608EA1";
name = "Bold Italic";
paths = (
{
closed = 1;
nodes = (
"403 420 LINE",
"334 644 LINE",
"116 644 LINE",
"261 235 LINE",
"212 0 LINE",
"427 0 LINE",
"476 235 LINE",
"796 644 LINE",
"566 644 LINE"
);
}
);
width = 720;
}
);
leftKerningGroup = Y;
note = Y;
rightKerningGroup = Y;
unicode = 0059;
},
{
glyphname = Yacute;
lastChange = "2015-10-23 13:39:40 +0000";
layers = (
{
layerId = "DD5B64A7-4DAF-4BC4-A4CC-81A10E608EA1";
name = "Bold Italic";
paths = (
{
closed = 1;
nodes = (
"403 420 LINE",
"334 644 LINE",
"116 644 LINE",
"261 235 LINE",
"212 0 LINE",
"427 0 LINE",
"476 235 LINE",
"796 644 LINE",
"566 644 LINE"
);
},
{
closed = 1;
nodes = (
"542 688 LINE",
"689 904 LINE",
"523 904 LINE",
"385 688 LINE"
);
}
);
width = 720;
}
);
leftKerningGroup = Y;
note = Yacute;
rightKerningGroup = Y;
unicode = 00DD;
},
{
glyphname = Ycircumflex;
lastChange = "2015-10-23 13:39:40 +0000";
layers = (
{
layerId = "DD5B64A7-4DAF-4BC4-A4CC-81A10E608EA1";
name = "Bold Italic";
paths = (
{
closed = 1;
nodes = (
"403 420 LINE",
"334 644 LINE",
"116 644 LINE",
"261 235 LINE",
"212 0 LINE",
"427 0 LINE",
"476 235 LINE",
"796 644 LINE",
"566 644 LINE"
);
},
{
closed = 1;
nodes = (
"573 896 LINE",
"446 896 LINE",
"238 688 LINE",
"400 688 LINE",
"495 796 LINE",
"548 688 LINE",
"694 688 LINE"
);
}
);
width = 720;
}
);
leftKerningGroup = Y;
note = Ycircumflex;
rightKerningGroup = Y;
unicode = 0176;
},
{
glyphname = Ydieresis;
lastChange = "2015-10-23 13:39:40 +0000";
layers = (
{
layerId = "DD5B64A7-4DAF-4BC4-A4CC-81A10E608EA1";
name = "Bold Italic";
paths = (
{
closed = 1;
nodes = (
"403 420 LINE",
"334 644 LINE",
"116 644 LINE",
"261 235 LINE",
"212 0 LINE",
"427 0 LINE",
"476 235 LINE",
"796 644 LINE",
"566 644 LINE"
);
},
{
closed = 1;
nodes = (
"432 716 LINE",
"459 847 LINE",
"316 847 LINE",
"289 716 LINE"
);
},
{
closed = 1;
nodes = (
"657 716 LINE",
"684 847 LINE",
"541 847 LINE",
"514 716 LINE"
);
}
);
width = 720;
}
);
leftKerningGroup = Y;
note = Ydieresis;
rightKerningGroup = Y;
unicode = 0178;
},
{
glyphname = Ydotaccent;
lastChange = "2015-10-23 13:39:40 +0000";
layers = (
{
layerId = "DD5B64A7-4DAF-4BC4-A4CC-81A10E608EA1";
name = "Bold Italic";
paths = (
{
closed = 1;
nodes = (
"403 420 LINE",
"334 644 LINE",
"116 644 LINE",
"261 235 LINE",
"212 0 LINE",
"427 0 LINE",
"476 235 LINE",
"796 644 LINE",
"566 644 LINE"
);
},
{
closed = 1;
nodes = (
"543 716 LINE",
"570 847 LINE",
"427 847 LINE",
"400 716 LINE"
);
}
);
width = 720;
}
);
leftKerningGroup = Y;
note = Ydotaccent;
rightKerningGroup = Y;
unicode = 1E8E;
},
{
glyphname = Ydotbelow;
lastChange = "2015-10-23 13:39:40 +0000";
layers = (
{
layerId = "DD5B64A7-4DAF-4BC4-A4CC-81A10E608EA1";
name = "Bold Italic";
paths = (
{
closed = 1;
nodes = (
"403 420 LINE",
"334 644 LINE",
"116 644 LINE",
"261 235 LINE",
"212 0 LINE",
"427 0 LINE",
"476 235 LINE",
"796 644 LINE",
"566 644 LINE"
);
},
{
closed = 1;
nodes = (
"355 -175 LINE",
"383 -45 LINE",
"240 -45 LINE",
"212 -175 LINE"
);
}
);
width = 720;
}
);
leftKerningGroup = Y;
note = Ydotbelow;
rightKerningGroup = Y;
unicode = 1EF4;
},
{
glyphname = Ygrave;
lastChange = "2015-10-23 13:39:40 +0000";
layers = (
{
layerId = "DD5B64A7-4DAF-4BC4-A4CC-81A10E608EA1";
name = "Bold Italic";
paths = (
{
closed = 1;
nodes = (
"403 420 LINE",
"334 644 LINE",
"116 644 LINE",
"261 235 LINE",
"212 0 LINE",
"427 0 LINE",
"476 235 LINE",
"796 644 LINE",
"566 644 LINE"
);
},
{
closed = 1;
nodes = (
"543 688 LINE",
"497 904 LINE",
"330 904 LINE",
"385 688 LINE"
);
}
);
width = 720;
}
);
leftKerningGroup = Y;
note = Ygrave;
rightKerningGroup = Y;
unicode = 1EF2;
},
{
glyphname = Yhookabove;
lastChange = "2015-10-24 04:56:43 +0000";
layers = (
{
layerId = "DD5B64A7-4DAF-4BC4-A4CC-81A10E608EA1";
name = "Bold Italic";
paths = (
{
closed = 1;
nodes = (
"403 420 LINE",
"334 644 LINE",
"116 644 LINE",
"261 235 LINE",
"212 0 LINE",
"427 0 LINE",
"476 235 LINE",
"796 644 LINE",
"566 644 LINE"
);
},
{
closed = 1;
nodes = (
"659 835 OFFCURVE",
"659 842 OFFCURVE",
"659 848 CURVE SMOOTH",
"659 898 OFFCURVE",
"616 932 OFFCURVE",
"533 932 CURVE SMOOTH",
"480 932 OFFCURVE",
"439 927 OFFCURVE",
"407 918 CURVE",
"389 832 LINE",
"406 837 OFFCURVE",
"429 841 OFFCURVE",
"449 841 CURVE SMOOTH",
"481 841 OFFCURVE",
"498 834 OFFCURVE",
"498 817 CURVE SMOOTH",
"498 791 OFFCURVE",
"476 773 OFFCURVE",
"401 769 CURVE",
"384 688 LINE",
"544 688 LINE",
"552 726 LINE",
"612 743 OFFCURVE",
"644 769 OFFCURVE",
"657 828 CURVE SMOOTH"
);
}
);
width = 720;
}
);
leftKerningGroup = Y;
note = Yhookabove;
rightKerningGroup = Y;
unicode = 1EF6;
},
{
glyphname = Ytilde;
lastChange = "2015-10-23 13:39:41 +0000";
layers = (
{
layerId = "DD5B64A7-4DAF-4BC4-A4CC-81A10E608EA1";
name = "Bold Italic";
paths = (
{
closed = 1;
nodes = (
"403 420 LINE",
"334 644 LINE",
"116 644 LINE",
"261 235 LINE",
"212 0 LINE",
"427 0 LINE",
"476 235 LINE",
"796 644 LINE",
"566 644 LINE"
);
},
{
closed = 1;
nodes = (
"609 694 OFFCURVE",
"649 710 OFFCURVE",
"666 728 CURVE",
"694 858 LINE",
"673 835 OFFCURVE",
"635 817 OFFCURVE",
"591 817 CURVE SMOOTH",
"525 817 OFFCURVE",
"479 860 OFFCURVE",
"409 860 CURVE SMOOTH",
"369 860 OFFCURVE",
"327 844 OFFCURVE",
"304 826 CURVE",
"276 697 LINE",
"306 721 OFFCURVE",
"342 737 OFFCURVE",
"386 737 CURVE SMOOTH",
"444 737 OFFCURVE",
"499 694 OFFCURVE",
"568 694 CURVE SMOOTH"
);
}
);
width = 720;
}
);
leftKerningGroup = Y;
note = Ytilde;
rightKerningGroup = Y;
unicode = 1EF8;
},
{
glyphname = Z;
lastChange = "2015-10-24 05:06:32 +0000";
layers = (
{
layerId = "DD5B64A7-4DAF-4BC4-A4CC-81A10E608EA1";
name = "Bold Italic";
paths = (
{
closed = 1;
nodes = (
"527 0 LINE",
"561 164 LINE",
"300 164 LINE",
"632 526 LINE",
"657 644 LINE",
"130 644 LINE",
"94 473 LINE",
"338 473 LINE",
"2 106 LINE",
"-20 0 LINE"
);
}
);
width = 582;
}
);
note = Z;
unicode = 005A;
},
{
glyphname = Zacute;
lastChange = "2015-10-23 13:39:41 +0000";
layers = (
{
layerId = "DD5B64A7-4DAF-4BC4-A4CC-81A10E608EA1";
name = "Bold Italic";
paths = (
{
closed = 1;
nodes = (
"527 0 LINE",
"561 164 LINE",
"300 164 LINE",
"632 526 LINE",
"657 644 LINE",
"130 644 LINE",
"94 473 LINE",
"338 473 LINE",
"2 106 LINE",
"-20 0 LINE"
);
},
{
closed = 1;
nodes = (
"463 688 LINE",
"610 904 LINE",
"444 904 LINE",
"306 688 LINE"
);
}
);
width = 582;
}
);
note = Zacute;
unicode = 0179;
},
{
glyphname = Zcaron;
lastChange = "2015-10-23 13:39:40 +0000";
layers = (
{
layerId = "DD5B64A7-4DAF-4BC4-A4CC-81A10E608EA1";
name = "Bold Italic";
paths = (
{
closed = 1;
nodes = (
"527 0 LINE",
"561 164 LINE",
"300 164 LINE",
"632 526 LINE",
"657 644 LINE",
"130 644 LINE",
"94 473 LINE",
"338 473 LINE",
"2 106 LINE",
"-20 0 LINE"
);
},
{
closed = 1;
nodes = (
"685 896 LINE",
"527 896 LINE",
"428 788 LINE",
"378 896 LINE",
"229 896 LINE",
"350 688 LINE",
"476 688 LINE"
);
}
);
width = 584;
}
);
note = Zcaron;
unicode = 017D;
},
{
glyphname = Zdotaccent;
lastChange = "2015-10-23 13:39:40 +0000";
layers = (
{
layerId = "DD5B64A7-4DAF-4BC4-A4CC-81A10E608EA1";
name = "Bold Italic";
paths = (
{
closed = 1;
nodes = (
"527 0 LINE",
"561 164 LINE",
"300 164 LINE",
"632 526 LINE",
"657 644 LINE",
"130 644 LINE",
"94 473 LINE",
"338 473 LINE",
"2 106 LINE",
"-20 0 LINE"
);
},
{
closed = 1;
nodes = (
"482 716 LINE",
"509 847 LINE",
"366 847 LINE",
"339 716 LINE"
);
}
);
width = 584;
}
);
note = Zdotaccent;
unicode = 017B;
},
{
glyphname = Zdotbelow;
lastChange = "2015-10-23 13:39:41 +0000";
layers = (
{
layerId = "DD5B64A7-4DAF-4BC4-A4CC-81A10E608EA1";
name = "Bold Italic";
paths = (
{
closed = 1;
nodes = (
"527 0 LINE",
"561 164 LINE",
"300 164 LINE",
"632 526 LINE",
"657 644 LINE",
"130 644 LINE",
"94 473 LINE",
"338 473 LINE",
"2 106 LINE",
"-20 0 LINE"
);
},
{
closed = 1;
nodes = (
"294 -176 LINE",
"322 -46 LINE",
"179 -46 LINE",
"151 -176 LINE"
);
}
);
width = 582;
}
);
note = Zdotbelow;
unicode = 1E92;
},
{
glyphname = a;
lastChange = "2015-10-24 05:04:09 +0000";
layers = (
{
layerId = "DD5B64A7-4DAF-4BC4-A4CC-81A10E608EA1";
name = "Bold Italic";
paths = (
{
closed = 1;
nodes = (
"21 196 OFFCURVE",
"19 175 OFFCURVE",
"19 155 CURVE SMOOTH",
"19 49 OFFCURVE",
"86 -10 OFFCURVE",
"193 -10 CURVE SMOOTH",
"258 -10 OFFCURVE",
"305 6 OFFCURVE",
"348 34 CURVE",
"351 0 LINE",
"537 0 LINE",
"637 474 LINE",
"422 474 LINE",
"417 449 LINE",
"398 468 OFFCURVE",
"364 484 OFFCURVE",
"311 484 CURVE SMOOTH",
"173 484 OFFCURVE",
"62 394 OFFCURVE",
"26 218 CURVE SMOOTH"
);
},
{
closed = 1;
nodes = (
"357 166 LINE",
"344 153 OFFCURVE",
"322 144 OFFCURVE",
"294 144 CURVE SMOOTH",
"260 144 OFFCURVE",
"241 154 OFFCURVE",
"241 188 CURVE SMOOTH",
"241 196 OFFCURVE",
"243 206 OFFCURVE",
"245 218 CURVE SMOOTH",
"260 290 OFFCURVE",
"289 329 OFFCURVE",
"339 329 CURVE SMOOTH",
"363 329 OFFCURVE",
"377 322 OFFCURVE",
"387 309 CURVE"
);
}
);
width = 617;
}
);
leftKerningGroup = a;
note = a;
unicode = 0061;
},
{
glyphname = aacute;
lastChange = "2015-10-24 04:56:43 +0000";
layers = (
{
layerId = "DD5B64A7-4DAF-4BC4-A4CC-81A10E608EA1";
name = "Bold Italic";
paths = (
{
closed = 1;
nodes = (
"21 196 OFFCURVE",
"19 175 OFFCURVE",
"19 155 CURVE SMOOTH",
"19 49 OFFCURVE",
"86 -10 OFFCURVE",
"193 -10 CURVE SMOOTH",
"258 -10 OFFCURVE",
"305 6 OFFCURVE",
"348 34 CURVE",
"351 0 LINE",
"537 0 LINE",
"637 474 LINE",
"422 474 LINE",
"417 449 LINE",
"398 468 OFFCURVE",
"364 484 OFFCURVE",
"311 484 CURVE SMOOTH",
"173 484 OFFCURVE",
"62 394 OFFCURVE",
"26 218 CURVE SMOOTH"
);
},
{
closed = 1;
nodes = (
"357 166 LINE",
"344 153 OFFCURVE",
"322 144 OFFCURVE",
"294 144 CURVE SMOOTH",
"260 144 OFFCURVE",
"241 154 OFFCURVE",
"241 188 CURVE SMOOTH",
"241 196 OFFCURVE",
"243 206 OFFCURVE",
"245 218 CURVE SMOOTH",
"260 290 OFFCURVE",
"289 329 OFFCURVE",
"339 329 CURVE SMOOTH",
"363 329 OFFCURVE",
"377 322 OFFCURVE",
"387 309 CURVE"
);
},
{
closed = 1;
nodes = (
"439 522 LINE",
"586 738 LINE",
"420 738 LINE",
"282 522 LINE"
);
}
);
width = 579;
}
);
leftKerningGroup = a;
note = aacute;
unicode = 00E1;
},
{
glyphname = abreve;
lastChange = "2015-10-24 04:56:43 +0000";
layers = (
{
layerId = "DD5B64A7-4DAF-4BC4-A4CC-81A10E608EA1";
name = "Bold Italic";
paths = (
{
closed = 1;
nodes = (
"21 196 OFFCURVE",
"19 175 OFFCURVE",
"19 155 CURVE SMOOTH",
"19 49 OFFCURVE",
"86 -10 OFFCURVE",
"193 -10 CURVE SMOOTH",
"258 -10 OFFCURVE",
"305 6 OFFCURVE",
"348 34 CURVE",
"351 0 LINE",
"537 0 LINE",
"637 474 LINE",
"422 474 LINE",
"417 449 LINE",
"398 468 OFFCURVE",
"364 484 OFFCURVE",
"311 484 CURVE SMOOTH",
"173 484 OFFCURVE",
"62 394 OFFCURVE",
"26 218 CURVE SMOOTH"
);
},
{
closed = 1;
nodes = (
"357 166 LINE",
"344 153 OFFCURVE",
"322 144 OFFCURVE",
"294 144 CURVE SMOOTH",
"260 144 OFFCURVE",
"241 154 OFFCURVE",
"241 188 CURVE SMOOTH",
"241 196 OFFCURVE",
"243 206 OFFCURVE",
"245 218 CURVE SMOOTH",
"260 290 OFFCURVE",
"289 329 OFFCURVE",
"339 329 CURVE SMOOTH",
"363 329 OFFCURVE",
"377 322 OFFCURVE",
"387 309 CURVE"
);
},
{
closed = 1;
nodes = (
"208 726 LINE",
"204 706 OFFCURVE",
"202 687 OFFCURVE",
"202 669 CURVE SMOOTH",
"202 574 OFFCURVE",
"265 522 OFFCURVE",
"368 522 CURVE SMOOTH",
"501 522 OFFCURVE",
"589 594 OFFCURVE",
"617 726 CURVE",
"473 726 LINE",
"463 679 OFFCURVE",
"446 640 OFFCURVE",
"388 640 CURVE SMOOTH",
"348 640 OFFCURVE",
"336 661 OFFCURVE",
"336 691 CURVE SMOOTH",
"336 702 OFFCURVE",
"337 713 OFFCURVE",
"340 726 CURVE"
);
}
);
width = 577;
}
);
leftKerningGroup = a;
note = abreve;
unicode = 0103;
},
{
glyphname = abreveacute;
lastChange = "2015-10-24 04:56:43 +0000";
layers = (
{
layerId = "DD5B64A7-4DAF-4BC4-A4CC-81A10E608EA1";
name = "Bold Italic";
paths = (
{
closed = 1;
nodes = (
"21 196 OFFCURVE",
"19 175 OFFCURVE",
"19 155 CURVE SMOOTH",
"19 49 OFFCURVE",
"86 -10 OFFCURVE",
"193 -10 CURVE SMOOTH",
"258 -10 OFFCURVE",
"305 6 OFFCURVE",
"348 34 CURVE",
"351 0 LINE",
"537 0 LINE",
"637 474 LINE",
"422 474 LINE",
"417 449 LINE",
"398 468 OFFCURVE",
"364 484 OFFCURVE",
"311 484 CURVE SMOOTH",
"173 484 OFFCURVE",
"62 394 OFFCURVE",
"26 218 CURVE SMOOTH"
);
},
{
closed = 1;
nodes = (
"357 166 LINE",
"344 153 OFFCURVE",
"322 144 OFFCURVE",
"294 144 CURVE SMOOTH",
"260 144 OFFCURVE",
"241 154 OFFCURVE",
"241 188 CURVE SMOOTH",
"241 196 OFFCURVE",
"243 206 OFFCURVE",
"245 218 CURVE SMOOTH",
"260 290 OFFCURVE",
"289 329 OFFCURVE",
"339 329 CURVE SMOOTH",
"363 329 OFFCURVE",
"377 322 OFFCURVE",
"387 309 CURVE"
);
},
{
closed = 1;
nodes = (
"216 702 LINE",
"213 685 OFFCURVE",
"211 670 OFFCURVE",
"211 656 CURVE SMOOTH",
"211 565 OFFCURVE",
"276 522 OFFCURVE",
"368 522 CURVE SMOOTH",
"488 522 OFFCURVE",
"570 577 OFFCURVE",
"596 702 CURVE",
"474 702 LINE",
"466 656 OFFCURVE",
"441 626 OFFCURVE",
"387 626 CURVE SMOOTH",
"346 626 OFFCURVE",
"329 641 OFFCURVE",
"329 672 CURVE SMOOTH",
"329 681 OFFCURVE",
"331 691 OFFCURVE",
"333 702 CURVE"
);
},
{
closed = 1;
nodes = (
"474 726 LINE",
"586 874 LINE",
"445 874 LINE",
"346 726 LINE"
);
}
);
width = 577;
}
);
leftKerningGroup = a;
note = abreveacute;
unicode = 1EAF;
},
{
glyphname = abrevedotbelow;
lastChange = "2015-10-24 04:56:43 +0000";
layers = (
{
layerId = "DD5B64A7-4DAF-4BC4-A4CC-81A10E608EA1";
name = "Bold Italic";
paths = (
{
closed = 1;
nodes = (
"21 196 OFFCURVE",
"19 175 OFFCURVE",
"19 155 CURVE SMOOTH",
"19 49 OFFCURVE",
"86 -10 OFFCURVE",
"193 -10 CURVE SMOOTH",
"258 -10 OFFCURVE",
"305 6 OFFCURVE",
"348 34 CURVE",
"351 0 LINE",
"537 0 LINE",
"637 474 LINE",
"422 474 LINE",
"417 449 LINE",
"398 468 OFFCURVE",
"364 484 OFFCURVE",
"311 484 CURVE SMOOTH",
"173 484 OFFCURVE",
"62 394 OFFCURVE",
"26 218 CURVE SMOOTH"
);
},
{
closed = 1;
nodes = (
"357 166 LINE",
"344 153 OFFCURVE",
"322 144 OFFCURVE",
"294 144 CURVE SMOOTH",
"260 144 OFFCURVE",
"241 154 OFFCURVE",
"241 188 CURVE SMOOTH",
"241 196 OFFCURVE",
"243 206 OFFCURVE",
"245 218 CURVE SMOOTH",
"260 290 OFFCURVE",
"289 329 OFFCURVE",
"339 329 CURVE SMOOTH",
"363 329 OFFCURVE",
"377 322 OFFCURVE",
"387 309 CURVE"
);
},
{
closed = 1;
nodes = (
"220 726 LINE",
"216 706 OFFCURVE",
"214 687 OFFCURVE",
"214 669 CURVE SMOOTH",
"214 574 OFFCURVE",
"277 522 OFFCURVE",
"380 522 CURVE SMOOTH",
"513 522 OFFCURVE",
"601 594 OFFCURVE",
"629 726 CURVE",
"485 726 LINE",
"475 679 OFFCURVE",
"458 640 OFFCURVE",
"400 640 CURVE SMOOTH",
"360 640 OFFCURVE",
"348 661 OFFCURVE",
"348 691 CURVE SMOOTH",
"348 702 OFFCURVE",
"349 713 OFFCURVE",
"352 726 CURVE"
);
},
{
closed = 1;
nodes = (
"308 -176 LINE",
"336 -46 LINE",
"193 -46 LINE",
"165 -176 LINE"
);
}
);
width = 577;
}
);
leftKerningGroup = a;
note = abrevedotbelow;
unicode = 1EB7;
},
{
glyphname = abrevegrave;
lastChange = "2015-10-24 04:56:43 +0000";
layers = (
{
layerId = "DD5B64A7-4DAF-4BC4-A4CC-81A10E608EA1";
name = "Bold Italic";
paths = (
{
closed = 1;
nodes = (
"21 196 OFFCURVE",
"19 175 OFFCURVE",
"19 155 CURVE SMOOTH",
"19 49 OFFCURVE",
"86 -10 OFFCURVE",
"193 -10 CURVE SMOOTH",
"258 -10 OFFCURVE",
"305 6 OFFCURVE",
"348 34 CURVE",
"351 0 LINE",
"537 0 LINE",
"637 474 LINE",
"422 474 LINE",
"417 449 LINE",
"398 468 OFFCURVE",
"364 484 OFFCURVE",
"311 484 CURVE SMOOTH",
"173 484 OFFCURVE",
"62 394 OFFCURVE",
"26 218 CURVE SMOOTH"
);
},
{
closed = 1;
nodes = (
"357 166 LINE",
"344 153 OFFCURVE",
"322 144 OFFCURVE",
"294 144 CURVE SMOOTH",
"260 144 OFFCURVE",
"241 154 OFFCURVE",
"241 188 CURVE SMOOTH",
"241 196 OFFCURVE",
"243 206 OFFCURVE",
"245 218 CURVE SMOOTH",
"260 290 OFFCURVE",
"289 329 OFFCURVE",
"339 329 CURVE SMOOTH",
"363 329 OFFCURVE",
"377 322 OFFCURVE",
"387 309 CURVE"
);
},
{
closed = 1;
nodes = (
"479 726 LINE",
"444 874 LINE",
"303 874 LINE",
"351 726 LINE"
);
},
{
closed = 1;
nodes = (
"219 702 LINE",
"216 685 OFFCURVE",
"214 670 OFFCURVE",
"214 656 CURVE SMOOTH",
"214 565 OFFCURVE",
"279 522 OFFCURVE",
"371 522 CURVE SMOOTH",
"491 522 OFFCURVE",
"573 577 OFFCURVE",
"599 702 CURVE",
"477 702 LINE",
"469 656 OFFCURVE",
"444 626 OFFCURVE",
"390 626 CURVE SMOOTH",
"349 626 OFFCURVE",
"332 641 OFFCURVE",
"332 672 CURVE SMOOTH",
"332 681 OFFCURVE",
"334 691 OFFCURVE",
"336 702 CURVE"
);
}
);
width = 577;
}
);
leftKerningGroup = a;
note = abrevegrave;
unicode = 1EB1;
},
{
glyphname = abrevehookabove;
lastChange = "2015-10-24 04:56:43 +0000";
layers = (
{
layerId = "DD5B64A7-4DAF-4BC4-A4CC-81A10E608EA1";
name = "Bold Italic";
paths = (
{
closed = 1;
nodes = (
"21 196 OFFCURVE",
"19 175 OFFCURVE",
"19 155 CURVE SMOOTH",
"19 49 OFFCURVE",
"86 -10 OFFCURVE",
"193 -10 CURVE SMOOTH",
"258 -10 OFFCURVE",
"305 6 OFFCURVE",
"348 34 CURVE",
"351 0 LINE",
"537 0 LINE",
"637 474 LINE",
"422 474 LINE",
"417 449 LINE",
"398 468 OFFCURVE",
"364 484 OFFCURVE",
"311 484 CURVE SMOOTH",
"173 484 OFFCURVE",
"62 394 OFFCURVE",
"26 218 CURVE SMOOTH"
);
},
{
closed = 1;
nodes = (
"357 166 LINE",
"344 153 OFFCURVE",
"322 144 OFFCURVE",
"294 144 CURVE SMOOTH",
"260 144 OFFCURVE",
"241 154 OFFCURVE",
"241 188 CURVE SMOOTH",
"241 196 OFFCURVE",
"243 206 OFFCURVE",
"245 218 CURVE SMOOTH",
"260 290 OFFCURVE",
"289 329 OFFCURVE",
"339 329 CURVE SMOOTH",
"363 329 OFFCURVE",
"377 322 OFFCURVE",
"387 309 CURVE"
);
},
{
closed = 1;
nodes = (
"574 829 OFFCURVE",
"575 835 OFFCURVE",
"575 840 CURVE SMOOTH",
"575 880 OFFCURVE",
"540 910 OFFCURVE",
"473 910 CURVE SMOOTH",
"434 910 OFFCURVE",
"392 904 OFFCURVE",
"367 897 CURVE",
"351 825 LINE",
"364 830 OFFCURVE",
"383 835 OFFCURVE",
"400 835 CURVE SMOOTH",
"426 835 OFFCURVE",
"440 831 OFFCURVE",
"440 816 CURVE SMOOTH",
"440 794 OFFCURVE",
"418 779 OFFCURVE",
"360 777 CURVE",
"347 716 LINE",
"480 716 LINE",
"486 744 LINE",
"539 757 OFFCURVE",
"564 780 OFFCURVE",
"573 824 CURVE SMOOTH"
);
},
{
closed = 1;
nodes = (
"221 702 LINE",
"218 685 OFFCURVE",
"216 670 OFFCURVE",
"216 656 CURVE SMOOTH",
"216 565 OFFCURVE",
"281 522 OFFCURVE",
"373 522 CURVE SMOOTH",
"493 522 OFFCURVE",
"575 577 OFFCURVE",
"601 702 CURVE",
"479 702 LINE",
"471 656 OFFCURVE",
"446 626 OFFCURVE",
"392 626 CURVE SMOOTH",
"351 626 OFFCURVE",
"334 641 OFFCURVE",
"334 672 CURVE SMOOTH",
"334 681 OFFCURVE",
"336 691 OFFCURVE",
"338 702 CURVE"
);
}
);
width = 577;
}
);
leftKerningGroup = a;
note = abrevehookabove;
unicode = 1EB3;
},
{
glyphname = abrevetilde;
lastChange = "2015-10-24 04:56:43 +0000";
layers = (
{
layerId = "DD5B64A7-4DAF-4BC4-A4CC-81A10E608EA1";
name = "Bold Italic";
paths = (
{
closed = 1;
nodes = (
"21 196 OFFCURVE",
"19 175 OFFCURVE",
"19 155 CURVE SMOOTH",
"19 49 OFFCURVE",
"86 -10 OFFCURVE",
"193 -10 CURVE SMOOTH",
"258 -10 OFFCURVE",
"305 6 OFFCURVE",
"348 34 CURVE",
"351 0 LINE",
"537 0 LINE",
"637 474 LINE",
"422 474 LINE",
"417 449 LINE",
"398 468 OFFCURVE",
"364 484 OFFCURVE",
"311 484 CURVE SMOOTH",
"173 484 OFFCURVE",
"62 394 OFFCURVE",
"26 218 CURVE SMOOTH"
);
},
{
closed = 1;
nodes = (
"357 166 LINE",
"344 153 OFFCURVE",
"322 144 OFFCURVE",
"294 144 CURVE SMOOTH",
"260 144 OFFCURVE",
"241 154 OFFCURVE",
"241 188 CURVE SMOOTH",
"241 196 OFFCURVE",
"243 206 OFFCURVE",
"245 218 CURVE SMOOTH",
"260 290 OFFCURVE",
"289 329 OFFCURVE",
"339 329 CURVE SMOOTH",
"363 329 OFFCURVE",
"377 322 OFFCURVE",
"387 309 CURVE"
);
},
{
closed = 1;
nodes = (
"555 723 OFFCURVE",
"592 738 OFFCURVE",
"608 755 CURVE",
"630 861 LINE",
"610 838 OFFCURVE",
"575 822 OFFCURVE",
"534 822 CURVE SMOOTH",
"474 822 OFFCURVE",
"431 863 OFFCURVE",
"366 863 CURVE SMOOTH",
"328 863 OFFCURVE",
"289 849 OFFCURVE",
"268 831 CURVE",
"245 726 LINE",
"273 750 OFFCURVE",
"307 764 OFFCURVE",
"348 764 CURVE SMOOTH",
"402 764 OFFCURVE",
"453 723 OFFCURVE",
"516 723 CURVE SMOOTH"
);
},
{
closed = 1;
nodes = (
"227 702 LINE",
"224 685 OFFCURVE",
"222 670 OFFCURVE",
"222 656 CURVE SMOOTH",
"222 565 OFFCURVE",
"287 522 OFFCURVE",
"379 522 CURVE SMOOTH",
"499 522 OFFCURVE",
"581 577 OFFCURVE",
"607 702 CURVE",
"485 702 LINE",
"477 656 OFFCURVE",
"452 626 OFFCURVE",
"398 626 CURVE SMOOTH",
"357 626 OFFCURVE",
"340 641 OFFCURVE",
"340 672 CURVE SMOOTH",
"340 681 OFFCURVE",
"342 691 OFFCURVE",
"344 702 CURVE"
);
}
);
width = 577;
}
);
leftKerningGroup = a;
note = abrevetilde;
unicode = 1EB5;
},
{
glyphname = acaron;
lastChange = "2015-10-24 04:56:43 +0000";
layers = (
{
layerId = "DD5B64A7-4DAF-4BC4-A4CC-81A10E608EA1";
name = "Bold Italic";
paths = (
{
closed = 1;
nodes = (
"21 196 OFFCURVE",
"19 175 OFFCURVE",
"19 155 CURVE SMOOTH",
"19 49 OFFCURVE",
"86 -10 OFFCURVE",
"193 -10 CURVE SMOOTH",
"258 -10 OFFCURVE",
"305 6 OFFCURVE",
"348 34 CURVE",
"351 0 LINE",
"537 0 LINE",
"637 474 LINE",
"422 474 LINE",
"417 449 LINE",
"398 468 OFFCURVE",
"364 484 OFFCURVE",
"311 484 CURVE SMOOTH",
"173 484 OFFCURVE",
"62 394 OFFCURVE",
"26 218 CURVE SMOOTH"
);
},
{
closed = 1;
nodes = (
"357 166 LINE",
"344 153 OFFCURVE",
"322 144 OFFCURVE",
"294 144 CURVE SMOOTH",
"260 144 OFFCURVE",
"241 154 OFFCURVE",
"241 188 CURVE SMOOTH",
"241 196 OFFCURVE",
"243 206 OFFCURVE",
"245 218 CURVE SMOOTH",
"260 290 OFFCURVE",
"289 329 OFFCURVE",
"339 329 CURVE SMOOTH",
"363 329 OFFCURVE",
"377 322 OFFCURVE",
"387 309 CURVE"
);
},
{
closed = 1;
nodes = (
"637 729 LINE",
"479 729 LINE",
"380 621 LINE",
"330 729 LINE",
"181 729 LINE",
"302 521 LINE",
"428 521 LINE"
);
}
);
width = 577;
}
);
leftKerningGroup = a;
note = acaron;
unicode = 01CE;
},
{
glyphname = acircumflex;
lastChange = "2015-10-24 04:56:43 +0000";
layers = (
{
layerId = "DD5B64A7-4DAF-4BC4-A4CC-81A10E608EA1";
name = "Bold Italic";
paths = (
{
closed = 1;
nodes = (
"29 196 OFFCURVE",
"27 175 OFFCURVE",
"27 155 CURVE SMOOTH",
"27 49 OFFCURVE",
"94 -10 OFFCURVE",
"201 -10 CURVE SMOOTH",
"266 -10 OFFCURVE",
"313 6 OFFCURVE",
"356 34 CURVE",
"359 0 LINE",
"545 0 LINE",
"645 474 LINE",
"430 474 LINE",
"425 449 LINE",
"406 468 OFFCURVE",
"372 484 OFFCURVE",
"319 484 CURVE SMOOTH",
"181 484 OFFCURVE",
"70 394 OFFCURVE",
"34 218 CURVE SMOOTH"
);
},
{
closed = 1;
nodes = (
"365 166 LINE",
"352 153 OFFCURVE",
"330 144 OFFCURVE",
"302 144 CURVE SMOOTH",
"268 144 OFFCURVE",
"249 154 OFFCURVE",
"249 188 CURVE SMOOTH",
"249 196 OFFCURVE",
"251 206 OFFCURVE",
"253 218 CURVE SMOOTH",
"268 290 OFFCURVE",
"297 329 OFFCURVE",
"347 329 CURVE SMOOTH",
"371 329 OFFCURVE",
"385 322 OFFCURVE",
"395 309 CURVE"
);
},
{
closed = 1;
nodes = (
"483 730 LINE",
"356 730 LINE",
"148 522 LINE",
"310 522 LINE",
"405 630 LINE",
"458 522 LINE",
"604 522 LINE"
);
}
);
width = 586;
}
);
leftKerningGroup = a;
note = acircumflex;
unicode = 00E2;
},
{
glyphname = acircumflexacute;
lastChange = "2015-10-24 04:56:44 +0000";
layers = (
{
layerId = "DD5B64A7-4DAF-4BC4-A4CC-81A10E608EA1";
name = "Bold Italic";
paths = (
{
closed = 1;
nodes = (
"21 196 OFFCURVE",
"19 175 OFFCURVE",
"19 155 CURVE SMOOTH",
"19 49 OFFCURVE",
"86 -10 OFFCURVE",
"193 -10 CURVE SMOOTH",
"258 -10 OFFCURVE",
"305 6 OFFCURVE",
"348 34 CURVE",
"351 0 LINE",
"537 0 LINE",
"637 474 LINE",
"422 474 LINE",
"417 449 LINE",
"398 468 OFFCURVE",
"364 484 OFFCURVE",
"311 484 CURVE SMOOTH",
"173 484 OFFCURVE",
"62 394 OFFCURVE",
"26 218 CURVE SMOOTH"
);
},
{
closed = 1;
nodes = (
"357 166 LINE",
"344 153 OFFCURVE",
"322 144 OFFCURVE",
"294 144 CURVE SMOOTH",
"260 144 OFFCURVE",
"241 154 OFFCURVE",
"241 188 CURVE SMOOTH",
"241 196 OFFCURVE",
"243 206 OFFCURVE",
"245 218 CURVE SMOOTH",
"260 290 OFFCURVE",
"289 329 OFFCURVE",
"339 329 CURVE SMOOTH",
"363 329 OFFCURVE",
"377 322 OFFCURVE",
"387 309 CURVE"
);
},
{
closed = 1;
nodes = (
"481 682 LINE",
"325 682 LINE",
"141 522 LINE",
"317 522 LINE",
"390 599 LINE",
"433 522 LINE",
"596 522 LINE"
);
},
{
closed = 1;
nodes = (
"678 650 LINE",
"793 814 LINE",
"636 814 LINE",
"529 650 LINE"
);
}
);
width = 577;
}
);
leftKerningGroup = a;
note = acircumflexacute;
unicode = 1EA5;
},
{
glyphname = acircumflexdotbelow;
lastChange = "2015-10-24 04:56:44 +0000";
layers = (
{
layerId = "DD5B64A7-4DAF-4BC4-A4CC-81A10E608EA1";
name = "Bold Italic";
paths = (
{
closed = 1;
nodes = (
"21 196 OFFCURVE",
"19 175 OFFCURVE",
"19 155 CURVE SMOOTH",
"19 49 OFFCURVE",
"86 -10 OFFCURVE",
"193 -10 CURVE SMOOTH",
"258 -10 OFFCURVE",
"305 6 OFFCURVE",
"348 34 CURVE",
"351 0 LINE",
"537 0 LINE",
"637 474 LINE",
"422 474 LINE",
"417 449 LINE",
"398 468 OFFCURVE",
"364 484 OFFCURVE",
"311 484 CURVE SMOOTH",
"173 484 OFFCURVE",
"62 394 OFFCURVE",
"26 218 CURVE SMOOTH"
);
},
{
closed = 1;
nodes = (
"357 166 LINE",
"344 153 OFFCURVE",
"322 144 OFFCURVE",
"294 144 CURVE SMOOTH",
"260 144 OFFCURVE",
"241 154 OFFCURVE",
"241 188 CURVE SMOOTH",
"241 196 OFFCURVE",
"243 206 OFFCURVE",
"245 218 CURVE SMOOTH",
"260 290 OFFCURVE",
"289 329 OFFCURVE",
"339 329 CURVE SMOOTH",
"363 329 OFFCURVE",
"377 322 OFFCURVE",
"387 309 CURVE"
);
},
{
closed = 1;
nodes = (
"478 730 LINE",
"351 730 LINE",
"143 522 LINE",
"305 522 LINE",
"400 630 LINE",
"453 522 LINE",
"599 522 LINE"
);
},
{
closed = 1;
nodes = (
"296 -176 LINE",
"324 -46 LINE",
"181 -46 LINE",
"153 -176 LINE"
);
}
);
width = 577;
}
);
leftKerningGroup = a;
note = acircumflexdotbelow;
unicode = 1EAD;
},
{
glyphname = acircumflexgrave;
lastChange = "2015-10-24 04:56:43 +0000";
layers = (
{
layerId = "DD5B64A7-4DAF-4BC4-A4CC-81A10E608EA1";
name = "Bold Italic";
paths = (
{
closed = 1;
nodes = (
"21 196 OFFCURVE",
"19 175 OFFCURVE",
"19 155 CURVE SMOOTH",
"19 49 OFFCURVE",
"86 -10 OFFCURVE",
"193 -10 CURVE SMOOTH",
"258 -10 OFFCURVE",
"305 6 OFFCURVE",
"348 34 CURVE",
"351 0 LINE",
"537 0 LINE",
"637 474 LINE",
"422 474 LINE",
"417 449 LINE",
"398 468 OFFCURVE",
"364 484 OFFCURVE",
"311 484 CURVE SMOOTH",
"173 484 OFFCURVE",
"62 394 OFFCURVE",
"26 218 CURVE SMOOTH"
);
},
{
closed = 1;
nodes = (
"357 166 LINE",
"344 153 OFFCURVE",
"322 144 OFFCURVE",
"294 144 CURVE SMOOTH",
"260 144 OFFCURVE",
"241 154 OFFCURVE",
"241 188 CURVE SMOOTH",
"241 196 OFFCURVE",
"243 206 OFFCURVE",
"245 218 CURVE SMOOTH",
"260 290 OFFCURVE",
"289 329 OFFCURVE",
"339 329 CURVE SMOOTH",
"363 329 OFFCURVE",
"377 322 OFFCURVE",
"387 309 CURVE"
);
},
{
closed = 1;
nodes = (
"145 522 LINE",
"318 522 LINE",
"393 599 LINE",
"435 522 LINE",
"601 522 LINE",
"486 682 LINE",
"329 682 LINE"
);
},
{
closed = 1;
nodes = (
"268 650 LINE",
"230 814 LINE",
"72 814 LINE",
"118 650 LINE"
);
}
);
width = 577;
}
);
leftKerningGroup = a;
note = acircumflexgrave;
unicode = 1EA7;
},
